<svg width="370" height="230" viewBox="0 0 370 230" fill="none" xmlns="http://www.w3.org/2000/svg">
<g clip-path="url(#clip0)">
<path d="M16.0378 155.01C25.3887 161.772 66.4575 167.676 111.437 171.818C111.425 171.89 111.421 171.967 111.421 172.039C98.5457 181.161 81.7432 187.633 64.7073 190.206C89.4162 190.206 111.997 181.653 133.237 173.664L133.157 173.656C132.883 173.636 132.605 173.612 132.332 173.588H132.336L133.157 173.656C154.94 175.358 176.603 176.62 195.104 177.346C195.353 177.354 195.603 177.366 195.852 177.374C176.261 190.698 146.266 203.724 125.456 210.119C125.355 210.152 125.299 210.244 125.323 210.341C125.343 210.422 125.415 210.482 125.5 210.49C125.516 210.49 125.532 210.49 125.544 210.49C151.021 207.486 189.346 193.884 210.514 177.907C237.444 178.818 264.068 179.363 287.731 179.677C271.399 193.864 249.789 208.075 233.642 216.499C233.549 216.547 233.513 216.652 233.553 216.741C233.59 216.817 233.67 216.862 233.755 216.854C233.771 216.854 233.787 216.85 233.799 216.846C253.969 210.648 281.31 195.783 300.148 179.822C334.103 180.185 360.248 180.096 369.487 180.048V150.832C253.438 167.357 131.781 172.648 16.0378 155.01Z" fill="#807BB0"/>
<path d="M6.0752 175.701C8.46521 173.777 10.5897 170.027 12.7021 167.809C14.8144 165.591 17.0878 163.454 19.8399 162.071C22.5921 160.687 25.8995 160.139 28.7964 161.188C31.6934 162.24 33.9788 165.131 33.7093 168.16C33.4839 170.713 31.6089 172.838 29.5328 174.386C22.9099 179.322 13.2251 179.863 6.0752 175.701Z" fill="#65D1CA"/>
<path d="M31.8021 163.188C31.8021 163.188 31.5526 163.426 31.1221 163.841C30.6835 164.26 30.072 164.821 29.2833 165.474C28.5068 166.14 27.5532 166.853 26.5071 167.595C25.4529 168.325 24.2901 169.051 23.0991 169.725C21.896 170.386 20.6648 170.995 19.4819 171.511C18.2949 172.015 17.1683 172.455 16.1825 172.773C15.2007 173.108 14.3679 173.342 13.7844 173.495C13.197 173.648 12.863 173.733 12.863 173.733C12.863 173.733 13.201 173.66 13.7925 173.535C14.384 173.406 15.2289 173.209 16.2268 172.918C17.2286 172.644 18.3794 172.249 19.5985 171.793C20.8137 171.325 22.0811 170.765 23.3284 170.148C24.5677 169.519 25.7748 168.833 26.8812 168.14C27.9757 167.434 28.9816 166.744 29.8024 166.103C30.6312 165.478 31.3112 164.902 31.7619 164.51C32.2125 164.115 32.474 163.885 32.474 163.885C32.6752 163.712 32.6913 163.409 32.5143 163.212C32.3372 163.014 32.0315 162.998 31.8303 163.176C31.8102 163.18 31.8061 163.184 31.8021 163.188Z" fill="#4AA5A2"/>
<path d="M29.2591 165.841C29.2591 165.841 29.2994 166.382 29.239 167.156C29.1867 167.942 29.0016 168.991 28.6717 170.003C28.3418 171.015 27.879 171.983 27.4405 172.656C27.0099 173.338 26.6438 173.737 26.6438 173.737C26.6438 173.737 27.0301 173.358 27.5049 172.701C27.9877 172.047 28.5188 171.096 28.9131 170.088C29.3074 169.075 29.569 168.015 29.6695 167.2C29.7822 166.378 29.7701 165.841 29.7701 165.841V165.817C29.7661 165.676 29.6494 165.563 29.5046 165.563C29.3597 165.567 29.2471 165.684 29.2471 165.825C29.2551 165.833 29.2551 165.837 29.2591 165.841Z" fill="#4AA5A2"/>
<path d="M23.3808 169.672C23.3808 169.672 23.3366 170.108 23.1997 170.729C23.067 171.358 22.8256 172.189 22.4996 172.991C22.1737 173.79 21.7593 174.56 21.365 175.08C20.9787 175.608 20.6367 175.895 20.6367 175.895C20.6367 175.895 20.9988 175.636 21.4294 175.132C21.872 174.636 22.3508 173.89 22.7491 173.1C23.1434 172.31 23.4613 171.479 23.6464 170.842C23.8395 170.196 23.92 169.769 23.92 169.769L23.924 169.753C23.9522 169.604 23.8516 169.463 23.7027 169.438C23.5538 169.41 23.409 169.511 23.3808 169.656C23.3848 169.66 23.3848 169.664 23.3808 169.672Z" fill="#4AA5A2"/>
<path d="M17.852 172.201C17.852 172.201 17.7555 172.499 17.5664 172.914C17.3772 173.338 17.0835 173.882 16.7335 174.398C16.3834 174.915 15.977 175.394 15.631 175.713C15.289 176.036 15.0234 176.213 15.0234 176.213C15.0234 176.213 15.3011 176.056 15.6672 175.753C16.0374 175.455 16.48 174.995 16.8703 174.499C17.2606 173.999 17.6026 173.463 17.8239 173.039C18.0532 172.616 18.1659 172.322 18.1659 172.322L18.1699 172.309C18.2061 172.225 18.1618 172.124 18.0733 172.092C17.9848 172.059 17.8882 172.1 17.852 172.189C17.8561 172.193 17.852 172.197 17.852 172.201Z" fill="#4AA5A2"/>
<path d="M29.5166 165.672C29.5166 165.672 29.066 165.361 28.2975 164.99C27.541 164.623 26.4868 164.252 25.4005 164.022C24.3141 163.793 23.2036 163.704 22.3747 163.736C21.5459 163.756 21.0027 163.861 21.0027 163.861C21.0027 163.861 21.5499 163.789 22.3747 163.817C23.1955 163.833 24.2859 163.986 25.3401 164.272C26.3903 164.559 27.3962 164.982 28.0963 165.377C28.7924 165.761 29.2269 166.099 29.2269 166.099C29.3396 166.188 29.5045 166.168 29.5931 166.059C29.6816 165.946 29.6615 165.785 29.5488 165.7C29.5448 165.696 29.5408 165.696 29.5367 165.692L29.5166 165.672Z" fill="#4AA5A2"/>
<path d="M23.7668 169.471C23.7668 169.471 23.3604 169.293 22.7086 169.091C22.0648 168.886 21.1917 168.676 20.3065 168.555C19.4213 168.438 18.52 168.41 17.8561 168.491C17.1882 168.559 16.7698 168.708 16.7698 168.708C16.7698 168.708 17.2003 168.591 17.8642 168.575C18.5241 168.547 19.4052 168.64 20.2582 168.821C21.1153 169.007 21.9481 169.273 22.5517 169.519C23.1512 169.757 23.5415 169.962 23.5415 169.962C23.6743 170.035 23.8433 169.983 23.9157 169.85C23.9881 169.717 23.9358 169.551 23.803 169.483C23.799 169.479 23.791 169.475 23.7829 169.475L23.7668 169.471Z" fill="#4AA5A2"/>
<path d="M18.0613 172.1C18.0613 172.1 17.7596 172.007 17.2767 171.914C16.8019 171.822 16.1622 171.745 15.5224 171.729C14.8827 171.717 14.2429 171.769 13.7722 171.862C13.3014 171.951 13.0037 172.068 13.0037 172.068C13.0037 172.068 13.3095 171.975 13.7802 171.914C14.251 171.85 14.8827 171.842 15.5104 171.894C16.138 171.951 16.7577 172.068 17.2083 172.189C17.659 172.306 17.9527 172.418 17.9527 172.418C18.0412 172.451 18.1378 172.41 18.174 172.322C18.2062 172.237 18.1659 172.136 18.0774 172.104C18.0734 172.104 18.0694 172.1 18.0653 172.1H18.0613Z" fill="#4AA5A2"/>
<path d="M1.01349 130.27C4.32894 132.31 9.75677 133.29 13.3176 134.879C16.8785 136.468 20.4072 138.282 23.2076 140.964C26.0081 143.646 28.0239 147.327 27.9193 151.171C27.8147 155.014 25.2235 158.885 21.4252 159.796C18.2264 160.567 14.8748 159.22 12.1468 157.401C3.44777 151.594 -1.1512 140.395 1.01349 130.27Z" fill="#65D1CA"/>
<path d="M26.6438 155.635C26.6438 155.635 26.2535 155.437 25.5735 155.09C24.8895 154.739 23.952 154.239 22.8334 153.566C22.2701 153.239 21.6787 152.86 21.055 152.457C20.4273 152.058 19.7916 151.598 19.1237 151.134C17.812 150.178 16.456 149.098 15.1524 147.956C13.8649 146.799 12.6256 145.585 11.5191 144.396C10.9799 143.791 10.4448 143.214 9.97404 142.637C9.49523 142.065 9.04861 141.524 8.65832 141.004C7.85763 139.98 7.23799 139.089 6.81954 138.46C6.40108 137.831 6.15967 137.468 6.15967 137.468C6.15967 137.468 6.38901 137.835 6.78333 138.48C7.18166 139.125 7.77313 140.036 8.53761 141.089C8.91181 141.625 9.33831 142.182 9.80102 142.775C10.2517 143.371 10.7707 143.964 11.2898 144.593C12.36 145.827 13.5631 147.093 14.8225 148.303C16.0979 149.501 17.4257 150.642 18.7213 151.65C19.3812 152.142 20.0049 152.634 20.6285 153.058C21.2482 153.489 21.8356 153.897 22.3949 154.247C23.4933 154.965 24.467 155.526 25.1309 155.893C25.7988 156.26 26.1811 156.473 26.1811 156.473C26.4144 156.602 26.7082 156.522 26.841 156.292C26.9737 156.062 26.8892 155.772 26.6559 155.643C26.6559 155.643 26.6478 155.639 26.6438 155.635Z" fill="#4AA5A2"/>
<path d="M22.4633 153.667C22.4633 153.667 21.8235 153.929 20.8458 154.171C19.86 154.425 18.504 154.618 17.136 154.639C15.768 154.655 14.4 154.489 13.3981 154.243C12.8952 154.126 12.4888 153.997 12.2031 153.897C11.9214 153.792 11.7605 153.735 11.7605 153.735C11.7605 153.735 11.9174 153.8 12.195 153.917C12.4727 154.03 12.8791 154.183 13.378 154.32C14.3718 154.618 15.7439 154.848 17.132 154.897C18.5201 154.945 19.9163 154.808 20.9423 154.594C21.4533 154.497 21.8919 154.376 22.1776 154.292C22.4673 154.203 22.6282 154.155 22.6282 154.155L22.6403 154.151C22.7771 154.11 22.8536 153.965 22.8133 153.828C22.7691 153.691 22.6242 153.618 22.4874 153.659C22.4794 153.663 22.4713 153.667 22.4633 153.667Z" fill="#4AA5A2"/>
<path d="M15.4019 148.303C15.4019 148.303 14.8547 148.42 14.0379 148.509C13.2131 148.602 12.1025 148.646 10.992 148.578C9.88555 148.505 8.77906 148.324 7.98641 148.061C7.58807 147.936 7.26618 147.803 7.04489 147.698C6.82761 147.59 6.70288 147.525 6.70288 147.525C6.70288 147.525 6.82359 147.594 7.03282 147.719C7.24607 147.836 7.55991 147.993 7.95422 148.142C8.73882 148.453 9.84531 148.707 10.9639 148.848C12.0865 148.985 13.2211 149.009 14.0701 148.965C14.9271 148.924 15.4824 148.84 15.4824 148.84L15.4985 148.836C15.6473 148.811 15.7519 148.674 15.7278 148.525C15.7037 148.376 15.5628 148.275 15.414 148.299C15.4099 148.299 15.4059 148.299 15.4019 148.303Z" fill="#4AA5A2"/>
<path d="M10.0626 142.779C10.0626 142.779 9.66026 142.783 9.07282 142.726C8.48135 142.674 7.69272 142.537 6.92422 142.331C6.15571 142.121 5.40732 141.831 4.88023 141.553C4.34911 141.279 4.03125 141.033 4.03125 141.033C4.03125 141.033 4.33704 141.295 4.85609 141.597C5.37111 141.908 6.11145 142.238 6.87593 142.492C7.64444 142.742 8.43709 142.92 9.04063 143.009C9.64819 143.101 10.0505 143.117 10.0505 143.117H10.0626C10.1552 143.121 10.2356 143.049 10.2397 142.956C10.2437 142.863 10.1713 142.787 10.0747 142.783C10.0707 142.779 10.0666 142.779 10.0626 142.779Z" fill="#4AA5A2"/>
<path d="M22.6846 153.824C22.6846 153.824 22.7249 153.659 22.7973 153.368C22.8657 153.082 22.9623 152.634 23.0226 152.122C23.1715 151.086 23.1997 149.695 23.0508 148.32C22.8939 146.944 22.5639 145.602 22.1938 144.634C22.0167 144.15 21.8397 143.755 21.7069 143.484C21.5701 143.214 21.4937 143.061 21.4937 143.061C21.4937 143.061 21.5621 143.218 21.6868 143.493C21.8035 143.767 21.9644 144.166 22.1173 144.658C22.4352 145.634 22.7007 146.981 22.7893 148.34C22.8737 149.699 22.7812 151.058 22.5881 152.054C22.4996 152.558 22.399 152.949 22.3145 153.239C22.23 153.526 22.1777 153.691 22.1777 153.691C22.1374 153.828 22.2139 153.969 22.3547 154.01C22.4915 154.05 22.6364 153.973 22.6806 153.836C22.6846 153.832 22.6846 153.828 22.6846 153.824Z" fill="#4AA5A2"/>
<path d="M15.7159 148.594C15.7159 148.594 15.7722 148.045 15.7601 147.198C15.7561 146.36 15.6635 145.247 15.4624 144.154C15.2572 143.061 14.9353 141.988 14.5732 141.238C14.4001 140.859 14.2231 140.561 14.0903 140.355C13.9535 140.153 13.873 140.041 13.873 140.041C13.873 140.041 13.9455 140.157 14.0662 140.367C14.1829 140.577 14.3398 140.887 14.4887 141.27C14.7985 142.037 15.052 143.109 15.1847 144.194C15.3175 145.279 15.3376 146.376 15.2934 147.19C15.2531 147.997 15.1646 148.545 15.1646 148.545C15.1405 148.695 15.2451 148.832 15.394 148.856C15.5428 148.88 15.6877 148.779 15.7078 148.63C15.7078 148.626 15.7078 148.618 15.7118 148.614L15.7159 148.594Z" fill="#4AA5A2"/>
<path d="M10.2236 142.944C10.2236 142.944 10.2156 142.549 10.1391 141.948C10.0667 141.351 9.90578 140.569 9.66839 139.807C9.43099 139.044 9.11313 138.311 8.81136 137.794C8.51361 137.274 8.2561 136.968 8.2561 136.968C8.2561 136.968 8.49752 137.286 8.76308 137.819C9.03668 138.347 9.31029 139.089 9.50342 139.851C9.69655 140.613 9.81324 141.391 9.85347 141.976C9.89773 142.557 9.88164 142.952 9.88164 142.952C9.87761 143.045 9.95004 143.121 10.0466 143.125C10.1391 143.129 10.2196 143.057 10.2236 142.964C10.2236 142.96 10.2236 142.96 10.2236 142.956V142.944Z" fill="#4AA5A2"/>
<path d="M45.6914 198.872C48.3872 197.219 51.071 193.686 53.5213 191.698C55.9757 189.714 58.583 187.827 61.5645 186.767C64.546 185.706 67.9741 185.549 70.7584 186.964C73.5427 188.38 75.4419 191.581 74.7418 194.61C74.1503 197.163 71.9494 199.086 69.6278 200.397C62.2203 204.579 52.3384 203.949 45.6914 198.872Z" fill="#65D1CA"/>
<path d="M73.5387 189.376C73.5387 189.376 73.253 189.585 72.7541 189.952C72.2511 190.319 71.551 190.815 70.6538 191.38C70.2112 191.67 69.7243 191.961 69.2012 192.263C68.6822 192.574 68.1149 192.868 67.5355 193.182C66.3646 193.787 65.0811 194.38 63.7774 194.916C62.4657 195.437 61.1299 195.9 59.8585 196.275C59.2187 196.449 58.6031 196.634 58.0116 196.771C57.4202 196.917 56.8609 197.046 56.3378 197.147C55.2957 197.364 54.4226 197.497 53.807 197.578C53.1914 197.659 52.8413 197.707 52.8413 197.707C52.8413 197.707 53.1954 197.675 53.811 197.618C54.4266 197.558 55.3118 197.461 56.362 197.284C56.889 197.207 57.4564 197.098 58.0559 196.977C58.6554 196.864 59.2831 196.703 59.9309 196.554C61.2265 196.223 62.5905 195.812 63.9384 195.34C65.2782 194.852 66.602 194.304 67.8171 193.735C68.4166 193.436 69.0041 193.162 69.5433 192.868C70.0864 192.578 70.5974 192.303 71.0602 192.025C71.9856 191.493 72.7541 190.993 73.2651 190.65C73.7801 190.303 74.0738 190.106 74.0738 190.106C74.2871 189.964 74.3394 189.682 74.1986 189.476C74.0577 189.271 73.768 189.222 73.5588 189.364C73.5467 189.368 73.5427 189.376 73.5387 189.376Z" fill="#4AA5A2"/>
<path d="M70.5855 191.727C70.5855 191.727 70.5493 192.275 70.3763 193.053C70.2113 193.844 69.8693 194.88 69.3905 195.86C68.9117 196.84 68.3001 197.763 67.761 198.393C67.2258 199.026 66.7993 199.389 66.7993 199.389C66.7993 199.389 67.2459 199.054 67.8173 198.441C68.3967 197.84 69.0686 196.941 69.6118 195.969C70.155 194.997 70.5654 193.953 70.7827 193.146C71.012 192.327 71.0764 191.787 71.0764 191.787L71.0804 191.763C71.0965 191.63 70.9999 191.509 70.8631 191.497C70.7263 191.485 70.6016 191.581 70.5855 191.715C70.5855 191.719 70.5855 191.723 70.5855 191.727Z" fill="#4AA5A2"/>
<path d="M64.0913 194.888C64.0913 194.888 63.9826 195.32 63.7533 195.933C63.528 196.554 63.1618 197.36 62.7152 198.131C62.2686 198.897 61.7375 199.627 61.2627 200.102C60.7959 200.586 60.4097 200.836 60.4097 200.836C60.4097 200.836 60.812 200.619 61.319 200.159C61.834 199.711 62.4255 199.014 62.9405 198.264C63.4515 197.514 63.8861 196.711 64.1637 196.09C64.4494 195.461 64.5902 195.037 64.5902 195.037L64.5942 195.021C64.6385 194.884 64.562 194.743 64.4252 194.699C64.2884 194.658 64.1396 194.735 64.0953 194.868C64.0953 194.876 64.0913 194.88 64.0913 194.888Z" fill="#4AA5A2"/>
<path d="M58.1244 196.767C58.1244 196.767 57.9836 197.058 57.7301 197.457C57.4806 197.86 57.0984 198.376 56.6719 198.856C56.2413 199.332 55.7625 199.768 55.3682 200.05C54.9739 200.336 54.6802 200.477 54.6802 200.477C54.6802 200.477 54.9819 200.352 55.3964 200.09C55.8108 199.832 56.3258 199.421 56.7926 198.965C57.2553 198.505 57.6778 198.005 57.9634 197.602C58.2531 197.199 58.4101 196.921 58.4101 196.921L58.4141 196.913C58.4583 196.836 58.4302 196.739 58.3497 196.695C58.2733 196.655 58.1727 196.683 58.1284 196.759C58.1284 196.763 58.1244 196.763 58.1244 196.767Z" fill="#4AA5A2"/>
<path d="M70.839 191.598C70.839 191.598 70.4285 191.227 69.7043 190.763C68.9961 190.299 67.9782 189.791 66.9119 189.424C65.8457 189.061 64.7352 188.831 63.8942 188.759C63.0533 188.678 62.49 188.714 62.49 188.714C62.49 188.714 63.0573 188.706 63.8862 188.831C64.715 188.948 65.8014 189.234 66.8234 189.646C67.8494 190.061 68.807 190.61 69.4629 191.093C70.1147 191.565 70.509 191.96 70.509 191.96C70.6056 192.057 70.7625 192.057 70.8591 191.96C70.9597 191.868 70.9597 191.71 70.8671 191.618C70.8631 191.614 70.8631 191.614 70.8591 191.61L70.839 191.598Z" fill="#4AA5A2"/>
<path d="M64.4775 194.743C64.4775 194.743 64.0913 194.513 63.4636 194.227C62.844 193.941 61.991 193.622 61.1098 193.388C60.2286 193.158 59.3273 193.017 58.6433 193.017C57.9593 193.005 57.5127 193.106 57.5127 193.106C57.5127 193.106 57.9674 193.041 58.6393 193.098C59.3112 193.146 60.1884 193.348 61.0333 193.634C61.8743 193.924 62.683 194.295 63.2624 194.614C63.8378 194.929 64.2039 195.183 64.2039 195.183C64.3206 195.263 64.4856 195.235 64.5701 195.118C64.6546 195.001 64.6304 194.84 64.5097 194.759C64.5057 194.755 64.5017 194.751 64.4936 194.751L64.4775 194.743Z" fill="#4AA5A2"/>
<path d="M58.3335 196.699C58.3335 196.699 58.0398 196.566 57.569 196.412C57.1023 196.259 56.4665 196.102 55.8228 196.009C55.175 195.916 54.5231 195.888 54.0323 195.929C53.5454 195.961 53.2275 196.041 53.2275 196.041C53.2275 196.041 53.5494 195.985 54.0363 195.981C54.5231 195.973 55.1629 196.037 55.7906 196.17C56.4183 196.304 57.0298 196.493 57.4684 196.671C57.907 196.844 58.1927 196.993 58.1927 196.993C58.2731 197.033 58.3697 197.005 58.414 196.929C58.4582 196.852 58.4301 196.755 58.3496 196.715C58.3456 196.715 58.3456 196.711 58.3415 196.711L58.3335 196.699Z" fill="#4AA5A2"/>
<path d="M104.07 217.822C106.907 216.084 109.731 212.361 112.314 210.273C114.898 208.184 117.642 206.2 120.78 205.083C123.918 203.966 127.528 203.8 130.457 205.292C133.386 206.784 135.386 210.152 134.649 213.337C134.026 216.023 131.712 218.047 129.266 219.427C121.468 223.83 111.067 223.165 104.07 217.822Z" fill="#65D1CA"/>
<path d="M133.382 207.829C133.382 207.829 133.08 208.051 132.557 208.438C132.026 208.825 131.289 209.345 130.348 209.942C129.885 210.244 129.366 210.551 128.819 210.873C128.276 211.2 127.676 211.511 127.069 211.841C125.833 212.478 124.486 213.103 123.11 213.668C121.729 214.216 120.321 214.704 118.981 215.1C118.309 215.285 117.662 215.479 117.038 215.62C116.414 215.773 115.827 215.91 115.276 216.015C114.181 216.241 113.26 216.382 112.612 216.471C111.964 216.555 111.594 216.604 111.594 216.604C111.594 216.604 111.964 216.567 112.616 216.511C113.264 216.451 114.193 216.346 115.3 216.16C115.855 216.08 116.45 215.963 117.082 215.838C117.714 215.721 118.374 215.551 119.058 215.394C120.422 215.047 121.858 214.612 123.274 214.116C124.687 213.603 126.075 213.027 127.354 212.426C127.986 212.111 128.606 211.825 129.173 211.515C129.744 211.212 130.284 210.918 130.766 210.627C131.74 210.067 132.553 209.543 133.088 209.18C133.627 208.813 133.937 208.607 133.937 208.607C134.158 208.458 134.219 208.159 134.07 207.946C133.921 207.732 133.619 207.676 133.398 207.829C133.394 207.821 133.386 207.825 133.382 207.829Z" fill="#4AA5A2"/>
<path d="M130.272 210.301C130.272 210.301 130.232 210.877 130.05 211.7C129.877 212.531 129.515 213.62 129.012 214.656C128.509 215.688 127.866 216.66 127.294 217.321C126.731 217.991 126.284 218.37 126.284 218.37C126.284 218.37 126.755 218.015 127.359 217.374C127.97 216.741 128.674 215.793 129.246 214.769C129.817 213.745 130.248 212.648 130.477 211.797C130.718 210.938 130.787 210.365 130.787 210.365L130.791 210.341C130.807 210.2 130.706 210.075 130.561 210.059C130.417 210.043 130.288 210.147 130.272 210.289C130.272 210.293 130.272 210.297 130.272 210.301Z" fill="#4AA5A2"/>
<path d="M123.44 213.628C123.44 213.628 123.323 214.083 123.085 214.729C122.848 215.382 122.462 216.233 121.995 217.043C121.524 217.85 120.965 218.616 120.466 219.12C119.971 219.632 119.569 219.89 119.569 219.89C119.569 219.89 119.991 219.661 120.526 219.181C121.07 218.709 121.689 217.975 122.232 217.185C122.772 216.394 123.226 215.551 123.52 214.894C123.822 214.233 123.971 213.785 123.971 213.785L123.975 213.769C124.023 213.628 123.942 213.475 123.798 213.43C123.653 213.386 123.496 213.466 123.448 213.608C123.44 213.616 123.44 213.624 123.44 213.628Z" fill="#4AA5A2"/>
<path d="M117.159 215.608C117.159 215.608 117.01 215.914 116.744 216.334C116.479 216.761 116.08 217.301 115.63 217.806C115.179 218.306 114.672 218.765 114.258 219.06C113.843 219.358 113.533 219.511 113.533 219.511C113.533 219.511 113.851 219.378 114.286 219.104C114.724 218.834 115.264 218.402 115.754 217.918C116.241 217.435 116.688 216.906 116.986 216.487C117.291 216.063 117.456 215.769 117.456 215.769L117.46 215.761C117.505 215.68 117.477 215.58 117.396 215.535C117.312 215.491 117.211 215.523 117.163 215.604C117.159 215.604 117.159 215.604 117.159 215.608Z" fill="#4AA5A2"/>
<path d="M130.541 210.168C130.541 210.168 130.111 209.777 129.346 209.289C128.598 208.797 127.532 208.268 126.409 207.881C125.286 207.498 124.12 207.256 123.23 207.184C122.345 207.099 121.75 207.139 121.75 207.139C121.75 207.139 122.345 207.131 123.218 207.264C124.091 207.385 125.234 207.688 126.313 208.123C127.391 208.563 128.401 209.135 129.093 209.648C129.781 210.144 130.195 210.559 130.195 210.559C130.296 210.66 130.461 210.66 130.565 210.559C130.67 210.458 130.674 210.297 130.574 210.196C130.569 210.192 130.569 210.192 130.565 210.188L130.541 210.168Z" fill="#4AA5A2"/>
<path d="M123.846 213.474C123.846 213.474 123.439 213.233 122.78 212.934C122.128 212.632 121.227 212.297 120.305 212.051C119.38 211.809 118.426 211.664 117.706 211.66C116.986 211.648 116.515 211.753 116.515 211.753C116.515 211.753 116.994 211.684 117.698 211.744C118.406 211.797 119.331 212.007 120.217 212.309C121.102 212.611 121.955 213.003 122.562 213.341C123.166 213.672 123.552 213.938 123.552 213.938C123.677 214.023 123.85 213.995 123.938 213.874C124.027 213.753 123.999 213.583 123.878 213.495C123.874 213.491 123.866 213.487 123.862 213.483L123.846 213.474Z" fill="#4AA5A2"/>
<path d="M117.38 215.535C117.38 215.535 117.07 215.394 116.575 215.237C116.084 215.076 115.416 214.91 114.736 214.809C114.056 214.713 113.368 214.684 112.853 214.725C112.338 214.761 112.004 214.842 112.004 214.842C112.004 214.842 112.342 214.781 112.853 214.777C113.364 214.769 114.04 214.838 114.7 214.975C115.36 215.112 116.004 215.313 116.467 215.503C116.929 215.684 117.227 215.842 117.227 215.842C117.312 215.886 117.412 215.854 117.46 215.773C117.505 215.692 117.476 215.592 117.392 215.547C117.388 215.547 117.388 215.543 117.384 215.543L117.38 215.535Z" fill="#4AA5A2"/>
<path d="M209.665 222.536C212.502 220.798 215.326 217.075 217.91 214.987C220.493 212.898 223.237 210.914 226.375 209.797C229.514 208.68 233.123 208.514 236.052 210.006C238.981 211.498 240.981 214.866 240.245 218.051C239.621 220.737 237.307 222.761 234.861 224.141C227.063 228.54 216.658 227.879 209.665 222.536Z" fill="#65D1CA"/>
<path d="M238.973 212.543C238.973 212.543 238.671 212.765 238.148 213.152C237.617 213.539 236.881 214.059 235.939 214.656C235.477 214.958 234.958 215.265 234.41 215.588C233.867 215.914 233.268 216.225 232.66 216.555C231.425 217.193 230.077 217.818 228.701 218.382C227.321 218.931 225.913 219.419 224.573 219.814C223.901 219.999 223.253 220.193 222.629 220.334C222.006 220.487 221.418 220.624 220.867 220.729C219.773 220.955 218.851 221.096 218.203 221.185C217.556 221.269 217.185 221.318 217.185 221.318C217.185 221.318 217.556 221.282 218.207 221.225C218.855 221.165 219.785 221.06 220.891 220.874C221.446 220.794 222.042 220.677 222.674 220.552C223.305 220.435 223.965 220.265 224.649 220.108C226.013 219.761 227.45 219.326 228.866 218.83C230.278 218.318 231.67 217.741 232.946 217.14C233.578 216.826 234.197 216.539 234.765 216.229C235.336 215.926 235.875 215.632 236.358 215.342C237.332 214.781 238.144 214.257 238.679 213.894C239.219 213.527 239.528 213.321 239.528 213.321C239.75 213.172 239.81 212.874 239.661 212.66C239.512 212.446 239.211 212.39 238.985 212.543C238.985 212.535 238.977 212.539 238.973 212.543Z" fill="#4AA5A2"/>
<path d="M235.863 215.015C235.863 215.015 235.822 215.591 235.641 216.414C235.468 217.245 235.106 218.334 234.603 219.37C234.1 220.402 233.457 221.374 232.885 222.035C232.322 222.705 231.875 223.084 231.875 223.084C231.875 223.084 232.346 222.729 232.95 222.088C233.561 221.455 234.265 220.507 234.837 219.483C235.408 218.459 235.839 217.362 236.068 216.511C236.309 215.652 236.378 215.079 236.378 215.079L236.382 215.055C236.398 214.914 236.297 214.789 236.152 214.773C236.008 214.757 235.879 214.861 235.863 215.003C235.867 215.003 235.863 215.011 235.863 215.015Z" fill="#4AA5A2"/>
<path d="M229.031 218.342C229.031 218.342 228.914 218.797 228.677 219.443C228.44 220.096 228.053 220.947 227.586 221.757C227.116 222.564 226.556 223.33 226.058 223.834C225.563 224.346 225.16 224.604 225.16 224.604C225.16 224.604 225.583 224.375 226.118 223.895C226.661 223.423 227.281 222.689 227.824 221.899C228.363 221.108 228.818 220.265 229.111 219.608C229.413 218.947 229.562 218.499 229.562 218.499L229.566 218.483C229.614 218.342 229.534 218.189 229.389 218.144C229.244 218.1 229.087 218.18 229.039 218.322C229.035 218.33 229.031 218.334 229.031 218.342Z" fill="#4AA5A2"/>
<path d="M222.75 220.322C222.75 220.322 222.601 220.628 222.336 221.048C222.07 221.475 221.672 222.015 221.221 222.52C220.771 223.02 220.264 223.479 219.849 223.774C219.435 224.072 219.125 224.225 219.125 224.225C219.125 224.225 219.443 224.092 219.877 223.818C220.316 223.548 220.855 223.116 221.346 222.632C221.833 222.148 222.279 221.62 222.577 221.201C222.883 220.777 223.048 220.483 223.048 220.483L223.052 220.475C223.096 220.394 223.068 220.293 222.988 220.249C222.903 220.205 222.802 220.237 222.754 220.318C222.754 220.314 222.75 220.318 222.75 220.322Z" fill="#4AA5A2"/>
<path d="M236.132 214.878C236.132 214.878 235.702 214.487 234.937 213.999C234.189 213.507 233.123 212.978 232 212.591C230.878 212.208 229.711 211.966 228.822 211.894C227.936 211.809 227.341 211.849 227.341 211.849C227.341 211.849 227.936 211.841 228.809 211.974C229.683 212.095 230.825 212.398 231.904 212.833C232.982 213.273 233.992 213.845 234.684 214.357C235.372 214.854 235.786 215.269 235.786 215.269C235.887 215.37 236.052 215.37 236.157 215.269C236.261 215.168 236.265 215.007 236.165 214.906C236.161 214.902 236.161 214.902 236.157 214.898L236.132 214.878Z" fill="#4AA5A2"/>
<path d="M229.437 218.188C229.437 218.188 229.031 217.947 228.371 217.648C227.719 217.346 226.818 217.011 225.897 216.765C224.971 216.523 224.018 216.378 223.297 216.374C222.577 216.362 222.106 216.467 222.106 216.467C222.106 216.467 222.585 216.398 223.289 216.458C223.997 216.511 224.923 216.721 225.808 217.023C226.693 217.325 227.546 217.717 228.154 218.055C228.757 218.386 229.144 218.652 229.144 218.652C229.268 218.737 229.441 218.709 229.53 218.588C229.618 218.467 229.59 218.297 229.47 218.209C229.466 218.205 229.457 218.201 229.453 218.197L229.437 218.188Z" fill="#4AA5A2"/>
<path d="M222.971 220.249C222.971 220.249 222.662 220.108 222.167 219.951C221.676 219.79 221.008 219.624 220.328 219.523C219.648 219.427 218.96 219.398 218.445 219.439C217.93 219.475 217.596 219.556 217.596 219.556C217.596 219.556 217.934 219.495 218.445 219.491C218.956 219.483 219.632 219.552 220.292 219.689C220.952 219.826 221.595 220.027 222.058 220.217C222.521 220.398 222.818 220.556 222.818 220.556C222.903 220.6 223.004 220.568 223.052 220.487C223.096 220.406 223.068 220.306 222.983 220.261C222.979 220.261 222.979 220.257 222.975 220.257L222.971 220.249Z" fill="#4AA5A2"/>
<path d="M235.436 188.25C238.45 188.621 242.671 187.629 245.725 187.617C248.779 187.609 251.881 187.763 254.721 188.726C257.562 189.69 260.141 191.573 261.24 194.215C262.338 196.856 261.646 200.272 259.184 202.054C257.107 203.554 254.279 203.667 251.752 203.264C243.701 201.982 236.965 195.783 235.436 188.25Z" fill="#65D1CA"/>
<path d="M261.69 197.574C261.69 197.574 261.348 197.562 260.753 197.534C260.149 197.505 259.324 197.457 258.314 197.344C257.811 197.296 257.268 197.223 256.693 197.138C256.117 197.062 255.518 196.945 254.894 196.836C253.655 196.594 252.347 196.275 251.06 195.904C249.776 195.517 248.509 195.074 247.35 194.61C246.775 194.364 246.211 194.142 245.696 193.892C245.177 193.654 244.686 193.42 244.248 193.19C243.355 192.743 242.638 192.327 242.139 192.033C241.641 191.735 241.359 191.565 241.359 191.565C241.359 191.565 241.637 191.747 242.119 192.065C242.602 192.38 243.306 192.823 244.179 193.307C244.61 193.557 245.093 193.807 245.604 194.07C246.111 194.34 246.666 194.586 247.233 194.856C248.38 195.372 249.635 195.864 250.915 196.308C252.198 196.735 253.506 197.106 254.753 197.4C255.377 197.534 255.981 197.679 256.56 197.78C257.139 197.888 257.687 197.985 258.198 198.054C259.212 198.207 260.089 198.296 260.68 198.344C261.276 198.393 261.618 198.421 261.618 198.421C261.863 198.441 262.084 198.267 262.113 198.038C262.141 197.808 261.968 197.602 261.722 197.586C261.702 197.574 261.694 197.574 261.69 197.574Z" fill="#4AA5A2"/>
<path d="M258.041 197.554C258.041 197.554 257.659 197.929 257.031 198.392C256.403 198.868 255.486 199.417 254.508 199.848C253.53 200.28 252.492 200.59 251.696 200.731C250.899 200.881 250.36 200.893 250.36 200.893C250.36 200.893 250.899 200.909 251.708 200.8C252.517 200.703 253.579 200.441 254.601 200.054C255.619 199.667 256.588 199.151 257.268 198.695C257.96 198.235 258.359 197.884 258.359 197.884L258.375 197.868C258.471 197.78 258.479 197.638 258.391 197.55C258.302 197.461 258.15 197.457 258.053 197.546C258.045 197.546 258.041 197.55 258.041 197.554Z" fill="#4AA5A2"/>
<path d="M251.305 196.062C251.305 196.062 250.947 196.312 250.388 196.622C249.825 196.941 249.04 197.312 248.219 197.61C247.398 197.904 246.549 198.122 245.898 198.191C245.246 198.271 244.807 198.223 244.807 198.223C244.807 198.223 245.238 198.3 245.902 198.263C246.565 198.239 247.443 198.078 248.296 197.836C249.149 197.59 249.982 197.263 250.585 196.977C251.197 196.691 251.571 196.465 251.571 196.465L251.587 196.457C251.708 196.384 251.744 196.235 251.671 196.126C251.599 196.017 251.442 195.985 251.321 196.058C251.317 196.058 251.313 196.062 251.305 196.062Z" fill="#4AA5A2"/>
<path d="M245.781 193.957C245.781 193.957 245.491 194.086 245.053 194.227C244.61 194.372 244.003 194.525 243.383 194.622C242.763 194.719 242.136 194.751 241.669 194.727C241.202 194.703 240.896 194.638 240.896 194.638C240.896 194.638 241.194 194.723 241.665 194.775C242.132 194.832 242.767 194.832 243.399 194.771C244.031 194.711 244.658 194.59 245.121 194.469C245.592 194.348 245.886 194.235 245.886 194.235L245.894 194.231C245.974 194.199 246.018 194.114 245.986 194.037C245.958 193.961 245.865 193.924 245.785 193.957C245.785 193.953 245.781 193.953 245.781 193.957Z" fill="#4AA5A2"/>
<path d="M258.306 197.61C258.306 197.61 258.25 197.102 258.025 196.348C257.811 195.598 257.405 194.642 256.87 193.759C256.335 192.876 255.679 192.065 255.116 191.525C254.56 190.977 254.126 190.678 254.126 190.678C254.126 190.678 254.54 191.001 255.059 191.573C255.586 192.138 256.182 192.977 256.657 193.872C257.127 194.767 257.469 195.723 257.63 196.453C257.799 197.175 257.827 197.687 257.827 197.687C257.835 197.812 257.948 197.905 258.081 197.892C258.214 197.88 258.314 197.771 258.306 197.646C258.306 197.642 258.306 197.638 258.306 197.634V197.61Z" fill="#4AA5A2"/>
<path d="M251.68 196.183C251.68 196.183 251.551 195.795 251.281 195.223C251.02 194.654 250.609 193.928 250.123 193.251C249.636 192.573 249.072 191.948 248.577 191.549C248.091 191.142 247.704 190.956 247.704 190.956C247.704 190.956 248.075 191.17 248.521 191.606C248.976 192.033 249.479 192.686 249.905 193.384C250.328 194.082 250.674 194.82 250.883 195.388C251.096 195.949 251.197 196.344 251.197 196.344C251.229 196.473 251.366 196.546 251.503 196.513C251.639 196.477 251.724 196.348 251.692 196.219C251.692 196.215 251.688 196.207 251.688 196.203L251.68 196.183Z" fill="#4AA5A2"/>
<path d="M245.978 194.029C245.978 194.029 245.853 193.763 245.608 193.38C245.37 192.997 245.012 192.517 244.606 192.073C244.2 191.63 243.745 191.231 243.367 190.977C242.993 190.719 242.711 190.589 242.711 190.589C242.711 190.589 242.981 190.735 243.335 191.013C243.693 191.287 244.111 191.711 244.481 192.17C244.851 192.63 245.169 193.122 245.375 193.509C245.58 193.888 245.688 194.162 245.688 194.162C245.717 194.239 245.809 194.275 245.89 194.243C245.97 194.211 246.014 194.126 245.982 194.049C245.982 194.045 245.978 194.045 245.978 194.041V194.029Z" fill="#4AA5A2"/>
<path d="M161.997 229.895C161.631 226.71 159.39 222.645 158.581 219.519C157.769 216.39 157.133 213.172 157.487 210.01C157.841 206.849 159.306 203.712 162.022 201.893C164.737 200.074 168.809 199.889 171.481 201.945C173.734 203.679 174.599 206.55 174.805 209.24C175.456 217.826 170.169 226.355 161.997 229.895Z" fill="#65D1CA"/>
<path d="M165.723 200.55C165.723 200.55 165.796 200.905 165.925 201.522C166.053 202.147 166.214 203.006 166.347 204.07C166.427 204.599 166.484 205.175 166.54 205.784C166.604 206.393 166.629 207.038 166.669 207.704C166.717 209.039 166.701 210.458 166.613 211.878C166.508 213.293 166.339 214.708 166.114 216.019C165.985 216.672 165.876 217.309 165.731 217.902C165.595 218.499 165.462 219.06 165.313 219.572C165.035 220.604 164.754 221.447 164.548 222.036C164.339 222.624 164.219 222.959 164.219 222.959C164.219 222.959 164.351 222.629 164.589 222.052C164.822 221.471 165.14 220.636 165.462 219.616C165.635 219.108 165.792 218.552 165.957 217.959C166.13 217.37 166.267 216.737 166.423 216.084C166.709 214.773 166.942 213.358 167.107 211.93C167.256 210.502 167.337 209.063 167.345 207.712C167.333 207.034 167.341 206.381 167.301 205.76C167.272 205.139 167.236 204.55 167.18 204.01C167.091 202.929 166.959 202.01 166.858 201.393C166.757 200.772 166.697 200.413 166.697 200.413C166.657 200.155 166.403 199.973 166.13 200.006C165.86 200.038 165.675 200.268 165.715 200.526C165.719 200.534 165.723 200.542 165.723 200.55Z" fill="#4AA5A2"/>
<path d="M166.657 204.296C166.657 204.296 167.184 204.591 167.876 205.111C168.58 205.631 169.445 206.426 170.197 207.317C170.946 208.208 171.574 209.188 171.94 209.966C172.318 210.74 172.475 211.293 172.475 211.293C172.475 211.293 172.35 210.736 172.016 209.938C171.694 209.135 171.119 208.115 170.411 207.172C169.703 206.228 168.862 205.369 168.162 204.792C167.457 204.204 166.95 203.889 166.95 203.889L166.93 203.877C166.806 203.8 166.641 203.829 166.564 203.945C166.488 204.062 166.524 204.216 166.649 204.292C166.649 204.288 166.653 204.292 166.657 204.296Z" fill="#4AA5A2"/>
<path d="M166.729 211.583C166.729 211.583 167.107 211.886 167.606 212.378C168.113 212.87 168.745 213.579 169.296 214.341C169.847 215.104 170.318 215.918 170.564 216.572C170.825 217.221 170.885 217.681 170.885 217.681C170.885 217.681 170.857 217.217 170.644 216.547C170.443 215.874 170.028 215.019 169.53 214.208C169.027 213.398 168.435 212.632 167.952 212.087C167.465 211.535 167.111 211.208 167.111 211.208L167.099 211.196C166.987 211.091 166.806 211.091 166.701 211.196C166.596 211.301 166.6 211.466 166.713 211.571C166.717 211.575 166.725 211.579 166.729 211.583Z" fill="#4AA5A2"/>
<path d="M165.779 217.801C165.779 217.801 166.001 218.064 166.278 218.479C166.56 218.894 166.894 219.475 167.168 220.084C167.437 220.693 167.642 221.326 167.735 221.814C167.831 222.298 167.835 222.628 167.835 222.628C167.835 222.628 167.856 222.302 167.787 221.806C167.727 221.314 167.562 220.661 167.328 220.031C167.091 219.398 166.793 218.789 166.532 218.346C166.27 217.898 166.065 217.624 166.065 217.624L166.057 217.616C166.001 217.539 165.892 217.519 165.812 217.572C165.735 217.62 165.715 217.725 165.771 217.801C165.775 217.793 165.775 217.797 165.779 217.801Z" fill="#4AA5A2"/>
<path d="M166.653 204.006C166.653 204.006 166.089 204.199 165.289 204.623C164.492 205.038 163.514 205.708 162.645 206.486C161.78 207.268 161.032 208.151 160.561 208.869C160.082 209.583 159.857 210.103 159.857 210.103C159.857 210.103 160.118 209.595 160.633 208.914C161.14 208.228 161.933 207.393 162.83 206.675C163.728 205.958 164.721 205.357 165.51 205.002C166.287 204.639 166.862 204.478 166.862 204.478C167.003 204.437 167.075 204.296 167.027 204.163C166.979 204.03 166.83 203.953 166.689 203.994C166.685 203.994 166.681 203.998 166.677 203.998L166.653 204.006Z" fill="#4AA5A2"/>
<path d="M166.769 211.168C166.769 211.168 166.363 211.402 165.78 211.829C165.204 212.249 164.484 212.857 163.84 213.535C163.196 214.212 162.633 214.954 162.307 215.563C161.973 216.168 161.861 216.616 161.861 216.616C161.861 216.616 162.009 216.18 162.384 215.608C162.75 215.031 163.361 214.341 164.045 213.724C164.729 213.107 165.478 212.563 166.069 212.196C166.649 211.829 167.075 211.623 167.075 211.623C167.212 211.559 167.26 211.398 167.184 211.265C167.107 211.136 166.938 211.083 166.802 211.148C166.798 211.152 166.79 211.152 166.785 211.156L166.769 211.168Z" fill="#4AA5A2"/>
<path d="M165.808 217.58C165.808 217.58 165.538 217.777 165.164 218.128C164.79 218.471 164.339 218.967 163.941 219.495C163.542 220.027 163.208 220.6 163.015 221.056C162.818 221.507 162.746 221.826 162.746 221.826C162.746 221.826 162.838 221.511 163.067 221.076C163.289 220.64 163.659 220.096 164.081 219.596C164.508 219.1 164.987 218.64 165.369 218.334C165.747 218.023 166.029 217.842 166.029 217.842C166.105 217.789 166.125 217.689 166.069 217.612C166.013 217.535 165.904 217.515 165.824 217.568C165.82 217.568 165.82 217.572 165.816 217.572L165.808 217.58Z" fill="#4AA5A2"/>
<path d="M275.306 228.629C273.882 225.722 270.393 222.552 268.567 219.838C266.744 217.12 265.054 214.265 264.322 211.16C263.589 208.055 263.919 204.639 265.879 202.09C267.838 199.542 271.632 198.13 274.855 199.264C277.571 200.219 279.366 202.679 280.464 205.167C283.985 213.108 281.852 222.794 275.306 228.629Z" fill="#63D1CA"/>
<path d="M268.933 199.695C268.933 199.695 269.122 200.01 269.452 200.554C269.782 201.107 270.224 201.873 270.715 202.841C270.969 203.32 271.218 203.845 271.476 204.409C271.741 204.966 271.983 205.571 272.244 206.192C272.739 207.442 273.202 208.793 273.6 210.164C273.978 211.539 274.296 212.926 274.526 214.241C274.622 214.898 274.739 215.535 274.799 216.14C274.872 216.745 274.932 217.318 274.964 217.85C275.049 218.911 275.069 219.798 275.073 220.419C275.073 221.04 275.073 221.395 275.073 221.395C275.073 221.395 275.089 221.04 275.117 220.423C275.141 219.802 275.161 218.915 275.125 217.85C275.117 217.318 275.077 216.741 275.033 216.128C274.996 215.515 274.912 214.874 274.843 214.208C274.67 212.882 274.417 211.47 274.091 210.067C273.749 208.668 273.343 207.28 272.892 205.998C272.655 205.361 272.437 204.74 272.192 204.163C271.954 203.583 271.725 203.038 271.488 202.542C271.037 201.546 270.603 200.715 270.301 200.159C269.995 199.598 269.818 199.28 269.818 199.28C269.693 199.05 269.391 198.953 269.146 199.066C268.901 199.179 268.804 199.453 268.929 199.683C268.929 199.683 268.933 199.691 268.933 199.695Z" fill="#4AA5A2"/>
<path d="M271.085 202.961C271.085 202.961 271.685 203.078 272.514 203.361C273.359 203.639 274.445 204.127 275.455 204.744C276.465 205.361 277.386 206.099 277.998 206.728C278.617 207.349 278.951 207.825 278.951 207.825C278.951 207.825 278.646 207.333 278.062 206.68C277.487 206.018 276.594 205.224 275.608 204.546C274.618 203.869 273.532 203.308 272.675 202.978C271.809 202.635 271.222 202.49 271.222 202.49L271.198 202.486C271.053 202.449 270.908 202.53 270.872 202.663C270.836 202.796 270.924 202.933 271.069 202.97C271.073 202.957 271.081 202.961 271.085 202.961Z" fill="#4AA5A2"/>
<path d="M273.608 209.845C273.608 209.845 274.067 210.019 274.706 210.329C275.354 210.644 276.191 211.124 276.972 211.676C277.748 212.232 278.473 212.862 278.927 213.402C279.394 213.934 279.607 214.354 279.607 214.354C279.607 214.354 279.426 213.926 279 213.354C278.581 212.777 277.901 212.091 277.153 211.474C276.4 210.861 275.588 210.313 274.944 209.946C274.296 209.571 273.849 209.369 273.849 209.369L273.833 209.361C273.692 209.297 273.519 209.349 273.455 209.482C273.391 209.611 273.451 209.769 273.596 209.833C273.596 209.841 273.604 209.845 273.608 209.845Z" fill="#4AA5A2"/>
<path d="M274.807 216.023C274.807 216.023 275.105 216.205 275.507 216.511C275.913 216.818 276.424 217.269 276.891 217.761C277.354 218.257 277.76 218.794 278.01 219.225C278.267 219.657 278.38 219.967 278.38 219.967C278.38 219.967 278.287 219.648 278.058 219.205C277.837 218.757 277.458 218.189 277.024 217.66C276.589 217.132 276.099 216.644 275.7 216.305C275.302 215.959 275.016 215.761 275.016 215.761L275.008 215.753C274.928 215.696 274.819 215.713 274.763 215.785C274.706 215.858 274.722 215.959 274.803 216.015C274.803 216.019 274.803 216.019 274.807 216.023Z" fill="#4AA5A2"/>
<path d="M270.981 202.691C270.981 202.691 270.514 203.042 269.899 203.691C269.283 204.325 268.583 205.256 268.023 206.26C267.468 207.264 267.054 208.329 266.853 209.152C266.643 209.974 266.599 210.535 266.599 210.535C266.599 210.535 266.676 209.974 266.933 209.172C267.183 208.365 267.653 207.337 268.257 206.385C268.864 205.433 269.605 204.562 270.232 203.982C270.844 203.405 271.335 203.074 271.335 203.074C271.452 202.994 271.476 202.841 271.387 202.728C271.299 202.615 271.13 202.59 271.009 202.671C271.005 202.675 271.001 202.675 270.997 202.679L270.981 202.691Z" fill="#4AA5A2"/>
<path d="M273.507 209.442C273.507 209.442 273.202 209.789 272.795 210.369C272.389 210.942 271.914 211.741 271.532 212.575C271.154 213.41 270.868 214.285 270.767 214.963C270.655 215.636 270.699 216.096 270.699 216.096C270.699 216.096 270.691 215.636 270.856 214.983C271.009 214.325 271.355 213.487 271.793 212.692C272.232 211.902 272.759 211.156 273.194 210.632C273.62 210.111 273.954 209.785 273.954 209.785C274.063 209.68 274.055 209.515 273.938 209.414C273.821 209.313 273.644 209.317 273.536 209.418C273.532 209.422 273.528 209.426 273.524 209.43L273.507 209.442Z" fill="#4AA5A2"/>
<path d="M274.763 215.805C274.763 215.805 274.574 216.076 274.34 216.519C274.103 216.959 273.841 217.564 273.64 218.189C273.443 218.814 273.318 219.459 273.29 219.947C273.254 220.435 273.294 220.761 273.294 220.761C273.294 220.761 273.278 220.435 273.347 219.955C273.407 219.475 273.576 218.846 273.809 218.245C274.047 217.644 274.344 217.068 274.602 216.656C274.855 216.249 275.061 215.987 275.061 215.987C275.117 215.914 275.101 215.813 275.02 215.757C274.94 215.705 274.831 215.717 274.775 215.789C274.771 215.793 274.771 215.793 274.771 215.797L274.763 215.805Z" fill="#4AA5A2"/>
<path d="M148.611 46.5C148.611 46.5 152.067 22.8488 133.49 15.2231C114.917 7.60146 102.609 14.6666 97.4629 21.5301C98.5815 20.038 104.174 20.3364 105.792 20.5018C109.856 20.9131 113.867 22.2035 116.905 24.8852C123.528 30.7245 122.421 39.3905 117.967 45.5725L148.611 46.5Z" fill="#FBF5EB"/>
<path d="M101.04 20.8204C101.668 18.1064 99.7042 15.332 96.6503 14.6223C93.6004 13.9125 90.6149 15.5377 89.9872 18.2556C89.3595 20.9696 91.3231 23.744 94.377 24.4538C97.4269 25.1635 100.412 23.5384 101.04 20.8204Z" fill="#FA6E5A"/>
<path d="M148.124 34.2771C148.51 36.2572 148.716 38.1444 148.804 39.8139C139.984 36.6322 130.058 36.1442 121.206 38.4267C121.597 36.6483 121.689 34.8377 121.432 33.0593C130.074 31.2245 139.473 31.6519 148.124 34.2771Z" fill="#FA6E5A"/>
<path d="M143.058 22.4779C144.459 24.3046 145.533 26.2725 146.35 28.2687C137.663 26.1395 128.437 26.5306 120.285 29.297C119.532 27.7364 118.45 26.2564 116.953 24.9256C125.065 21.9536 134.207 21.1108 143.058 22.4779Z" fill="#FA6E5A"/>
<path d="M106.331 20.5663C110.685 16.5821 116.181 13.7068 122.188 12.1704C125.648 12.5858 129.418 13.5496 133.49 15.2231C134.126 15.4852 134.73 15.7675 135.317 16.0659C127.222 15.4731 118.973 17.804 112.813 22.2923C110.781 21.3849 108.572 20.8365 106.331 20.5663Z" fill="#FA6E5A"/>
<path d="M122.281 167.519L119.649 165.111C119.613 163.889 119.541 162.672 119.44 161.462C119.408 161.095 119.086 160.829 118.724 160.853C118.358 160.885 118.088 161.208 118.116 161.571C118.213 162.736 118.281 163.91 118.317 165.083C118.313 165.087 118.305 165.091 118.301 165.099L115.795 168.063C115.557 168.345 115.593 168.765 115.871 169.003C115.996 169.108 116.149 169.16 116.302 169.16C116.491 169.16 116.676 169.079 116.809 168.926L118.35 167.103C118.35 167.491 118.354 167.882 118.346 168.269C118.346 168.285 118.342 168.305 118.342 168.321V168.527C118.338 168.894 118.631 169.192 118.997 169.2C119.001 169.2 119.005 169.2 119.005 169.2C119.368 169.2 119.661 168.91 119.669 168.547C119.677 168.015 119.681 167.482 119.677 166.95L121.379 168.507C121.508 168.624 121.669 168.68 121.826 168.68C122.007 168.68 122.184 168.608 122.317 168.462C122.57 168.188 122.55 167.765 122.281 167.519Z" fill="#6C97A3"/>
<path d="M102.384 165.135C102.36 163.28 102.295 161.365 102.179 159.978C102.147 159.611 101.825 159.345 101.463 159.369C101.096 159.401 100.827 159.724 100.855 160.087C100.964 161.401 101.028 163.256 101.052 165.051C101.036 165.067 101.024 165.079 101.008 165.091L98.5012 168.055C98.2638 168.337 98.3 168.757 98.5777 168.995C98.7024 169.1 98.8553 169.152 99.0082 169.152C99.1973 169.152 99.3824 169.071 99.5152 168.918L101.064 167.087C101.064 167.499 101.06 167.894 101.056 168.261C101.056 168.277 101.052 168.297 101.052 168.313V168.519C101.048 168.886 101.342 169.184 101.708 169.192C101.712 169.192 101.716 169.192 101.716 169.192C102.078 169.192 102.372 168.902 102.38 168.539C102.388 168.047 102.392 167.511 102.396 166.946L104.094 168.499C104.223 168.616 104.384 168.672 104.541 168.672C104.722 168.672 104.899 168.599 105.032 168.454C105.277 168.184 105.261 167.761 104.987 167.515L102.384 165.135Z" fill="#6C97A3"/>
<path d="M174.764 82.2411C174.507 71.3652 172.475 62.5176 168.548 55.1823C164.882 48.3349 159.298 42.9595 153.23 40.4431C143.875 36.5637 134.323 35.2773 125.608 36.721C115.815 38.3461 107.196 43.516 101.965 50.9037C95.4834 60.0618 94.4252 71.712 93.4073 82.9791L93.2544 84.6405C92.2203 95.8754 90.4218 108.57 82.0607 117.051C79.8035 119.341 75.1643 123.023 69.4709 121.958C68.3121 121.741 67.2458 121.366 66.2963 120.837C65.9502 120.644 65.5841 120.418 65.2461 120.184C66.2239 117.688 66.7952 115.067 66.936 112.385C67.0044 111.054 66.9763 109.348 66.1353 107.969C65.733 107.312 65.0007 106.659 64.1517 106.804C63.3671 106.937 62.8078 107.675 62.5342 108.941C62.0474 111.183 62.0554 113.55 62.5262 115.821L60.4339 110.639C60.1965 110.05 59.9269 109.381 59.3998 108.909C58.8808 108.445 57.9835 108.203 57.3518 108.675C56.8891 109.022 56.6799 109.639 56.7121 110.562C56.7845 112.824 57.6174 115.006 58.9572 116.813C57.7139 115.873 56.4304 114.982 55.1147 114.155C54.2376 113.603 53.0989 113.034 52.093 113.542C51.4613 113.865 51.0428 114.595 51.0308 115.401C51.0187 116.03 51.236 116.704 51.6745 117.41C52.8092 119.232 54.9216 120.543 57.4685 121.007C58.3135 121.16 59.1624 121.22 59.9993 121.22C61.0938 121.22 62.1681 121.116 63.186 120.982C62.5905 129.415 68.8392 138.557 74.4561 144.964C75.2126 145.827 76.0092 146.67 76.826 147.469C84.1731 154.667 93.528 159.393 103.877 161.135C106.814 161.631 109.767 161.873 112.717 161.873C119.991 161.873 127.222 160.377 133.997 157.437C152.365 149.461 167.055 132.06 171.421 113.099C173.871 102.449 174.998 92.0646 174.764 82.2411Z" fill="#A2E0C1"/>
<path d="M115.102 106.441C111.815 104.945 108.294 105.324 105.921 105.909C102.11 106.844 98.3119 108.945 94.6263 112.155C91.3592 115.006 88.5427 118.385 85.8187 121.652C85.199 122.394 84.4949 123.237 84.1811 124.253C83.8793 125.213 83.9759 126.515 84.8651 127.257C85.6899 127.947 86.8407 127.894 87.754 127.777C90.4337 127.423 93.0008 126.435 95.2259 124.93C93.1376 127.346 90.985 130.245 88.9812 133.359C88.5909 133.963 87.7862 135.468 88.7438 136.335C89.4962 137.016 90.8361 136.81 91.7615 136.331C95.6805 134.298 99.0885 132.165 102.694 129.907C102.955 129.745 103.217 129.58 103.478 129.415C103.366 129.528 103.257 129.64 103.144 129.753C100.63 132.302 98.0303 134.935 96.276 138.008C95.7851 138.867 95.2983 139.787 95.1695 140.807C95.0247 141.964 95.4431 143.077 96.2277 143.642C96.7387 144.009 97.3342 144.138 97.9337 144.138C98.5131 144.138 99.0965 144.021 99.6116 143.888C104.142 142.734 108.697 140.008 113.159 135.786C118.18 131.032 121.138 126.12 121.947 121.196C122.961 115.022 120.019 108.679 115.102 106.441Z" fill="#87C7A7"/>
<path d="M132.561 64.2798C132.086 64.3967 131.792 64.8766 131.909 65.3525C132.235 66.6913 131.712 68.2237 130.641 69.0867C129.571 69.9496 127.962 70.123 126.73 69.5141C125.499 68.9052 124.658 67.518 124.691 66.1429C124.703 65.6509 124.312 65.2476 123.825 65.2355C123.343 65.2275 122.932 65.6146 122.92 66.1025C122.876 68.1793 124.091 70.1876 125.95 71.107C126.694 71.474 127.511 71.6554 128.332 71.6554C129.559 71.6554 130.786 71.2522 131.756 70.4739C133.369 69.1754 134.126 66.9494 133.635 64.9331C133.518 64.4572 133.035 64.1628 132.561 64.2798Z" fill="#3F4553"/>
<path d="M162.601 64.9331C162.484 64.4572 162.005 64.1628 161.531 64.2798C161.056 64.3967 160.762 64.8766 160.879 65.3525C161.205 66.6913 160.682 68.2237 159.611 69.0867C158.541 69.9496 156.932 70.123 155.7 69.5141C154.469 68.9052 153.628 67.518 153.66 66.1429C153.673 65.6509 153.282 65.2476 152.795 65.2355C152.309 65.2275 151.902 65.6146 151.89 66.1025C151.846 68.1753 153.061 70.1876 154.92 71.107C155.664 71.474 156.481 71.6554 157.302 71.6554C158.529 71.6554 159.756 71.2522 160.726 70.4739C162.335 69.1754 163.092 66.9494 162.601 64.9331Z" fill="#3F4553"/>
<path d="M160.935 89.3062C160.698 88.7497 160.243 88.2698 159.921 87.9593C159.43 87.4835 158.935 87.0117 158.441 86.5399C156.827 85.0034 155.02 83.4509 152.759 81.6523C152.558 81.491 152.337 81.3015 152.107 81.0999C151.166 80.2772 149.991 79.257 148.792 79.257C148.357 79.257 147.987 79.4828 147.593 79.7247L147.464 79.8014C146.772 80.2207 146.148 80.7369 145.613 81.3418C144.74 82.3177 143.686 83.8824 143.569 85.072C143.565 85.1244 143.561 85.1768 143.561 85.2293C143.561 85.2696 143.561 85.3059 143.565 85.3462C143.642 86.4794 144.595 87.2335 145.44 87.8988C145.609 88.0319 145.77 88.161 145.919 88.286C146.925 89.1409 148.12 90.1369 149.383 91.0241C151.629 92.6009 154.196 93.8349 157.02 94.6898C157.153 94.7301 157.298 94.7543 157.447 94.7543C157.724 94.7543 157.998 94.6656 158.143 94.4115C158.268 94.1938 158.312 93.8228 157.809 93.2985L152.63 87.8827C153.834 88.3223 155.029 88.7376 156.256 89.0965C157.093 89.3425 157.869 89.5361 158.622 89.6893C158.674 89.7014 158.766 89.7256 158.883 89.7619C159.656 89.9837 160.444 90.1813 160.798 89.9635C160.903 89.899 160.971 89.8063 160.996 89.6893C161.024 89.5401 160.979 89.4111 160.935 89.3062Z" fill="#3F4553"/>
<path d="M131.249 77.4744C129.242 76.3534 125.435 77.0228 123.838 78.3415C123.464 78.6479 122.844 79.2932 122.876 80.144C122.896 80.7409 123.262 81.3417 123.874 81.8014C124.771 82.4668 125.994 82.8136 127.242 82.8136C128.143 82.8136 129.052 82.6322 129.857 82.2652C130.585 81.9305 131.169 81.4748 131.583 80.9022C132.074 80.2247 132.283 79.3657 132.13 78.6641C132.022 78.1439 131.716 77.7325 131.249 77.4744Z" fill="#86D1AB"/>
<path d="M166.025 77.8414C165.913 77.3253 165.607 76.9139 165.14 76.6518C163.132 75.5308 159.326 76.2002 157.729 77.5188C157.355 77.8253 156.735 78.4705 156.767 79.3214C156.787 79.9182 157.153 80.5191 157.765 80.9788C158.662 81.6442 159.885 81.991 161.133 81.991C162.034 81.991 162.943 81.8095 163.748 81.4426C164.476 81.1079 165.06 80.6522 165.474 80.0795C165.969 79.4021 166.178 78.5431 166.025 77.8414Z" fill="#86D1AB"/>
<path d="M137.18 132.213C136.669 132.645 136.025 133.181 135.385 133.403C134.814 133.6 134.705 133.407 134.532 132.907C134.392 132.512 134.355 132.112 134.355 131.693C134.359 130.834 133.028 130.834 133.028 131.693C133.024 132.778 133.345 134.58 134.617 134.863C135.832 135.133 137.268 133.879 138.121 133.157C138.777 132.604 137.832 131.665 137.18 132.213Z" fill="#A6D4E0"/>
<path d="M145.666 132.733C145.155 133.064 144.631 133.371 144.084 133.637C143.69 133.83 143.111 134.165 142.604 134.254C142.374 133.79 142.342 132.883 142.27 132.52C142.105 131.681 140.825 132.036 140.986 132.875C141.175 133.838 141.179 135.742 142.6 135.617C143.835 135.508 145.328 134.54 146.337 133.887C147.054 133.419 146.386 132.266 145.666 132.733Z" fill="#A6D4E0"/>
<path d="M153.789 134.064C153.524 134.237 153.262 134.411 152.997 134.584C152.755 134.742 152.421 135.056 152.144 135.121C152.067 135.137 152.043 135.157 152.039 135.169C152.031 135.161 152.019 135.153 151.995 135.137C151.906 135.08 151.838 134.83 151.802 134.742C151.669 134.403 151.605 134.056 151.584 133.693C151.536 132.842 150.208 132.834 150.257 133.693C150.309 134.604 150.566 136.028 151.524 136.423C152.538 136.838 153.685 135.73 154.465 135.217C155.174 134.746 154.51 133.592 153.789 134.064Z" fill="#A6D4E0"/>
<path d="M137.47 140.44C136.866 140.847 136.263 141.254 135.659 141.658C135.361 141.855 135.124 142.137 134.738 141.831C134.456 141.609 134.432 140.996 134.424 140.678C134.412 139.823 133.084 139.819 133.096 140.678C133.108 141.666 133.563 143.21 134.73 143.379C135.233 143.452 135.659 143.234 136.073 142.98C136.778 142.545 137.454 142.053 138.146 141.589C138.85 141.117 138.186 139.964 137.47 140.44Z" fill="#A6D4E0"/>
<path d="M146.466 141.742C145.778 142.295 145.006 142.92 144.12 143.105C142.905 143.359 142.724 142.585 142.768 141.581C142.805 140.722 141.477 140.726 141.441 141.581C141.384 142.908 141.734 144.246 143.231 144.46C144.841 144.686 146.225 143.634 147.408 142.69C148.076 142.15 147.13 141.21 146.466 141.742Z" fill="#A6D4E0"/>
<path d="M138.467 148.485C137.892 148.936 137.055 149.271 136.315 149.146C135.591 149.025 135.707 148.21 135.796 147.642C135.924 146.803 134.645 146.44 134.512 147.287C134.339 148.408 134.327 149.807 135.558 150.319C136.842 150.856 138.391 150.223 139.405 149.424C140.081 148.9 139.135 147.96 138.467 148.485Z" fill="#A6D4E0"/>
<path d="M138.009 113.502C137.417 114.308 136.621 115.341 135.51 115.321C134.243 115.3 134.134 113.925 134.086 112.949C134.045 112.094 132.714 112.09 132.758 112.949C132.834 114.502 133.217 116.276 134.995 116.607C136.838 116.946 138.17 115.514 139.155 114.171C139.662 113.486 138.508 112.82 138.009 113.502Z" fill="#A6D4E0"/>
<path d="M147.501 113.691C146.845 114.482 146.084 115.151 145.159 115.607C144.692 115.837 144.575 115.901 144.056 115.708C143.525 115.51 143.533 115.429 143.384 114.933C143.236 114.437 143.151 113.929 143.079 113.417C142.958 112.57 141.678 112.933 141.795 113.772C141.992 115.167 142.366 117.293 144.165 117.276C145.795 117.264 147.46 115.813 148.438 114.631C148.981 113.978 148.048 113.03 147.501 113.691Z" fill="#A6D4E0"/>
<path d="M156.147 115.256C155.568 115.772 154.61 116.627 153.805 116.76C152.808 116.926 152.562 115.05 152.494 114.373C152.405 113.53 151.073 113.518 151.166 114.373C151.295 115.611 151.669 117.603 153.049 118.071C154.421 118.535 156.151 117.03 157.089 116.2C157.724 115.627 156.783 114.687 156.147 115.256Z" fill="#A6D4E0"/>
<path d="M164.77 115.982C164.347 116.284 163.925 116.591 163.502 116.893C163.213 117.103 162.649 117.68 162.287 117.708C161.177 117.805 161.008 115.7 161.092 115.026C161.201 114.179 159.869 114.187 159.764 115.026C159.591 116.393 160.098 118.16 161.402 118.853C162.83 119.611 164.392 117.889 165.442 117.131C166.13 116.639 165.466 115.482 164.77 115.982Z" fill="#A6D4E0"/>
<path d="M137.643 123.353C137.119 123.862 135.651 125.055 135.011 124.228C134.532 123.612 134.456 122.494 134.275 121.761C134.074 120.926 132.79 121.281 132.991 122.115C133.277 123.293 133.434 125.075 134.681 125.676C136.013 126.313 137.655 125.192 138.58 124.301C139.2 123.7 138.258 122.761 137.643 123.353Z" fill="#A6D4E0"/>
<path d="M146.684 124.196C146.156 124.692 145.183 125.987 144.406 125.922C143.336 125.829 143.127 124.398 142.966 123.563C142.805 122.72 141.525 123.079 141.682 123.918C141.944 125.289 142.447 126.842 143.968 127.221C145.489 127.604 146.643 126.055 147.617 125.14C148.249 124.551 147.307 123.612 146.684 124.196Z" fill="#A6D4E0"/>
<path d="M155.129 125.112C154.803 125.434 154.473 125.749 154.131 126.047C153.934 126.221 153.307 126.926 153.053 126.93C152.365 126.943 152.14 125.511 152.16 125.031C152.192 124.172 150.864 124.176 150.832 125.031C150.788 126.197 151.355 127.797 152.566 128.225C153.121 128.419 153.576 128.205 154.019 127.866C154.743 127.31 155.423 126.701 156.075 126.055C156.678 125.451 155.737 124.511 155.129 125.112Z" fill="#A6D4E0"/>
<path d="M163.325 125.104C162.927 125.612 162.5 126.16 161.905 126.442C161.301 126.729 160.122 126.624 160.42 125.676C160.677 124.858 159.398 124.507 159.136 125.321C158.75 126.547 159.635 127.757 160.875 127.922C162.323 128.116 163.438 127.096 164.267 126.043C164.79 125.382 163.856 124.43 163.325 125.104Z" fill="#A6D4E0"/>
<path d="M100.698 138.629C100.533 138.351 100.074 138.169 99.7887 138.391C99.1812 138.863 98.5696 139.331 97.962 139.803C97.6763 140.02 97.5275 140.375 97.7246 140.714C97.8896 140.992 98.3483 141.174 98.634 140.952C99.2415 140.48 99.8531 140.012 100.461 139.541C100.742 139.323 100.895 138.968 100.698 138.629Z" fill="#598E9C"/>
<path d="M112.049 133.572C111.884 133.286 111.429 133.121 111.139 133.334C110.403 133.879 109.663 134.419 108.926 134.964C108.637 135.177 108.496 135.54 108.689 135.875C108.854 136.161 109.309 136.327 109.598 136.113C110.335 135.568 111.075 135.028 111.811 134.484C112.101 134.27 112.242 133.907 112.049 133.572Z" fill="#598E9C"/>
<path d="M104.967 137.895C104.496 138.355 103.945 138.673 103.317 138.855C102.497 139.093 102.847 140.375 103.671 140.141C104.52 139.895 105.277 139.456 105.909 138.839C106.52 138.238 105.579 137.294 104.967 137.895Z" fill="#598E9C"/>
<path d="M90.5867 119.922C89.9389 120.446 89.1985 120.858 88.4139 121.144C87.6132 121.43 87.9593 122.721 88.768 122.43C89.782 122.063 90.6913 121.547 91.5282 120.866C92.1921 120.325 91.2466 119.386 90.5867 119.922Z" fill="#598E9C"/>
<path d="M96.6582 115.111C95.8253 115.567 94.9965 116.018 94.1636 116.474C93.4112 116.885 94.0831 118.035 94.8355 117.623C95.6684 117.168 96.4973 116.716 97.3302 116.26C98.0786 115.849 97.4106 114.7 96.6582 115.111Z" fill="#598E9C"/>
<path d="M99.8448 119.486C99.7563 119.168 99.362 118.889 99.028 119.022C98.4486 119.248 97.8692 119.474 97.2858 119.696C96.9519 119.825 96.7185 120.144 96.8231 120.515C96.9116 120.833 97.3059 121.111 97.6399 120.978C98.2193 120.752 98.7987 120.527 99.3821 120.305C99.7161 120.176 99.9454 119.857 99.8448 119.486Z" fill="#598E9C"/>
<path d="M103.631 109.84C102.867 110.3 102.07 110.691 101.233 111.002C100.436 111.296 100.782 112.583 101.587 112.288C102.533 111.937 103.438 111.514 104.303 110.994C105.035 110.55 104.371 109.397 103.631 109.84Z" fill="#598E9C"/>
<path d="M107.425 113.163C106.351 113.732 105.237 114.167 104.07 114.494C103.245 114.724 103.595 116.006 104.424 115.78C105.699 115.425 106.927 114.938 108.097 114.317C108.854 113.913 108.186 112.764 107.425 113.163Z" fill="#598E9C"/>
<path d="M111.143 107.634C110.266 107.921 109.429 108.304 108.649 108.792C107.924 109.243 108.588 110.397 109.321 109.941C110.009 109.514 110.729 109.171 111.501 108.917C112.306 108.651 111.96 107.364 111.143 107.634Z" fill="#598E9C"/>
<path d="M116.164 110.873C115.48 111.042 114.796 111.211 114.112 111.377C113.284 111.582 113.634 112.865 114.467 112.663C115.151 112.494 115.835 112.324 116.519 112.159C117.347 111.953 116.993 110.667 116.164 110.873Z" fill="#598E9C"/>
<path d="M112.93 117.591C112.097 117.801 111.264 118.014 110.431 118.224C109.602 118.434 109.953 119.72 110.785 119.511C111.618 119.301 112.451 119.087 113.284 118.877C114.109 118.664 113.759 117.381 112.93 117.591Z" fill="#598E9C"/>
<path d="M105.808 120.724C105.003 121.228 104.183 121.7 103.342 122.14C102.581 122.535 103.253 123.684 104.014 123.289C104.855 122.85 105.675 122.378 106.48 121.874C107.2 121.422 106.536 120.269 105.808 120.724Z" fill="#598E9C"/>
<path d="M98.7669 126.055C98.2317 126.519 97.6201 126.902 96.9643 127.173C96.6303 127.31 96.397 127.616 96.5016 127.991C96.5861 128.306 96.9844 128.592 97.3184 128.455C98.1995 128.096 98.9841 127.62 99.7044 126.999C100.352 126.439 99.4106 125.499 98.7669 126.055Z" fill="#598E9C"/>
<path d="M93.7252 131.427C93.1297 131.818 92.5383 132.209 91.9428 132.6C91.2306 133.068 91.8945 134.221 92.6147 133.75C93.2102 133.359 93.8017 132.967 94.3972 132.576C95.1093 132.108 94.4414 130.955 93.7252 131.427Z" fill="#598E9C"/>
<path d="M108.202 126.612C107.663 126.765 107.12 126.914 106.58 127.068C105.76 127.297 106.106 128.584 106.935 128.354C107.474 128.201 108.017 128.052 108.556 127.898C109.377 127.664 109.027 126.378 108.202 126.612Z" fill="#598E9C"/>
<path d="M114.068 122.043C113.348 122.523 112.592 122.87 111.755 123.096C110.93 123.321 111.28 124.604 112.109 124.382C113.042 124.128 113.932 123.733 114.74 123.196C115.449 122.725 114.785 121.567 114.068 122.043Z" fill="#598E9C"/>
<path d="M119.862 115.792C119.029 116.01 118.201 116.232 117.368 116.45C116.543 116.668 116.893 117.954 117.722 117.736L120.216 117.079C121.045 116.857 120.691 115.571 119.862 115.792Z" fill="#598E9C"/>
<path d="M118.225 124.148L115.903 125.834C115.219 126.334 115.879 127.487 116.575 126.983L118.897 125.297C119.581 124.801 118.921 123.644 118.225 124.148Z" fill="#598E9C"/>
<path d="M112.346 129.374C111.646 129.81 110.918 130.12 110.121 130.322C109.292 130.536 109.642 131.818 110.475 131.608C111.373 131.378 112.23 131.011 113.014 130.524C113.743 130.076 113.079 128.923 112.346 129.374Z" fill="#598E9C"/>
<path d="M104.669 132.044C103.905 132.508 103.112 132.919 102.287 133.254C101.953 133.391 101.724 133.697 101.825 134.072C101.909 134.391 102.312 134.673 102.641 134.536C103.575 134.157 104.476 133.717 105.341 133.193C106.074 132.754 105.406 131.6 104.669 132.044Z" fill="#598E9C"/>
<path d="M172.612 107.388C172.258 109.284 171.859 111.191 171.421 113.107C169.015 123.559 163.466 133.536 155.894 141.722C155.849 142.347 155.813 142.972 155.785 143.597C155.745 144.46 155.737 145.299 156.054 146.069C156.352 146.787 157.072 147.533 157.986 147.533C158.022 147.533 158.058 147.533 158.094 147.529C159.1 147.465 159.772 146.553 160.191 145.876C161.008 144.549 161.679 143.065 162.142 141.597C162.142 142.238 162.166 142.883 162.219 143.521C162.303 144.577 162.653 145.214 163.257 145.416C163.719 145.569 164.279 145.408 164.681 144.997C165.031 144.646 165.22 144.182 165.369 143.775C165.88 142.4 166.226 140.924 166.391 139.472C166.415 139.617 166.439 139.762 166.472 139.907C166.673 140.787 167.248 141.621 167.936 142.033C168.411 142.319 168.922 142.396 169.413 142.258C170.141 142.057 170.717 141.42 171.175 140.315C171.992 138.335 172.266 136.238 172.499 134.08C173.259 127.023 173.513 119.853 173.255 112.76C173.195 110.973 173.074 109.122 172.612 107.388Z" fill="#87C7A7"/>
<path d="M163.241 137.742V139.295C163.241 140.153 164.568 140.153 164.568 139.295V137.742C164.568 136.883 163.241 136.883 163.241 137.742Z" fill="#598E9C"/>
<path d="M160.138 138.686V140.016C160.138 140.875 161.466 140.875 161.466 140.016V138.686C161.47 137.827 160.138 137.827 160.138 138.686Z" fill="#598E9C"/>
<path d="M157.592 142.347V143.678C157.592 144.537 158.919 144.537 158.919 143.678V142.347C158.919 141.488 157.592 141.488 157.592 142.347Z" fill="#598E9C"/>
<path d="M171.437 114.595V116.704C171.437 117.563 172.764 117.563 172.764 116.704V114.595C172.768 113.736 171.437 113.736 171.437 114.595Z" fill="#598E9C"/>
<path d="M171.216 120.144V122.696C171.216 123.555 172.543 123.555 172.543 122.696V120.144C172.543 119.289 171.216 119.285 171.216 120.144Z" fill="#598E9C"/>
<path d="M170.785 126.253C170.737 126.955 170.688 127.656 170.644 128.362C170.588 129.217 171.916 129.213 171.972 128.362C172.02 127.66 172.069 126.959 172.113 126.253C172.169 125.394 170.841 125.398 170.785 126.253Z" fill="#598E9C"/>
<path d="M170.354 131.58C169.972 131.58 169.719 131.887 169.691 132.245C169.65 132.762 169.61 133.282 169.57 133.798C169.542 134.157 169.896 134.463 170.234 134.463C170.616 134.463 170.869 134.157 170.898 133.798C170.938 133.282 170.978 132.762 171.018 132.245C171.046 131.887 170.692 131.58 170.354 131.58Z" fill="#598E9C"/>
<path d="M168.749 123.946C168.427 123.858 167.993 124.055 167.932 124.41C167.799 125.168 167.743 125.926 167.783 126.693C167.828 127.544 169.159 127.552 169.111 126.693C169.075 126.047 169.099 125.402 169.212 124.765C169.276 124.41 169.119 124.047 168.749 123.946Z" fill="#598E9C"/>
<path d="M166.673 132.246V133.576C166.673 134.435 168.001 134.435 168.001 133.576V132.246C168.005 131.387 166.673 131.387 166.673 132.246Z" fill="#598E9C"/>
<path d="M168.226 137.685V139.351C168.226 140.21 169.554 140.21 169.554 139.351V137.685C169.554 136.827 168.226 136.827 168.226 137.685Z" fill="#598E9C"/>
<path d="M164.898 132.58C164.87 132.221 164.613 131.915 164.234 131.915C163.896 131.915 163.542 132.221 163.571 132.58C163.607 133.044 163.587 133.5 163.49 133.959C163.418 134.31 163.595 134.681 163.953 134.778C164.283 134.871 164.697 134.665 164.77 134.314C164.894 133.738 164.943 133.161 164.898 132.58Z" fill="#598E9C"/>
<path d="M176.704 106.481C177.042 108.284 177.416 110.095 177.838 111.917C180.124 121.85 185.395 131.326 192.589 139.105C192.629 139.698 192.665 140.295 192.693 140.884C192.73 141.706 192.738 142.501 192.44 143.231C192.158 143.912 191.47 144.618 190.605 144.618C190.569 144.618 190.537 144.618 190.501 144.614C189.543 144.553 188.907 143.686 188.509 143.041C187.732 141.779 187.097 140.371 186.654 138.976C186.654 139.585 186.63 140.198 186.582 140.803C186.501 141.807 186.167 142.412 185.596 142.605C185.157 142.751 184.626 142.597 184.244 142.21C183.914 141.876 183.733 141.436 183.588 141.049C183.101 139.742 182.775 138.339 182.614 136.96C182.594 137.101 182.566 137.238 182.538 137.375C182.349 138.21 181.802 139.004 181.146 139.396C180.691 139.666 180.208 139.742 179.741 139.609C179.049 139.416 178.502 138.815 178.068 137.762C177.291 135.883 177.03 133.891 176.812 131.842C176.092 125.14 175.851 118.325 176.092 111.591C176.148 109.889 176.261 108.131 176.704 106.481Z" fill="#D9A4D1"/>
<path d="M185.604 135.318V136.794C185.604 137.609 184.341 137.609 184.341 136.794V135.318C184.345 134.504 185.604 134.5 185.604 135.318Z" fill="#B98BB2"/>
<path d="M188.553 136.214V137.48C188.553 138.294 187.29 138.294 187.29 137.48V136.214C187.29 135.399 188.553 135.399 188.553 136.214Z" fill="#B98BB2"/>
<path d="M190.972 139.694V140.96C190.972 141.775 189.708 141.775 189.708 140.96V139.694C189.708 138.879 190.972 138.879 190.972 139.694Z" fill="#B98BB2"/>
<path d="M177.818 113.329V115.333C177.818 116.147 176.555 116.147 176.555 115.333V113.329C176.555 112.514 177.818 112.514 177.818 113.329Z" fill="#B98BB2"/>
<path d="M178.028 118.599V121.023C178.028 121.837 176.764 121.837 176.764 121.023V118.599C176.768 117.789 178.028 117.785 178.028 118.599Z" fill="#B98BB2"/>
<path d="M178.442 124.402C178.486 125.068 178.531 125.737 178.579 126.402C178.635 127.217 177.372 127.213 177.315 126.402C177.271 125.737 177.227 125.068 177.179 124.402C177.122 123.588 178.386 123.592 178.442 124.402Z" fill="#B98BB2"/>
<path d="M178.848 129.467C179.211 129.467 179.452 129.758 179.48 130.1C179.516 130.592 179.557 131.084 179.593 131.576C179.621 131.919 179.283 132.209 178.961 132.209C178.599 132.209 178.358 131.919 178.329 131.576C178.293 131.084 178.253 130.592 178.217 130.1C178.193 129.758 178.526 129.467 178.848 129.467Z" fill="#B98BB2"/>
<path d="M180.369 122.212C180.675 122.128 181.086 122.317 181.146 122.656C181.271 123.378 181.327 124.096 181.287 124.826C181.242 125.636 179.979 125.64 180.023 124.826C180.056 124.213 180.031 123.6 179.927 122.995C179.87 122.656 180.019 122.309 180.369 122.212Z" fill="#B98BB2"/>
<path d="M182.345 130.096V131.362C182.345 132.177 181.081 132.177 181.081 131.362V130.096C181.081 129.282 182.345 129.282 182.345 130.096Z" fill="#B98BB2"/>
<path d="M180.868 135.266V136.847C180.868 137.661 179.605 137.661 179.605 136.847V135.266C179.609 134.451 180.868 134.447 180.868 135.266Z" fill="#B98BB2"/>
<path d="M184.031 130.415C184.055 130.072 184.304 129.782 184.663 129.782C184.984 129.782 185.318 130.072 185.294 130.415C185.262 130.858 185.278 131.29 185.371 131.725C185.439 132.06 185.274 132.411 184.928 132.504C184.614 132.588 184.224 132.399 184.152 132.06C184.035 131.516 183.987 130.967 184.031 130.415Z" fill="#B98BB2"/>
<path d="M212.84 164.817C212.775 164.579 212.586 164.41 212.365 164.354L212.111 156.538C212.099 156.171 211.785 155.873 211.427 155.893C211.061 155.905 210.771 156.212 210.783 156.579L211.025 164.087L207.339 166.063C207.017 166.237 206.893 166.64 207.066 166.967C207.186 167.193 207.416 167.318 207.653 167.318C207.758 167.318 207.866 167.293 207.967 167.241L210.184 166.051L208.84 168.435C208.659 168.753 208.772 169.16 209.09 169.342C209.194 169.402 209.307 169.427 209.415 169.427C209.649 169.427 209.87 169.306 209.995 169.088L211.773 165.938L212.514 168.624C212.594 168.919 212.864 169.112 213.153 169.112C213.214 169.112 213.27 169.104 213.33 169.088C213.684 168.991 213.89 168.624 213.793 168.269L212.84 164.817Z" fill="#D9A4D1"/>
<path d="M230.628 168.269L229.674 164.813C229.61 164.575 229.421 164.406 229.2 164.349L228.946 156.534C228.934 156.167 228.616 155.869 228.262 155.889C227.896 155.901 227.606 156.207 227.618 156.574L227.86 164.083L224.174 166.059C223.852 166.233 223.727 166.636 223.9 166.962C224.021 167.188 224.25 167.313 224.488 167.313C224.593 167.313 224.701 167.289 224.802 167.237L227.019 166.047L225.675 168.43C225.494 168.749 225.606 169.156 225.924 169.338C226.029 169.398 226.142 169.422 226.25 169.422C226.484 169.422 226.705 169.301 226.83 169.084L228.608 165.934L229.348 168.62C229.429 168.914 229.698 169.108 229.988 169.108C230.049 169.108 230.105 169.1 230.165 169.084C230.515 168.991 230.724 168.624 230.628 168.269Z" fill="#D9A4D1"/>
<path d="M203.835 49.4844C203.835 49.4844 200.724 28.1962 217.442 21.3367C234.16 14.4772 245.237 20.8367 249.865 27.0106C248.859 25.6677 243.825 25.9379 242.369 26.0831C238.711 26.4541 235.102 27.6155 232.366 30.027C226.407 35.2815 227.401 43.0806 231.408 48.6456L203.835 49.4844Z" fill="#FBF5EB"/>
<path d="M246.65 26.3774C246.086 23.9337 247.853 21.4375 250.601 20.8003C253.345 20.1632 256.033 21.627 256.596 24.0708C257.159 26.5145 255.393 29.0107 252.645 29.6479C249.897 30.281 247.213 28.8212 246.65 26.3774Z" fill="#FA6E5A"/>
<path d="M204.273 38.4875C203.923 40.2658 203.742 41.9676 203.661 43.4718C211.6 40.6086 220.532 40.1691 228.499 42.2257C228.149 40.6247 228.064 38.9956 228.298 37.3946C220.516 35.7372 212.055 36.1243 204.273 38.4875Z" fill="#FA6E5A"/>
<path d="M208.832 27.8696C207.573 29.5149 206.603 31.2852 205.871 33.0797C213.688 31.1642 221.993 31.515 229.328 34.0032C230.004 32.5998 230.982 31.265 232.33 30.0673C225.027 27.3977 216.795 26.6356 208.832 27.8696Z" fill="#FA6E5A"/>
<path d="M241.886 26.1476C237.967 22.5626 233.018 19.9736 227.614 18.5905C224.5 18.9655 221.108 19.8325 217.442 21.3367C216.871 21.5706 216.324 21.8286 215.801 22.0948C223.087 21.5625 230.511 23.6594 236.055 27.7001C237.878 26.8815 239.87 26.3895 241.886 26.1476Z" fill="#FA6E5A"/>
<path d="M281.41 121.701C281.144 121.2 280.504 120.922 279.853 121.019C279.297 121.104 278.819 121.41 278.384 121.729C277.149 122.64 276.066 123.753 275.016 124.834L270.739 129.233C272.747 126.838 274.541 124.265 276.091 121.547C276.996 119.954 277.833 118.228 277.805 116.402C277.793 115.704 277.648 115.152 277.366 114.712C276.996 114.143 276.38 113.809 275.785 113.865C275.02 113.934 274.485 114.575 274.107 115.127C272.208 117.886 271.29 121.164 270.401 124.338C269.934 125.995 269.456 127.693 268.84 129.322C269.436 127.463 269.967 125.568 270.305 123.636C270.948 119.971 270.808 116.672 269.878 113.825C269.765 113.478 269.601 113.099 269.238 112.938C268.671 112.684 268.1 113.131 267.786 113.595C266.671 115.216 266.744 117.285 266.925 119.442L267.874 130.681C264.466 131.351 261.171 128.62 259.759 127.241C255.498 123.076 255.24 116.636 255.011 110.958L254.991 110.486C254.645 102.05 254.267 94.9723 253.526 87.8507C251.945 72.5792 248.601 55.7955 235.802 47.073C231.054 43.8388 224.983 42.0806 218.247 41.9919C209.082 41.8588 200.576 44.8953 193.647 50.7467C187.101 56.2713 182.26 63.9857 179.645 73.0591C176.869 82.7011 176.551 92.9157 176.587 100.739C176.607 105.348 176.764 109.131 177.078 112.643C177.508 117.446 178.237 121.701 179.307 125.648C183.681 141.775 195.977 154.607 211.395 159.139C216.03 160.502 220.666 161.18 225.232 161.18C232.527 161.18 239.641 159.45 246.264 156.014C257.485 150.199 265.448 141.952 269.415 132.08C274.344 131.23 278.827 128.036 281.164 123.584C281.434 123.08 281.748 122.334 281.41 121.701Z" fill="#ECC6E8"/>
<path d="M253.615 122.503C251.937 118.192 249.905 114.861 247.406 112.308C244.356 109.199 240.602 107.328 236.828 107.05C232.591 106.739 228.435 108.594 226.23 111.776C223.381 115.889 224.134 121.176 224.838 123.959C226.399 130.149 230.27 135.823 235.46 139.521C236.458 140.23 237.665 140.996 239.061 141.283C239.52 141.376 239.975 141.408 240.413 141.384C241.403 141.327 242.3 140.968 242.948 140.355C244.638 138.754 242.691 134.778 241.419 132.669C241.697 132.891 243.556 134.298 243.853 134.496C244.71 135.06 245.491 135.355 246.239 135.399C247.217 135.46 248.118 135.06 248.593 134.359C249.418 133.145 248.794 131.548 248.163 130.29L245.986 126.632C246.441 127.128 247.809 128.604 248.392 128.947C249.897 129.83 252.202 129.967 253.51 128.483C254.645 127.197 254.681 125.241 253.615 122.503Z" fill="#D9A4D1"/>
<path d="M227.803 84.7535C227.719 83.826 227.119 82.9429 226.198 82.3904C225.486 81.967 224.588 81.7291 223.462 81.6605C222.098 81.5799 220.742 81.7452 219.438 82.1444C218.911 82.3057 218.239 82.5517 217.688 83.0195C217.116 83.5034 216.783 84.1769 216.791 84.818C216.803 85.7738 217.515 86.5077 218.175 86.8747C218.855 87.2497 219.583 87.5562 220.339 87.782C221.341 88.0804 222.391 88.2296 223.421 88.2296C223.727 88.2296 224.033 88.2175 224.335 88.1893C226.137 88.028 227.968 86.6085 227.803 84.7535Z" fill="#D9A4D1"/>
<path d="M192.693 78.4748C192.062 78.0998 191.269 77.886 190.267 77.8296C189.06 77.757 187.861 77.9022 186.706 78.257C186.24 78.4022 185.64 78.62 185.153 79.0313C184.642 79.4628 184.344 80.0637 184.352 80.6363C184.365 81.4912 184.996 82.1485 185.588 82.4752C186.191 82.8099 186.835 83.08 187.503 83.2776C188.388 83.5398 189.318 83.6769 190.231 83.6769C190.501 83.6769 190.774 83.6648 191.04 83.6406C192.649 83.4954 194.275 82.2332 194.126 80.5798C194.049 79.7531 193.514 78.9668 192.693 78.4748Z" fill="#D9A4D1"/>
<path d="M202.519 68.123C202.092 67.994 201.646 68.2319 201.513 68.6553C200.914 70.6071 199.252 72.196 197.28 72.7081C196.512 72.9057 195.808 72.9097 195.244 72.7162C194.46 72.446 193.772 71.7121 193.446 70.8007C193.148 69.9659 193.116 68.9417 193.349 67.8407C193.442 67.4052 193.164 66.9778 192.73 66.885C192.295 66.7923 191.868 67.0705 191.776 67.506C191.478 68.9013 191.531 70.2281 191.929 71.3451C192.42 72.7323 193.466 73.8171 194.725 74.2445C195.176 74.3978 195.655 74.4744 196.166 74.4744C196.649 74.4744 197.155 74.4058 197.683 74.2687C200.185 73.6235 202.29 71.6032 203.05 69.1312C203.183 68.7078 202.941 68.2561 202.519 68.123Z" fill="#3F4553"/>
<path d="M228.025 70.6595C227.992 70.216 227.61 69.8812 227.163 69.9135C226.721 69.9458 226.387 70.3329 226.419 70.7765C226.5 71.8774 225.9 73.0751 224.89 73.8292C223.961 74.5228 222.673 74.8898 221.273 74.8656C220.516 74.8535 219.969 74.7123 219.603 74.4421C219.144 74.1034 218.847 73.4501 218.806 72.692C218.766 71.9056 218.971 71.0709 219.169 70.2644C219.273 69.8329 219.012 69.3933 218.581 69.2885C218.151 69.1836 217.712 69.4457 217.607 69.8772C217.39 70.7563 217.145 71.7484 217.201 72.7767C217.269 74.0308 217.797 75.1116 218.65 75.7406C219.293 76.2165 220.142 76.4544 221.245 76.4746C221.297 76.4746 221.353 76.4746 221.406 76.4746C223.104 76.4746 224.677 75.9947 225.852 75.1196C227.308 74.0348 228.141 72.321 228.025 70.6595Z" fill="#3F4553"/>
<path d="M206.744 88.9233C206.675 88.7782 206.615 88.6411 206.559 88.512C206.128 87.5119 205.589 86.5602 204.949 85.6932C203.943 84.3221 202.869 83.6124 201.763 83.5882C201.046 83.5721 200.362 83.8503 199.731 84.1528C198.685 84.6528 197.715 85.3827 196.781 86.0844C196.323 86.4272 195.848 86.7861 195.377 87.1006C193.144 88.6088 190.999 90.2944 189.008 92.1131C188.553 92.5285 188.42 92.968 188.65 93.2907C188.907 93.6496 189.414 93.5649 189.607 93.5326L195.224 92.5809C194.11 93.456 193.1 94.3996 192.042 95.3916C191.716 95.6941 191.394 96.0006 191.064 96.303C190.786 96.5611 190.533 96.8514 190.557 97.2305C190.593 97.7507 191.128 98.0249 191.579 98.1016C191.772 98.1338 191.965 98.1499 192.158 98.1499C193.192 98.1499 194.198 97.7225 195.031 97.3676L203.621 93.702C203.811 93.6213 204.004 93.5407 204.197 93.46C204.889 93.1697 205.605 92.8713 206.273 92.5083C206.712 92.2704 207.001 91.9922 207.166 91.6574C207.182 91.6252 207.198 91.5889 207.211 91.5566C207.561 90.6856 207.11 89.7097 206.744 88.9233Z" fill="#3F4553"/>
<path d="M215.648 136.895C215.628 137.645 215.523 139.617 214.284 139.21C213.624 138.992 213.149 138.214 212.526 137.879C211.773 137.476 211.101 138.625 211.854 139.028C212.964 139.625 213.66 140.968 215.125 140.504C216.674 140.016 216.936 138.295 216.972 136.895C217 136.036 215.672 136.036 215.648 136.895Z" fill="#D9A4D1"/>
<path d="M209.339 149.836C209.234 150.296 209.134 150.755 209.029 151.219C208.981 151.445 208.973 151.784 208.856 151.985C208.8 152.086 208.808 152.126 208.82 152.143C208.804 152.139 208.772 152.135 208.703 152.135C208.397 152.143 207.826 151.719 207.565 151.586C207.15 151.376 206.744 151.155 206.337 150.929C205.589 150.509 204.921 151.659 205.665 152.078C206.313 152.441 206.969 152.788 207.641 153.102C208.116 153.328 208.671 153.667 209.222 153.506C209.693 153.368 209.951 152.953 210.091 152.51C210.329 151.763 210.445 150.953 210.614 150.187C210.808 149.356 209.528 148.997 209.339 149.836Z" fill="#D9A4D1"/>
<path d="M217.632 145.46C217.471 144.618 216.191 144.976 216.348 145.815C216.457 146.396 216.735 147.735 215.89 147.953C215.592 148.029 215.258 147.779 215.016 147.642C214.687 147.452 214.361 147.279 213.998 147.158C213.186 146.888 212.836 148.17 213.644 148.445C214.216 148.634 214.674 149.066 215.262 149.223C215.825 149.372 216.393 149.275 216.863 148.928C217.982 148.098 217.861 146.67 217.632 145.46Z" fill="#D9A4D1"/>
<path d="M219.382 153.163C219.31 152.316 217.982 152.308 218.054 153.163C218.087 153.53 218.099 153.893 218.078 154.26C218.058 154.602 217.954 154.937 217.918 155.272C217.813 155.203 217.696 155.131 217.668 155.107C217.354 154.881 217.036 154.655 216.723 154.429C216.026 153.929 215.363 155.082 216.051 155.578C216.735 156.07 217.986 157.397 218.831 156.518C219.169 156.167 219.241 155.55 219.314 155.09C219.414 154.449 219.434 153.812 219.382 153.163Z" fill="#D9A4D1"/>
<path d="M185.141 113.877C184.771 114.663 184.115 116.204 182.977 115.881C182.152 115.647 181.576 114.256 181.154 113.595C180.695 112.877 179.54 113.542 180.007 114.268C180.735 115.405 181.524 117.16 183.081 117.244C184.731 117.333 185.672 115.857 186.288 114.551C186.654 113.78 185.507 113.103 185.141 113.877Z" fill="#D9A4D1"/>
<path d="M195.216 112.397C194.737 113.22 194.142 114.22 193.297 114.728C192.299 115.329 191.165 113.611 190.553 112.974C189.957 112.353 189.02 113.296 189.611 113.917C190.549 114.893 191.639 116.631 193.225 116.212C194.661 115.833 195.663 114.268 196.363 113.074C196.798 112.328 195.651 111.659 195.216 112.397Z" fill="#D9A4D1"/>
<path d="M204.314 110.897C203.951 111.667 203.605 112.921 202.913 113.482C202.394 113.901 201.996 113.292 201.666 112.909C201.308 112.49 200.954 112.07 200.6 111.655C200.045 111.002 199.107 111.945 199.658 112.599C200.447 113.53 201.469 115.349 202.942 114.97C204.358 114.603 204.913 112.724 205.456 111.57C205.826 110.8 204.68 110.123 204.314 110.897Z" fill="#D9A4D1"/>
<path d="M213.689 109.889C213.347 110.369 213.005 110.845 212.663 111.324C212.413 111.671 212.003 112.558 211.637 112.76C210.607 113.329 209.581 111.703 209.315 110.941C209.033 110.139 207.75 110.482 208.031 111.296C208.502 112.643 209.669 114.123 211.198 114.3C211.874 114.377 212.305 114.042 212.703 113.542C213.459 112.591 214.127 111.554 214.835 110.566C215.334 109.865 214.184 109.199 213.689 109.889Z" fill="#D9A4D1"/>
<path d="M189.117 122.85C189.024 123.705 188.835 125.467 187.612 125.443C186.799 125.426 185.733 124.253 185.121 123.793C184.437 123.277 183.773 124.434 184.449 124.943C185.6 125.806 186.928 127.257 188.497 126.58C189.994 125.935 190.291 124.301 190.448 122.85C190.537 121.999 189.205 122.007 189.117 122.85Z" fill="#D9A4D1"/>
<path d="M200.58 120.845C200.391 121.773 200.041 122.991 199.28 123.624C198.17 124.547 197.156 123.055 196.625 122.249C196.154 121.535 195.003 122.204 195.478 122.922C196.283 124.144 197.474 125.592 199.135 125.193C200.769 124.801 201.57 122.66 201.867 121.2C202.032 120.361 200.749 120.003 200.58 120.845Z" fill="#D9A4D1"/>
<path d="M212.115 119.539C211.713 120.386 211.307 121.47 210.422 121.845C209.709 122.148 209.331 121.805 208.792 121.301C208.418 120.954 208.136 120.555 207.879 120.115C207.444 119.378 206.297 120.047 206.732 120.789C207.432 121.987 208.744 123.459 210.261 123.442C211.854 123.426 212.687 121.43 213.266 120.208C213.628 119.442 212.482 118.765 212.115 119.539Z" fill="#D9A4D1"/>
<path d="M193.281 133.701C193.015 134.145 192.754 134.588 192.488 135.032C192.327 135.302 191.969 136.226 191.696 136.363C190.871 136.77 189.696 135.234 189.281 134.697C188.758 134.02 187.825 134.972 188.34 135.641C189.032 136.536 190.537 138.129 191.824 137.883C192.376 137.778 192.669 137.319 192.939 136.871C193.442 136.044 193.929 135.21 194.424 134.379C194.866 133.637 193.719 132.963 193.281 133.701Z" fill="#D9A4D1"/>
<path d="M201.738 131.342C201.533 132.137 200.881 134.577 199.69 134.399C198.994 134.294 198.314 133.185 197.759 132.77C197.071 132.258 196.407 133.415 197.087 133.919C198.157 134.714 198.902 136.169 200.475 135.617C201.98 135.089 202.664 133.088 203.018 131.697C203.231 130.867 201.952 130.512 201.738 131.342Z" fill="#D9A4D1"/>
<path d="M211.749 127.935C211.331 128.818 210.977 130.064 210.325 130.794C209.81 131.37 209.456 131.108 209.001 130.624C208.615 130.213 208.233 129.798 207.846 129.382C207.263 128.753 206.325 129.697 206.905 130.326C207.766 131.25 208.8 132.923 210.285 132.443C211.765 131.963 212.305 129.862 212.896 128.608C213.262 127.834 212.115 127.156 211.749 127.935Z" fill="#D9A4D1"/>
<path d="M199.823 143.23C199.642 143.807 199.453 144.38 199.26 144.952C199.192 145.158 199.143 145.569 198.994 145.731C198.487 146.287 198.214 145.888 197.904 145.521C197.373 144.9 196.983 144.283 196.138 144.085C195.305 143.888 194.951 145.174 195.784 145.372C196.488 145.537 196.777 146.348 197.276 146.803C197.727 147.215 198.331 147.529 198.958 147.432C199.57 147.34 199.948 146.892 200.177 146.348C200.556 145.46 200.813 144.501 201.107 143.581C201.364 142.767 200.085 142.416 199.823 143.23Z" fill="#D9A4D1"/>
<path d="M208.361 140.077C207.915 140.827 207.947 141.775 207.496 142.492C207.094 143.134 206.478 142.751 205.955 142.432C205.497 142.154 205.038 141.871 204.579 141.593C203.847 141.146 203.179 142.299 203.907 142.742C204.97 143.392 206.406 144.706 207.726 144.065C209.053 143.42 208.86 141.843 209.508 140.746C209.947 140.012 208.8 139.339 208.361 140.077Z" fill="#D9A4D1"/>
<path d="M242.554 130.443C242.107 130.116 241.66 129.79 241.21 129.463C240.92 129.249 240.47 129.415 240.301 129.701C240.103 130.04 240.248 130.399 240.538 130.612C240.985 130.939 241.431 131.266 241.882 131.592C242.171 131.806 242.622 131.641 242.791 131.354C242.992 131.016 242.847 130.657 242.554 130.443Z" fill="#B98BB2"/>
<path d="M246.984 132.697C246.613 132.161 246.179 131.717 245.66 131.326C245.374 131.108 244.915 131.278 244.75 131.564C244.553 131.903 244.702 132.258 244.988 132.475C245.261 132.681 245.632 133.072 245.837 133.367C246.042 133.661 246.42 133.798 246.746 133.605C247.036 133.435 247.189 132.992 246.984 132.697Z" fill="#B98BB2"/>
<path d="M244.481 126.572C243.897 126.047 243.31 125.523 242.727 124.995C242.091 124.422 241.149 125.362 241.785 125.939C242.368 126.463 242.956 126.987 243.539 127.515C244.175 128.084 245.121 127.144 244.481 126.572Z" fill="#B98BB2"/>
<path d="M240.872 110.159C240.309 109.792 239.798 109.332 239.387 108.792C239.17 108.506 238.816 108.356 238.478 108.554C238.196 108.719 238.023 109.175 238.24 109.465C238.792 110.195 239.431 110.808 240.2 111.308C240.92 111.78 241.588 110.627 240.872 110.159Z" fill="#B98BB2"/>
<path d="M246.348 114.341C245.817 113.76 245.322 113.147 244.867 112.502C244.662 112.208 244.288 112.071 243.958 112.264C243.668 112.433 243.511 112.881 243.72 113.175C244.239 113.913 244.799 114.619 245.41 115.285C245.986 115.914 246.923 114.97 246.348 114.341Z" fill="#B98BB2"/>
<path d="M247.193 119.813C246.726 119.208 246.304 118.567 245.914 117.91C245.479 117.172 244.328 117.841 244.767 118.583C245.213 119.341 245.712 120.059 246.252 120.757C246.473 121.043 246.96 120.987 247.193 120.757C247.475 120.47 247.414 120.095 247.193 119.813Z" fill="#B98BB2"/>
<path d="M251.772 121.132C251.277 120.402 250.786 119.668 250.291 118.938C249.816 118.232 248.661 118.898 249.144 119.611C249.639 120.341 250.13 121.075 250.625 121.805C251.104 122.511 252.254 121.845 251.772 121.132Z" fill="#B98BB2"/>
<path d="M251.627 126.265C251.128 125.584 250.597 124.93 250.013 124.318C249.422 123.697 248.484 124.64 249.072 125.261C249.575 125.789 250.046 126.346 250.476 126.939C250.689 127.229 251.051 127.374 251.385 127.177C251.675 127.007 251.84 126.556 251.627 126.265Z" fill="#B98BB2"/>
<path d="M236.824 110.562L235.275 109.119C234.647 108.534 233.706 109.474 234.333 110.062C234.848 110.542 235.368 111.026 235.883 111.506C236.51 112.087 237.452 111.147 236.824 110.562Z" fill="#B98BB2"/>
<path d="M241.471 115.676C240.944 115.055 240.421 114.43 239.894 113.809C239.661 113.534 239.194 113.571 238.953 113.809C238.683 114.083 238.719 114.474 238.953 114.752L240.53 116.619C240.763 116.894 241.23 116.857 241.471 116.619C241.741 116.349 241.705 115.954 241.471 115.676Z" fill="#B98BB2"/>
<path d="M245.64 122.229C245.093 121.596 244.545 120.958 243.998 120.325C243.439 119.676 242.501 120.62 243.057 121.269C243.604 121.902 244.151 122.539 244.698 123.172C245.258 123.822 246.195 122.874 245.64 122.229Z" fill="#B98BB2"/>
<path d="M232.953 111.8C232.503 111.175 232.052 110.554 231.601 109.929C231.392 109.639 231.022 109.498 230.692 109.691C230.406 109.861 230.242 110.308 230.455 110.603C230.905 111.228 231.356 111.849 231.807 112.474C232.016 112.764 232.386 112.905 232.716 112.712C233.002 112.542 233.167 112.091 232.953 111.8Z" fill="#B98BB2"/>
<path d="M229.803 114.389C229.417 113.821 228.998 113.276 228.543 112.76C228.306 112.49 227.847 112.518 227.602 112.76C227.336 113.026 227.364 113.433 227.602 113.704C227.98 114.135 228.33 114.587 228.652 115.063C228.853 115.361 229.235 115.49 229.561 115.3C229.859 115.127 230.004 114.688 229.803 114.389Z" fill="#B98BB2"/>
<path d="M227.864 118.438C227.304 117.74 226.741 117.043 226.182 116.345C225.956 116.063 225.478 116.111 225.24 116.345C224.963 116.623 225.015 117.006 225.24 117.289C225.799 117.986 226.363 118.684 226.922 119.382C227.147 119.664 227.626 119.615 227.864 119.382C228.141 119.099 228.089 118.716 227.864 118.438Z" fill="#B98BB2"/>
<path d="M228.407 124.681C228.024 124.172 227.642 123.664 227.264 123.152C227.047 122.866 226.689 122.717 226.355 122.914C226.073 123.08 225.9 123.535 226.117 123.826C226.499 124.334 226.882 124.842 227.26 125.354C227.477 125.64 227.835 125.79 228.169 125.592C228.451 125.427 228.624 124.971 228.407 124.681Z" fill="#B98BB2"/>
<path d="M233.138 119.813C232.579 119.345 232.068 118.817 231.642 118.228C231.432 117.938 231.062 117.793 230.732 117.99C230.447 118.16 230.282 118.607 230.495 118.902C230.994 119.587 231.553 120.212 232.201 120.757C232.475 120.987 232.873 121.027 233.142 120.757C233.376 120.519 233.412 120.043 233.138 119.813Z" fill="#B98BB2"/>
<path d="M236.571 116.821C236.197 116.232 235.822 115.643 235.452 115.05C234.993 114.329 233.843 114.998 234.305 115.724C234.68 116.313 235.054 116.901 235.424 117.494C235.879 118.216 237.029 117.547 236.571 116.821Z" fill="#B98BB2"/>
<path d="M233.633 126.334C233.191 125.669 232.744 125.003 232.302 124.338C231.827 123.628 230.676 124.293 231.155 125.011C231.597 125.677 232.044 126.342 232.487 127.007C232.957 127.717 234.108 127.052 233.633 126.334Z" fill="#B98BB2"/>
<path d="M232.603 132.221C232.314 131.846 232.024 131.471 231.734 131.096C231.513 130.81 231.026 130.867 230.793 131.096C230.511 131.379 230.571 131.754 230.793 132.04C231.082 132.415 231.372 132.79 231.662 133.165C231.883 133.451 232.37 133.395 232.603 133.165C232.881 132.883 232.825 132.508 232.603 132.221Z" fill="#B98BB2"/>
<path d="M237.854 124.987L236.647 123.313C236.438 123.023 236.068 122.882 235.738 123.075C235.452 123.245 235.287 123.692 235.5 123.987C235.903 124.543 236.305 125.104 236.707 125.66C236.917 125.951 237.287 126.092 237.617 125.898C237.902 125.729 238.067 125.281 237.854 124.987Z" fill="#B98BB2"/>
<path d="M240.816 121.539C240.357 120.922 239.902 120.301 239.444 119.684C239.23 119.394 238.868 119.249 238.534 119.446C238.249 119.611 238.08 120.067 238.297 120.357C238.756 120.974 239.21 121.595 239.669 122.212C239.882 122.503 240.244 122.648 240.578 122.45C240.86 122.285 241.029 121.829 240.816 121.539Z" fill="#B98BB2"/>
<path d="M237.786 130.568C237.303 130.294 236.897 129.931 236.591 129.467C236.394 129.169 236.003 129.04 235.681 129.229C235.384 129.403 235.243 129.838 235.444 130.141C235.875 130.794 236.438 131.334 237.118 131.721C237.858 132.141 238.53 130.991 237.786 130.568Z" fill="#B98BB2"/>
<path d="M237.456 136.464C236.957 136.04 236.502 135.564 236.128 135.028C235.923 134.734 235.549 134.597 235.219 134.79C234.929 134.959 234.772 135.407 234.981 135.702C235.424 136.331 235.931 136.907 236.518 137.407C236.792 137.641 237.19 137.678 237.46 137.407C237.697 137.165 237.733 136.698 237.456 136.464Z" fill="#B98BB2"/>
<path d="M241.33 137.444C241.391 137.488 241.246 137.375 241.234 137.367C241.17 137.311 241.105 137.25 241.045 137.19C240.94 137.085 240.848 136.972 240.795 136.899C240.586 136.609 240.216 136.468 239.886 136.661C239.596 136.831 239.439 137.278 239.649 137.573C239.934 137.976 240.26 138.303 240.659 138.593C240.948 138.807 241.399 138.641 241.568 138.355C241.765 138.016 241.62 137.657 241.33 137.444Z" fill="#B98BB2"/>
<path d="M174.632 35.1926C172.926 36.5516 171.127 37.7533 169.244 38.8341C169.997 35.237 171.461 31.8254 172.033 28.1839C172.097 27.7726 171.666 27.2887 171.248 27.5831C169.115 29.0792 167.108 30.7084 165.204 32.4948C164.702 32.9666 165.466 33.7127 165.965 33.2449C167.482 31.8214 169.075 30.4987 170.745 29.2647C169.989 32.7932 168.56 36.1483 167.989 39.7293C167.916 40.185 168.339 40.5641 168.773 40.3302C171.115 39.0599 173.304 37.6001 175.388 35.9427C175.931 35.5152 175.167 34.7692 174.632 35.1926Z" fill="#DCC272"/>
<path d="M175.601 28.4904C174.966 29.0913 174.33 29.6962 173.694 30.2971C173.195 30.7689 173.956 31.5189 174.455 31.0471L176.362 29.2405C176.861 28.7687 176.1 28.0186 175.601 28.4904Z" fill="#DCC272"/>
<path d="M186.123 22.6028C184.365 24.0626 182.607 25.5265 180.848 26.9863C180.683 22.5504 180.514 18.1105 180.349 13.6746C180.333 13.2714 179.907 12.9972 179.545 13.2109C177.557 14.3924 175.754 15.7393 174.052 17.304C173.545 17.7677 174.306 18.5178 174.813 18.054C176.221 16.7636 177.718 15.6304 179.319 14.6183C179.488 19.1066 179.657 23.5949 179.822 28.0832C179.842 28.5792 180.382 28.7526 180.736 28.4582C182.784 26.7564 184.832 25.0506 186.88 23.3489C187.411 22.9133 186.65 22.1673 186.123 22.6028Z" fill="#DCC272"/>
<path d="M186.666 13.6505L183.588 16.5338C183.085 17.0056 183.846 17.7517 184.349 17.2839C185.375 16.3241 186.401 15.3603 187.427 14.4005C187.93 13.9287 187.169 13.1787 186.666 13.6505Z" fill="#DCC272"/>
<path d="M200.435 10.9607C197.727 12.8479 195.144 14.8804 192.666 17.054C192.951 11.8196 193.587 6.6216 194.255 1.42356C194.307 1.00417 193.768 0.774307 193.45 0.959807C191.217 2.29057 189.169 3.8149 187.25 5.56908C186.743 6.03283 187.503 6.7829 188.01 6.31915C189.592 4.87547 191.261 3.60923 193.056 2.47204C192.388 7.72653 191.764 12.9851 191.535 18.2839C191.515 18.7799 192.122 18.9574 192.448 18.6589C195.152 16.2192 197.989 13.9609 200.978 11.8801C201.538 11.493 201.002 10.5695 200.435 10.9607Z" fill="#DCC272"/>
</g>
<defs>
<clipPath id="clip0">
<rect width="369" height="229" fill="white" transform="translate(0.482422 0.895264)"/>
</clipPath>
</defs>
</svg>
