<svg width="11" height="13" viewBox="0 0 11 13" fill="none" xmlns="http://www.w3.org/2000/svg">
<path d="M2.50637 0.882901C1.39178 0.251505 0 1.04217 0 2.30496V11.0137C0 12.2822 1.39178 13.0728 2.50637 12.4357L10.1641 8.08423C11.2786 7.45283 11.2786 5.8715 10.1641 5.23442M2.50637 0.882901L2.25934 1.31762L2.25962 1.31778C1.46523 0.868041 0.5 1.44042 0.5 2.30496V11.0137C0.5 11.8857 1.46603 12.4545 2.25824 12.0017L2.25934 12.001L9.91703 7.64952L9.91761 7.64918C10.6924 7.21027 10.6962 6.11503 9.91651 5.66883L9.91703 5.66913L10.1641 5.23442M2.50637 0.882901L10.1641 5.23442M2.50637 0.882901L2.25992 1.31795L9.91594 5.66851L10.1641 5.23442" fill="#A1A4B2" stroke="#A1A4B2"/>
</svg>
