<svg width="128" height="95" viewBox="0 20 100 90" fill="none" xmlns="http://www.w3.org/2000/svg">
<path d="M101.141 11.1355C101.141 11.1355 83.9348 -0.260691 62.9765 5.75099C42.0156 11.7608 27.7082 30.5479 15.7134 45.4591C3.71678 60.3728 4.24062 78.7339 16.4615 90.1122C28.6824 101.491 40.9925 92.3263 60.8749 96.7176C80.7574 101.109 85.3978 105.266 104.429 98.2181C123.46 91.1698 132.663 65.5558 124.354 42.813C116.042 20.0684 101.141 11.1355 101.141 11.1355Z" fill="#F1B869"/>
<path d="M38.8895 86.7336C38.059 87.0081 37.16 86.5544 36.8858 85.725L31.34 68.9452C31.1021 68.2252 30.3255 67.8333 29.607 68.0708C28.8886 68.3082 28.4985 69.0857 28.7364 69.8057L32.8762 82.3315C33.1199 83.0688 32.7202 83.8654 31.9845 84.1086C31.2488 84.3517 30.4531 83.9502 30.2094 83.2129L27.9239 76.2976C27.7478 75.7648 27.1739 75.4753 26.6423 75.651C26.1107 75.8267 25.8224 76.4012 25.9985 76.934L26.8485 79.506L24.7277 80.2069L24.6325 79.9189L26.466 79.3129L25.7111 77.029C25.4827 76.3377 25.8574 75.5909 26.5471 75.363C27.2368 75.135 27.9828 75.5114 28.2113 76.2027L30.4968 83.1179C30.6881 83.6968 31.3117 84.0115 31.8893 83.8206C32.4669 83.6296 32.7802 83.0054 32.5889 82.4265L28.4491 69.9007C28.1587 69.0222 28.6353 68.0724 29.5118 67.7827C30.3883 67.4931 31.3371 67.9718 31.6274 68.8502L37.1732 85.63C37.395 86.3011 38.1218 86.6678 38.7943 86.4456C39.4639 86.2243 39.829 85.4966 39.6072 84.8255L32.8411 64.3534C32.4889 63.2878 33.0674 62.135 34.1307 61.7835C35.194 61.4321 36.3455 62.0132 36.6977 63.0788L43.4324 83.4559C43.6704 84.1759 44.447 84.5678 45.1654 84.3303C45.8838 84.0929 46.274 83.3154 46.036 82.5954L40.6692 66.3571C40.3322 65.3375 40.8857 64.2345 41.903 63.8983C42.9203 63.562 44.0221 64.118 44.3591 65.1376L48.318 77.1161C48.5246 77.7411 49.2017 78.0828 49.8253 77.8767C50.4489 77.6706 50.7891 76.9927 50.5825 76.3677L48.4303 69.8557C48.1818 69.1039 48.5893 68.292 49.3393 68.0441C50.0894 67.7962 50.9033 68.2045 51.1517 68.9562L51.8057 70.9349L53.9265 70.2339L54.0217 70.5219L51.6135 71.3179L50.8643 69.0512C50.6683 68.4579 50.0265 68.1365 49.4345 68.3321C48.8425 68.5278 48.5225 69.1702 48.7177 69.7607L50.8699 76.2727C51.1288 77.0561 50.7022 77.9063 49.9205 78.1647C49.1389 78.423 48.2896 77.9945 48.0306 77.2111L44.0717 65.2325C43.7871 64.3714 42.8574 63.9023 41.9982 64.1863C41.139 64.4703 40.6719 65.4009 40.9566 66.2621L46.3234 82.5004C46.6137 83.3788 46.1371 84.3286 45.2606 84.6183C44.3841 84.908 43.4353 84.4293 43.145 83.5508L36.4103 63.1738C36.1105 62.2665 35.1311 61.7724 34.2259 62.0715C33.3207 62.3707 32.8287 63.3512 33.1285 64.2584L39.8946 84.7305C40.1716 85.5591 39.72 86.4591 38.8895 86.7336Z" fill="#FEDEA5"/>
<path d="M66.6208 77.5673C65.7903 77.8418 64.8913 77.3881 64.6171 76.5586L59.0714 59.7789C58.8334 59.0589 58.0568 58.667 57.3383 58.9044C56.6199 59.1419 56.2298 59.9194 56.4677 60.6394L60.6076 73.1652C60.8512 73.9025 60.4515 74.6991 59.7158 74.9422C58.9801 75.1854 58.1844 74.7839 57.9407 74.0466L55.6552 67.1313C55.4791 66.5985 54.9053 66.3089 54.3736 66.4846C53.842 66.6604 53.5537 67.2348 53.7298 67.7677L54.5799 70.3396L52.459 71.0406L52.3638 70.7526L54.1973 70.1466L53.4424 67.8627C53.214 67.1714 53.5887 66.4246 54.2784 66.1966C54.9681 65.9687 55.7141 66.3451 55.9426 67.0363L58.2281 73.9516C58.4194 74.5305 59.043 74.8451 59.6206 74.6542C60.1983 74.4633 60.5115 73.839 60.3202 73.2601L56.1804 60.7344C55.89 59.8559 56.3667 58.9061 57.2432 58.6164C58.1196 58.3267 59.0684 58.8055 59.3587 59.6839L64.9045 76.4637C65.1263 77.1347 65.8532 77.5015 66.5256 77.2793C67.1952 77.058 67.5604 76.3303 67.3386 75.6592L60.5725 55.1871C60.2202 54.1214 60.7987 52.9686 61.862 52.6172C62.9253 52.2658 64.0768 52.8468 64.429 53.9125L71.1637 74.2895C71.4017 75.0096 72.1783 75.4014 72.8967 75.164C73.6152 74.9266 74.0053 74.1491 73.7673 73.429L68.4005 57.1908C68.0635 56.1712 68.617 55.0682 69.6343 54.7319C70.6516 54.3957 71.7534 54.9517 72.0904 55.9712L76.0493 67.9498C76.2559 68.5748 76.933 68.9164 77.5566 68.7103C78.1802 68.5042 78.5204 67.8263 78.3138 67.2014L76.1616 60.6893C75.9131 59.9376 76.3206 59.1257 77.0735 58.8768C77.8235 58.6289 78.6346 59.0382 78.883 59.7899L79.537 61.7686L81.6578 61.0676L81.753 61.3556L79.3448 62.1515L78.5957 59.8849C78.3996 59.2916 77.7607 58.9692 77.1687 59.1648C76.5767 59.3605 76.2538 60.0039 76.449 60.5944L78.6012 67.1064C78.8601 67.8898 78.4335 68.74 77.6518 68.9984C76.8702 69.2567 76.0209 68.8282 75.762 68.0448L71.803 56.0662C71.5184 55.2051 70.5888 54.736 69.7295 55.02C68.8703 55.3039 68.4033 56.2346 68.6879 57.0958L74.0547 73.3341C74.345 74.2125 73.8684 75.1623 72.9919 75.452C72.1154 75.7417 71.1667 75.263 70.8763 74.3845L64.1416 54.0075C63.8418 53.1002 62.8624 52.606 61.9572 52.9052C61.052 53.2044 60.56 54.1849 60.8598 55.0921L67.6259 75.5642C67.903 76.3928 67.4513 77.2928 66.6208 77.5673Z" fill="#FEDEA5"/>
<path d="M94.3524 68.4022C93.5219 68.6766 92.6229 68.223 92.3487 67.3935L86.803 50.6138C86.565 49.8937 85.7884 49.5019 85.07 49.7393C84.3515 49.9768 83.9614 50.7542 84.1994 51.4743L88.3392 64C88.5829 64.7374 88.1831 65.534 87.4474 65.7771C86.7118 66.0203 85.916 65.6188 85.6723 64.8814L83.3868 57.9662C83.2107 57.4334 82.6369 57.1438 82.1052 57.3195C81.5736 57.4952 81.2853 58.0697 81.4614 58.6026L82.3115 61.1745L80.1906 61.8755L80.0955 61.5875L81.9289 60.9815L81.1741 58.6975C80.9456 58.0063 81.3204 57.2595 82.01 57.0315C82.6997 56.8036 83.4457 57.18 83.6742 57.8712L85.9597 64.7865C86.1511 65.3654 86.7746 65.68 87.3523 65.4891C87.9299 65.2982 88.2431 64.6739 88.0518 64.095L83.912 51.5693C83.6217 50.6908 84.0983 49.741 84.9748 49.4513C85.8513 49.1616 86.8 49.6404 87.0904 50.5188L92.6361 67.2985C92.8579 67.9696 93.5848 68.3364 94.2572 68.1141C94.9297 67.8919 95.292 67.1652 95.0702 66.4941L88.3041 46.022C87.9519 44.9563 88.5303 43.8035 89.5936 43.4521C90.6569 43.1007 91.8084 43.6817 92.1606 44.7474L98.8953 65.1244C99.1333 65.8445 99.9099 66.2363 100.628 65.9989C101.347 65.7614 101.737 64.984 101.499 64.2639L96.1321 48.0256C95.7951 47.0061 96.3486 45.9031 97.3659 45.5668C98.3833 45.2306 99.485 45.7866 99.822 46.8061L103.781 58.7847C103.988 59.4097 104.665 59.7513 105.288 59.5452C105.912 59.3391 106.252 58.6612 106.045 58.0362L103.893 51.5242C103.645 50.7725 104.052 49.9606 104.805 49.7117C105.555 49.4638 106.366 49.8731 106.615 50.6248L107.269 52.6034L109.389 51.9025L109.485 52.1905L107.076 52.9864L106.327 50.7198C106.131 50.1264 105.492 49.8041 104.9 49.9997C104.308 50.1954 103.985 50.8388 104.181 51.4292L106.333 57.9413C106.592 58.7247 106.165 59.5749 105.383 59.8332C104.602 60.0916 103.752 59.663 103.494 58.8796L99.5346 46.9011C99.25 46.0399 98.3204 45.5709 97.4611 45.8548C96.6019 46.1388 96.1349 47.0695 96.4195 47.9307L101.786 64.1689C102.077 65.0474 101.6 65.9972 100.724 66.2869C99.847 66.5766 98.8983 66.0979 98.608 65.2194L91.8733 44.8424C91.5734 43.9351 90.594 43.4409 89.6888 43.7401C88.7836 44.0393 88.2916 45.0198 88.5914 45.927L95.3576 66.3991C95.6346 67.2276 95.1829 68.1277 94.3524 68.4022Z" fill="#FEDEA5"/>
<path d="M51.5309 21.9478L50.6485 19.2779L48.7845 21.3731L51.5309 21.9478Z" fill="#263238"/>
<path d="M47.975 20.0909L47.5554 20.2296L48.4569 22.9571L48.8764 22.8184L47.975 20.0909Z" fill="#263238"/>
<path d="M63.7329 17.9146L65.5959 15.8165L62.8505 15.2447L63.7329 17.9146Z" fill="#263238"/>
<path d="M65.9044 14.1656L65.4849 14.3043L66.3863 17.0318L66.8059 16.8931L65.9044 14.1656Z" fill="#263238"/>
<path d="M56.0441 14.6735C54.0842 15.3213 53.0243 17.4383 53.6726 19.3997C54.3218 21.3639 56.4364 22.4286 58.3934 21.7818C60.3533 21.134 61.4132 19.017 60.765 17.0556C60.1158 15.0914 58.004 14.0258 56.0441 14.6735ZM57.3346 20.266L56.2799 20.6145L55.0415 16.8675L56.0962 16.5189L57.3346 20.266ZM59.3951 19.585L58.3404 19.9335L57.102 16.1865L58.1566 15.8379L59.3951 19.585Z" fill="#263238"/>
<path d="M95.8489 34.8866C95.6103 34.9654 95.354 34.8361 95.275 34.597L93.9852 30.6944C93.9062 30.4554 94.0349 30.1988 94.2735 30.1199C94.512 30.0411 94.7683 30.1704 94.8473 30.4095L96.1371 34.3121C96.2152 34.5483 96.0874 34.8077 95.8489 34.8866Z" fill="#FFDB9D"/>
<path d="M94.267 34.8372C94.0285 34.9161 93.7722 34.7867 93.6931 34.5477L92.7441 31.6762C92.6651 31.4371 92.7939 31.1805 93.0324 31.1017C93.2709 31.0228 93.5272 31.1522 93.6062 31.3912L94.5553 34.2627C94.6343 34.5018 94.5055 34.7584 94.267 34.8372Z" fill="#FFDB9D"/>
<path d="M92.8564 35.3033C92.6178 35.3821 92.3615 35.2528 92.2825 35.0137L91.3335 32.1422C91.2545 31.9032 91.3832 31.6466 91.6217 31.5677C91.8603 31.4889 92.1166 31.6182 92.1956 31.8573L93.1446 34.7288C93.2236 34.9679 93.0949 35.2245 92.8564 35.3033Z" fill="#FFDB9D"/>
<path d="M109.783 29.7094C109.544 29.7883 109.288 29.6589 109.209 29.4199L108.26 26.5484C108.181 26.3093 108.309 26.0527 108.548 25.9739C108.787 25.895 109.043 26.0244 109.122 26.2634L110.071 29.1349C110.15 29.374 110.021 29.6306 109.783 29.7094Z" fill="#FFDB9D"/>
<path d="M108.371 30.1756C108.133 30.2544 107.877 30.125 107.798 29.886L106.849 27.0145C106.77 26.7754 106.898 26.5188 107.137 26.44C107.375 26.3612 107.632 26.4905 107.711 26.7295L108.66 29.6011C108.739 29.8401 108.61 30.0967 108.371 30.1756Z" fill="#FFDB9D"/>
<path d="M97.26 34.4199C97.0215 34.4987 96.7652 34.3694 96.6861 34.1303L95.3963 30.2277C95.3173 29.9887 95.4461 29.7321 95.6846 29.6532C95.9231 29.5744 96.1794 29.7038 96.2584 29.9428L97.5483 33.8454C97.6263 34.0816 97.4956 34.342 97.26 34.4199Z" fill="#FFDB9D"/>
<path d="M98.8944 34.6399C98.6558 34.7188 98.3995 34.5894 98.3205 34.3504L96.5766 29.0739C96.4976 28.8349 96.6264 28.5783 96.8649 28.4994C97.1034 28.4206 97.3597 28.5499 97.4387 28.789L99.1826 34.0654C99.2616 34.3045 99.1329 34.5611 98.8944 34.6399Z" fill="#FFDB9D"/>
<path d="M100.664 35.2571C100.425 35.3359 100.169 35.2066 100.09 34.9675L97.6309 27.5281C97.5519 27.289 97.6807 27.0324 97.9192 26.9536C98.1577 26.8748 98.4141 27.0041 98.4931 27.2432L100.952 34.6826C101.03 34.9187 100.902 35.1782 100.664 35.2571Z" fill="#FFDB9D"/>
<path d="M107.134 31.1566C106.896 31.2354 106.639 31.1061 106.56 30.867L105.27 26.9644C105.191 26.7254 105.32 26.4688 105.559 26.3899C105.797 26.3111 106.054 26.4404 106.133 26.6795L107.422 30.5821C107.5 30.8183 107.37 31.0787 107.134 31.1566Z" fill="#FFDB9D"/>
<path d="M105.723 31.6232C105.484 31.702 105.228 31.5727 105.149 31.3336L103.859 27.431C103.78 27.192 103.909 26.9354 104.147 26.8566C104.386 26.7777 104.642 26.9071 104.721 27.1461L106.011 31.0487C106.089 31.2849 105.961 31.5444 105.723 31.6232Z" fill="#FFDB9D"/>
<path d="M104.538 32.775C104.3 32.8538 104.043 32.7245 103.964 32.4854L102.221 27.209C102.142 26.9699 102.27 26.7133 102.509 26.6345C102.747 26.5557 103.004 26.685 103.083 26.9241L104.827 32.2005C104.906 32.4396 104.777 32.6962 104.538 32.775Z" fill="#FFDB9D"/>
<path d="M103.485 34.3243C103.247 34.4031 102.99 34.2738 102.911 34.0347L100.453 26.5953C100.374 26.3562 100.502 26.0996 100.741 26.0208C100.979 25.942 101.236 26.0713 101.315 26.3104L103.773 33.7498C103.852 33.9859 103.724 34.2454 103.485 34.3243Z" fill="#FFDB9D"/>
<path d="M102.528 36.164C102.29 36.2429 102.033 36.1135 101.954 35.8745L98.5866 25.6845C98.5076 25.4455 98.6364 25.1889 98.8749 25.11C99.1134 25.0312 99.3697 25.1605 99.4488 25.3996L102.817 35.5896C102.896 35.8286 102.767 36.0852 102.528 36.164Z" fill="#FFDB9D"/>
<path d="M16.4119 50.2441C15.5348 48.8152 13.7641 48.1449 12.149 48.6787C10.5225 49.2163 9.49223 50.8347 9.66425 52.5221C8.07262 53.3293 7.27642 55.2122 7.84661 56.9374C8.44535 58.749 10.2939 59.7898 12.15 59.3584L11.9819 58.6377C10.5022 58.9829 9.02566 58.1515 8.5478 56.7057C8.06805 55.2541 8.7986 53.6644 10.2079 53.0868L10.4829 52.9736L10.4298 52.6781C10.1692 51.2531 11.0076 49.8354 12.3813 49.3814C13.7578 48.9265 15.2768 49.5682 15.9158 50.8745L16.0741 51.1992L16.4008 51.0497C16.5005 51.0039 16.601 50.9611 16.7045 50.9269C18.2333 50.4216 19.887 51.2584 20.3924 52.7878C20.8988 54.32 20.0657 55.9755 18.5398 56.4798L18.772 57.1826C20.6859 56.55 21.7276 54.4742 21.0936 52.556C20.4549 50.6139 18.3345 49.5512 16.4119 50.2441Z" fill="#4A5161"/>
<path d="M16.1954 53.4371C16.1592 53.3276 16.0722 53.2382 15.9612 53.2014C15.8503 53.1646 15.7287 53.1824 15.6328 53.2492L12.3133 55.5603C12.1781 55.6529 12.1232 55.8244 12.1746 55.9799L13.5711 60.2051C13.4351 60.1989 13.2934 60.2138 13.1584 60.2585C12.5606 60.456 12.2358 61.1033 12.4338 61.7024C12.6318 62.3014 13.2784 62.6277 13.8761 62.4301C14.4422 62.243 14.7573 61.6532 14.6234 61.0841L14.6349 61.0803L13.5697 57.8574L16.2604 55.9873L16.8773 57.8537C16.7442 57.8465 16.6063 57.8634 16.4713 57.908C15.8735 58.1056 15.5487 58.7528 15.7467 59.3519C15.9447 59.951 16.5913 60.2772 17.189 60.0796C17.7867 59.8821 18.1115 59.2348 17.9135 58.6357C17.9116 58.63 17.9068 58.6252 17.9049 58.6194L16.1925 53.438L16.1954 53.4371ZM16.0168 55.25L13.327 57.123L12.9586 56.0084L15.6493 54.1383L16.0168 55.25Z" fill="#4A5161"/>
<path d="M45.9562 37.1978C45.8239 36.7974 46.2272 36.185 46.0507 35.8152C45.8686 35.4377 45.1393 35.372 44.9111 35.0289C44.681 34.6801 44.9121 33.9807 44.6437 33.6701C44.3705 33.3547 43.6475 33.4818 43.3397 33.2065C43.0282 32.9293 43.0726 32.1958 42.7275 31.9617C42.3823 31.7275 41.7202 32.039 41.3492 31.8517C40.9781 31.6645 40.8329 30.9457 40.4398 30.8073C40.0504 30.6708 39.4856 31.1418 39.078 31.0561C38.6741 30.9723 38.3451 30.3143 37.9297 30.2823C37.5181 30.2522 37.0986 30.8541 36.6821 30.8767C36.2724 30.9003 35.7842 30.3492 35.3734 30.4275C34.9712 30.503 34.7219 31.1955 34.3225 31.3275C33.923 31.4596 33.3111 31.0548 32.9422 31.231C32.5656 31.413 32.5011 32.1436 32.1589 32.3717C31.8109 32.6017 31.1125 32.3693 30.8028 32.6378C30.4883 32.911 30.6162 33.6355 30.3418 33.9434C30.0655 34.2552 29.3333 34.2097 29.1 34.5551C28.8667 34.9006 29.1785 35.5643 28.9921 35.9358C28.8057 36.3073 28.0884 36.4517 27.9507 36.8454C27.815 37.2353 28.2859 37.8017 28.2009 38.21C28.1178 38.6144 27.4614 38.9432 27.43 39.3593C27.4005 39.7716 28.0019 40.1926 28.025 40.6099C28.0491 41.0204 27.4997 41.5087 27.5783 41.9204C27.657 42.3225 28.3458 42.574 28.4782 42.9744C28.6105 43.3747 28.2072 43.9872 28.3836 44.357C28.5658 44.7345 29.2951 44.8001 29.5233 45.1432C29.7533 45.4921 29.5223 46.1914 29.7907 46.5021C30.0639 46.8175 30.7869 46.6904 31.0947 46.9656C31.4062 47.2428 31.3618 47.9763 31.7069 48.2105C32.0521 48.4446 32.7142 48.1332 33.0852 48.3204C33.4563 48.5077 33.6014 49.2264 33.9946 49.3649C34.384 49.5013 34.9488 49.0303 35.3564 49.1161C35.7602 49.1998 36.0893 49.8578 36.5047 49.8898C36.9163 49.9199 37.3358 49.3181 37.7522 49.2954C38.162 49.2718 38.6502 49.8229 39.061 49.7446C39.4623 49.6663 39.7125 48.9766 40.1119 48.8446C40.5114 48.7126 41.1233 49.1173 41.4922 48.9411C41.8688 48.7591 41.9333 48.0286 42.2755 47.8005C42.6235 47.5705 43.3219 47.8029 43.6316 47.5344C43.9461 47.2611 43.8182 46.5366 44.0926 46.2287C44.3689 45.917 45.1011 45.9625 45.3344 45.617C45.5677 45.2716 45.2559 44.6079 45.4423 44.2364C45.6287 43.8649 46.346 43.7204 46.4837 43.3267C46.6194 42.9368 46.1485 42.3704 46.2335 41.9622C46.3166 41.5577 46.973 41.229 47.0044 40.8129C47.0339 40.4006 46.4325 39.9795 46.4094 39.5623C46.3853 39.1517 46.9347 38.6635 46.8561 38.2518C46.7793 37.8459 46.0886 37.5981 45.9562 37.1978Z" fill="#4A5161"/>
<path d="M39.1605 49.874C39.1375 49.8816 39.1135 49.8863 39.0896 49.891C38.8195 49.942 38.5546 49.7963 38.3002 49.6535C38.109 49.5474 37.9139 49.4394 37.7636 49.4475C37.6075 49.4576 37.4216 49.5893 37.2413 49.7192C37.0074 49.8891 36.762 50.0629 36.494 50.0428C36.2222 50.0209 36.0033 49.8121 35.796 49.609C35.6402 49.456 35.4768 49.2992 35.3256 49.2661C35.1744 49.233 34.9618 49.3129 34.7548 49.3909C34.4828 49.4936 34.2021 49.5991 33.9457 49.5081C33.6893 49.4172 33.5337 49.1587 33.3849 48.9108C33.2713 48.7215 33.1558 48.5264 33.0181 48.4569C32.8804 48.3874 32.6554 48.4107 32.4361 48.432C32.146 48.4608 31.8463 48.4896 31.6206 48.3373C31.395 48.1851 31.3123 47.8962 31.2324 47.6159C31.1715 47.4028 31.1087 47.1839 30.9921 47.0819C30.8784 46.9789 30.6535 46.9446 30.4372 46.9075C30.1501 46.8586 29.8506 46.8106 29.6738 46.6039C29.4981 46.4 29.491 46.0988 29.4877 45.8092C29.4843 45.5867 29.479 45.3584 29.394 45.2268C29.311 45.1009 29.1044 45.0062 28.9093 44.9174C28.6424 44.7947 28.366 44.672 28.2477 44.4204C28.1323 44.1774 28.2028 43.8889 28.2732 43.6101C28.3262 43.3945 28.3831 43.1712 28.3336 43.0214C28.2841 42.8717 28.1054 42.7263 27.9343 42.5847C27.7116 42.4028 27.4793 42.2112 27.431 41.9492C27.3798 41.6786 27.5249 41.4134 27.667 41.1588C27.7727 40.9673 27.8803 40.772 27.8719 40.6214C27.8617 40.4651 27.7299 40.2786 27.601 40.1007C27.4311 39.8662 27.2573 39.6201 27.277 39.3517C27.2985 39.0794 27.5067 38.8604 27.7091 38.653C27.8616 38.4971 28.0179 38.3336 28.0508 38.1822C28.0836 38.0308 28.0036 37.8176 27.9255 37.6102C27.8226 37.3375 27.7169 37.0562 27.8073 36.7995C27.8978 36.5427 28.1556 36.3873 28.4029 36.2384C28.5917 36.1249 28.7862 36.0095 28.8554 35.8716C28.9246 35.7338 28.9011 35.5083 28.8795 35.2886C28.8504 34.9979 28.8213 34.6977 28.9739 34.4747C29.1256 34.2489 29.4139 34.1664 29.6936 34.0867C29.9062 34.026 30.1246 33.9634 30.2263 33.8467C30.3289 33.7329 30.3629 33.5077 30.3996 33.2911C30.4481 33.0035 30.4955 32.7035 30.7017 32.5267C30.905 32.3509 31.2056 32.3442 31.4947 32.3413C31.7168 32.3382 31.9446 32.3332 32.076 32.2482C32.2015 32.1652 32.2957 31.9584 32.3842 31.763C32.5063 31.4958 32.6284 31.2191 32.8765 31.1019C33.1189 30.9866 33.407 31.0576 33.6854 31.1285C33.9007 31.1819 34.1236 31.2392 34.2731 31.1898C34.4225 31.1404 34.5674 30.9616 34.7085 30.7903C34.8898 30.5675 35.0808 30.335 35.3422 30.287C35.6122 30.2361 35.8772 30.3817 36.1344 30.5235C36.3257 30.6296 36.5208 30.7377 36.6711 30.7295C36.8271 30.7195 37.0131 30.5877 37.1904 30.4588C37.4244 30.2889 37.6698 30.1151 37.9378 30.1352C38.2096 30.1571 38.4284 30.366 38.6358 30.569C38.7915 30.722 38.955 30.8788 39.1061 30.9119C39.2573 30.945 39.4729 30.8642 39.6769 30.7872C39.949 30.6845 40.2297 30.5789 40.4861 30.6699C40.7425 30.7609 40.898 31.0193 41.0479 31.2701C41.1614 31.4594 41.2769 31.6545 41.4146 31.724C41.5523 31.7935 41.7774 31.7702 41.9966 31.7488C42.2868 31.7201 42.5864 31.6913 42.8121 31.8435C43.0377 31.9958 43.1205 32.2847 43.2004 32.565C43.2612 32.7781 43.324 32.997 43.4406 33.099C43.5543 33.202 43.7792 33.2363 43.9955 33.2734C44.2826 33.3223 44.5822 33.3703 44.7589 33.577C44.9346 33.7809 44.9417 34.0821 44.945 34.3717C44.9484 34.5942 44.9537 34.8225 45.0387 34.9541C45.1218 35.08 45.3284 35.1747 45.5235 35.2635C45.7903 35.3862 46.0668 35.5089 46.1841 35.7576C46.2994 36.0006 46.229 36.2891 46.1586 36.5679C46.1055 36.7835 46.0486 37.0068 46.0981 37.1566C46.1476 37.3064 46.3264 37.4517 46.4975 37.5933C46.7202 37.7752 46.9525 37.9668 47.0008 38.2288C47.052 38.4994 46.9069 38.7646 46.7657 39.0221C46.66 39.2136 46.5496 39.4098 46.5608 39.5595C46.571 39.7158 46.7028 39.9023 46.8326 40.083C47.0026 40.3176 47.1764 40.5636 47.1567 40.8321C47.1351 41.1044 46.927 41.3234 46.7246 41.5308C46.5721 41.6866 46.4158 41.8501 46.3829 42.0016C46.3501 42.153 46.4301 42.3661 46.5082 42.5735C46.6111 42.8462 46.7168 43.1276 46.6263 43.3843C46.5359 43.641 46.2781 43.7965 46.0279 43.9463C45.8391 44.0598 45.6446 44.1752 45.5754 44.3131C45.5062 44.451 45.5297 44.6764 45.5513 44.8961C45.5804 45.1868 45.6096 45.4871 45.4579 45.7129C45.3052 45.9359 45.0179 46.0212 44.7382 46.1009C44.5256 46.1616 44.3072 46.2242 44.2055 46.3409C44.1028 46.4547 44.0689 46.6799 44.0321 46.8965C43.9837 47.1841 43.9362 47.4841 43.7301 47.6609C43.5268 47.8367 43.2262 47.8434 42.9371 47.8463C42.715 47.8494 42.49 47.8535 42.3558 47.9394C42.2302 48.0224 42.136 48.2292 42.0476 48.4246C41.9255 48.6918 41.8034 48.9685 41.5524 49.0867C41.3138 49.2039 41.0219 49.131 40.7435 49.0601C40.5282 49.0066 40.3052 48.9493 40.1558 48.9987C40.0064 49.0481 39.8615 49.227 39.7204 49.3982C39.5573 49.5895 39.3875 49.799 39.1605 49.874ZM37.563 49.1784C37.6205 49.1594 37.6799 49.1461 37.7421 49.1415C37.9796 49.127 38.2177 49.2591 38.4444 49.3855C38.6519 49.5022 38.8699 49.6218 39.0318 49.5907C39.1869 49.5586 39.3395 49.374 39.4892 49.1903C39.6571 48.9847 39.8327 48.7733 40.0654 48.6963C40.2982 48.6194 40.5661 48.6874 40.8226 48.7496C41.0484 48.806 41.2847 48.8652 41.4285 48.7986C41.577 48.7271 41.6779 48.5021 41.7779 48.2837C41.8846 48.0472 41.9971 47.7992 42.1964 47.6694C42.4006 47.5348 42.6734 47.5309 42.9367 47.5269C43.1713 47.5229 43.4154 47.5189 43.5372 47.4147C43.6609 47.3068 43.7015 47.0633 43.7393 46.8304C43.781 46.5706 43.8236 46.3042 43.9838 46.1234C44.144 45.9427 44.4055 45.8658 44.6593 45.7947C44.8863 45.7293 45.122 45.661 45.2122 45.5289C45.3043 45.393 45.278 45.1494 45.2545 44.9143C45.2282 44.6515 45.2029 44.3819 45.3095 44.1645C45.4162 43.9472 45.651 43.8089 45.8772 43.6734C46.0794 43.5523 46.2893 43.4254 46.3442 43.2731C46.3961 43.1217 46.3104 42.8913 46.2275 42.6695C46.1332 42.4227 46.0389 42.1664 46.0882 41.9296C46.1375 41.6929 46.3255 41.4998 46.5087 41.3115C46.6756 41.1413 46.8463 40.9635 46.8562 40.8005C46.867 40.6403 46.7247 40.4414 46.5882 40.2501C46.4345 40.0357 46.275 39.8137 46.2611 39.5691C46.2463 39.3312 46.3779 39.0928 46.5037 38.8659C46.6199 38.6582 46.739 38.4399 46.7078 38.2777C46.6784 38.1213 46.491 37.9692 46.3075 37.819C46.102 37.6505 45.8908 37.4743 45.8137 37.241C45.7366 37.0077 45.8041 36.7394 45.8658 36.4826C45.9218 36.2564 45.9806 36.0198 45.9139 35.8757C45.8423 35.7268 45.6176 35.6254 45.3995 35.5249C45.1632 35.4177 44.9155 35.3047 44.7857 35.1048C44.6511 34.9001 44.6468 34.6268 44.6425 34.363C44.6382 34.1281 44.6339 33.8835 44.5297 33.7614C44.4218 33.6373 44.1787 33.5962 43.9462 33.5581C43.6868 33.516 43.4207 33.473 43.2401 33.3122C43.0595 33.1515 42.9824 32.8894 42.9111 32.6351C42.8455 32.4076 42.777 32.1714 42.6451 32.0808C42.5103 31.9912 42.2661 32.0144 42.0315 32.0376C41.7692 32.0636 41.5001 32.0887 41.283 31.9815C41.0688 31.8734 40.9275 31.639 40.792 31.4122C40.6708 31.2094 40.5439 30.999 40.3918 30.9439C40.2406 30.8916 40.0107 30.9772 39.7894 31.0599C39.5422 31.1512 39.2874 31.2482 39.051 31.1985C38.8147 31.1488 38.6217 30.9602 38.4334 30.7764C38.2633 30.609 38.0856 30.4377 37.9229 30.4276C37.763 30.4166 37.5646 30.5588 37.3738 30.6953C37.16 30.8491 36.9386 31.0085 36.6945 31.0221C36.457 31.0367 36.2189 30.9045 35.9922 30.7782C35.7847 30.6615 35.5667 30.5418 35.4048 30.573C35.2487 30.6022 35.0971 30.7897 34.9474 30.9733C34.7795 31.179 34.6049 31.3932 34.3721 31.4702C34.1393 31.5471 33.8714 31.4791 33.614 31.414C33.3882 31.3577 33.1519 31.2984 33.0081 31.3651C32.8596 31.4365 32.7587 31.6616 32.6587 31.8799C32.552 32.1165 32.4395 32.3645 32.2402 32.4943C32.036 32.6288 31.7632 32.6328 31.4999 32.6367C31.2653 32.6407 31.0212 32.6448 30.8994 32.7489C30.7757 32.8569 30.7351 33.1003 30.6973 33.3333C30.6556 33.593 30.613 33.8595 30.4528 34.0402C30.2926 34.221 30.0302 34.2949 29.7773 34.3689C29.5503 34.4344 29.3146 34.5027 29.2244 34.6347C29.1351 34.7696 29.1586 35.0143 29.1821 35.2493C29.2084 35.5122 29.2337 35.7817 29.1271 35.9991C29.0204 36.2165 28.7856 36.3548 28.5594 36.4902C28.3572 36.6114 28.1473 36.7382 28.0924 36.8905C28.0405 37.0419 28.1262 37.2723 28.2091 37.4941C28.3005 37.7419 28.3977 37.9973 28.3484 38.234C28.2991 38.4707 28.1111 38.6638 27.9279 38.8522C27.761 39.0224 27.5903 39.2002 27.5804 39.3632C27.5696 39.5233 27.7118 39.7223 27.8484 39.9136C28.0021 40.1279 28.1616 40.35 28.1755 40.5946C28.1903 40.8325 28.0587 41.0708 27.9329 41.2977C27.8167 41.5055 27.6976 41.7237 27.7288 41.8859C27.7582 42.0423 27.9456 42.1945 28.1291 42.3447C28.3346 42.5131 28.5458 42.6893 28.6229 42.9226C28.7 43.1559 28.6325 43.4242 28.5708 43.681C28.5148 43.9072 28.456 44.1439 28.5227 44.288C28.5942 44.4368 28.82 44.5411 29.0371 44.6387C29.2734 44.7459 29.5211 44.8589 29.6509 45.0588C29.7855 45.2635 29.7898 45.5368 29.7941 45.8006C29.7984 46.0356 29.8027 46.2801 29.9069 46.4023C30.0148 46.5263 30.2579 46.5674 30.4904 46.6055C30.7498 46.6476 31.0158 46.6907 31.1965 46.8514C31.3771 47.0121 31.4542 47.2742 31.5255 47.5286C31.5911 47.7561 31.6596 47.9922 31.7915 48.0828C31.9273 48.1753 32.1705 48.1492 32.4051 48.126C32.6674 48.1 32.9365 48.075 33.1536 48.1821C33.3707 48.2893 33.5091 48.5247 33.6446 48.7514C33.7658 48.9542 33.8927 49.1646 34.0448 49.2198C34.196 49.2721 34.4259 49.1865 34.6472 49.1038C34.8934 49.0096 35.1492 48.9155 35.3856 48.9652C35.6219 49.0148 35.8149 49.2034 36.0032 49.3872C36.1733 49.5546 36.351 49.7259 36.5137 49.736C36.6736 49.7471 36.8691 49.6058 37.0628 49.4683C37.2229 49.3547 37.3878 49.2363 37.563 49.1784Z" fill="#4A5161"/>
<path d="M33.3375 44.4852C33.2283 44.5213 33.101 44.4931 33.0189 44.3988C32.6463 43.9852 32.3217 43.5238 32.0555 43.0272C30.4204 39.9607 31.3771 36.2485 34.1839 34.749C36.9907 33.2494 40.6031 34.5251 42.2382 37.5916C42.3317 37.7683 42.4204 37.9499 42.4966 38.1323C42.5633 38.286 42.4912 38.4632 42.3379 38.5298C42.1808 38.5945 42.0076 38.5239 41.9409 38.3703C41.8704 38.2051 41.7903 38.0399 41.7044 37.8766C40.2277 35.106 36.9836 33.9418 34.4691 35.2841C31.9575 36.6253 31.1125 39.9715 32.5893 42.7421C32.8316 43.1956 33.1275 43.6185 33.4648 43.9926C33.5765 44.1186 33.5695 44.3095 33.4439 44.4213C33.416 44.4528 33.3777 44.4719 33.3375 44.4852Z" fill="white"/>
<path d="M33.3854 44.6294C33.2159 44.6855 33.0274 44.636 32.907 44.5032C32.5249 44.08 32.1936 43.6081 31.9236 43.0999C31.1165 41.5839 30.8958 39.8646 31.3104 38.2644C31.7232 36.6584 32.7193 35.3612 34.1155 34.6186C35.5108 33.8731 37.1394 33.7661 38.7026 34.3197C40.262 34.8714 41.5656 36.0092 42.3727 37.5251C42.4671 37.7047 42.5577 37.8921 42.6378 38.0764C42.7359 38.306 42.6301 38.5742 42.3983 38.6731C42.1607 38.774 41.9014 38.6648 41.8023 38.4324C41.7337 38.273 41.6574 38.1097 41.5735 37.9522C40.1378 35.2575 36.9827 34.1214 34.5438 35.4227C32.105 36.7239 31.29 39.9772 32.7266 42.6747C32.9632 43.1205 33.2515 43.53 33.583 43.8964C33.7502 44.084 33.7363 44.3697 33.5531 44.5389C33.5023 44.578 33.4458 44.6095 33.3854 44.6294ZM35.072 34.5325C34.7933 34.6246 34.5193 34.7407 34.2567 34.8818C32.9372 35.5863 31.9948 36.8146 31.6023 38.3373C31.2088 39.8666 31.4192 41.5063 32.191 42.954C32.4504 43.4401 32.7664 43.8948 33.1323 44.2978C33.1868 44.3564 33.2854 44.3654 33.3458 44.3071C33.4072 44.2517 33.4131 44.1539 33.3548 44.0932C33.008 43.7095 32.7054 43.276 32.4564 42.812C30.9396 39.9684 31.8115 36.5302 34.396 35.1489C36.9814 33.7704 40.3202 34.9608 41.8341 37.8053C41.9238 37.9706 42.0029 38.1425 42.0744 38.3105C42.1068 38.3893 42.1939 38.4212 42.2763 38.3908C42.3127 38.3756 42.3414 38.3469 42.354 38.3076C42.3703 38.2703 42.3694 38.229 42.3542 38.1925C42.2798 38.0158 42.1921 37.8372 42.1005 37.6662C41.3278 36.2155 40.0825 35.1288 38.5958 34.6042C37.4143 34.1832 36.1899 34.163 35.072 34.5325Z" fill="#263238"/>
<path d="M66.3099 79.5705C66.3099 79.5705 77.0378 72.8429 79.5337 68.1843C79.5337 68.1843 80.2876 74.0052 83.1563 76.2518C86.025 78.4985 96.1879 83.5929 98.0373 84.6845C99.8867 85.776 103.589 88.5586 104.322 88.2109C105.058 87.8623 106.022 83.7099 106.374 82.5266C106.726 81.3462 107.691 80.35 107.345 78.6562C106.998 76.9596 106.007 77.1817 105.783 77.789C105.56 78.3963 104.076 80.5513 102.958 81.3456C101.841 82.1399 100.641 83.0347 100.641 83.0347C100.641 83.0347 96.259 79.9018 92.3732 75.8605C88.4873 71.8191 83.116 63.5916 81.7481 62.0182C80.3782 60.4486 79.0383 60.2525 77.6015 60.7274C76.1646 61.2023 71.5666 62.722 64.6938 68.9326C57.8211 75.1432 59.2507 78.5044 60.4311 79.5008C61.6096 80.501 63.8757 80.9245 66.3099 79.5705Z" fill="#4592D0"/>
<path d="M104.346 88.3691C103.748 88.5666 102.176 87.5718 99.8668 86.0443C99.1564 85.5731 98.4833 85.1279 97.9611 84.8212C97.439 84.5146 96.2522 83.8845 94.7488 83.0875C90.9195 81.0593 85.1316 77.9948 83.0668 76.377C80.6072 74.452 79.6898 70.0461 79.4512 68.6394C76.6299 73.249 66.8163 79.4348 66.3917 79.703C66.3888 79.7039 66.386 79.7049 66.384 79.7087C63.903 81.0846 61.5593 80.6579 60.3349 79.625C60.03 79.3679 59.3201 78.6186 59.2941 77.2087C59.2655 75.5984 60.1629 72.8355 64.5952 68.8275C71.4919 62.593 76.0554 61.0848 77.5555 60.589C79.2194 60.0391 80.5905 60.4645 81.8638 61.9254C82.3252 62.4533 83.2237 63.7154 84.3637 65.313C86.6992 68.5889 89.8987 73.0711 92.4841 75.7628C96.0116 79.4338 99.9991 82.3842 100.642 82.8523C100.941 82.6289 101.94 81.8898 102.871 81.2272C103.968 80.4463 105.434 78.3037 105.643 77.7395C105.771 77.3937 106.096 77.1713 106.435 77.1964C106.671 77.2144 107.242 77.3898 107.496 78.6316C107.749 79.8705 107.34 80.7343 106.942 81.5654C106.779 81.9102 106.624 82.2328 106.521 82.5768C106.454 82.8 106.364 83.1335 106.258 83.5264C105.62 85.9065 104.994 88.0652 104.388 88.3519C104.374 88.3596 104.36 88.3643 104.346 88.3691ZM79.4868 68.043C79.5098 68.0354 79.5375 68.0326 79.5615 68.0375C79.6256 68.0483 79.6753 68.1021 79.6838 68.1664C79.6904 68.2249 80.4646 73.9528 83.2482 76.1349C85.2919 77.7373 91.0645 80.7941 94.8862 82.8185C96.3934 83.6174 97.587 84.2484 98.1139 84.5599C98.6407 84.8713 99.3177 85.3185 100.032 85.7917C101.537 86.7863 103.815 88.2887 104.259 88.0782C104.791 87.8258 105.585 84.8668 105.967 83.4468C106.075 83.0501 106.165 82.7138 106.231 82.4905C106.34 82.1255 106.508 81.776 106.668 81.4389C107.044 80.6499 107.432 79.835 107.198 78.6949C107.049 77.9742 106.755 77.5283 106.412 77.5013C106.209 77.4853 106.008 77.6285 105.927 77.8469C105.703 78.4513 104.207 80.6484 103.049 81.4752C101.945 82.2619 100.747 83.1528 100.735 83.1633C100.681 83.2034 100.611 83.2042 100.557 83.1647C100.512 83.1348 96.1178 79.977 92.2664 75.9722C89.6638 73.267 86.4595 68.7703 84.1164 65.4906C82.9821 63.9007 82.0855 62.6444 81.6337 62.126C80.4329 60.7498 79.2054 60.3632 77.6479 60.878C76.1621 61.369 71.6446 62.8621 64.7939 69.0526C60.4441 72.9821 59.5641 75.6531 59.5918 77.203C59.6143 78.4862 60.2515 79.1605 60.5258 79.3925C61.6709 80.3591 63.8749 80.7488 66.2295 79.4435C66.4719 79.2899 76.9642 72.6593 79.3995 68.1166C79.4197 68.0812 79.4523 68.0544 79.4868 68.043ZM66.3106 79.5732L66.3135 79.5723L66.3106 79.5732Z" fill="#263238"/>
<path d="M107.347 78.6586C107 76.962 106.009 77.1841 105.785 77.7914C105.562 78.3988 104.078 80.5537 102.96 81.348C101.843 82.1423 100.643 83.0371 100.643 83.0371C100.643 83.0371 97.2293 80.5969 93.7567 77.2464C93.262 79.183 92.2277 80.4321 91.4308 81.146C94.3964 82.7408 97.1594 84.1662 98.0392 84.6869C99.8886 85.7785 103.591 88.561 104.324 88.2133C105.06 87.8647 106.024 83.7123 106.376 82.529C106.731 81.3477 107.697 80.3544 107.347 78.6586Z" fill="#FEDEA5"/>
<path d="M104.346 88.3687C103.748 88.5663 102.176 87.5715 99.867 86.044C99.1566 85.5727 98.4835 85.1275 97.9614 84.8209C97.4392 84.5142 96.2486 83.8822 94.7413 83.0833C93.7209 82.542 92.5551 81.9273 91.3597 81.2809C91.3166 81.2568 91.287 81.2155 91.2804 81.1666C91.2738 81.1176 91.293 81.0697 91.3295 81.0353C92.0986 80.3435 93.1223 79.1202 93.6103 77.2113C93.6248 77.1586 93.666 77.1195 93.7149 77.1033C93.7675 77.0891 93.823 77.1027 93.8613 77.1412C96.9774 80.1463 100.08 82.4435 100.639 82.8529C100.938 82.6295 101.937 81.8904 102.869 81.2278C103.965 80.4469 105.431 78.3043 105.64 77.7401C105.768 77.3943 106.093 77.1719 106.433 77.197C106.668 77.215 107.239 77.3904 107.494 78.6322C107.747 79.8711 107.337 80.7349 106.939 81.566C106.776 81.9108 106.621 82.2334 106.518 82.5774C106.452 82.8006 106.361 83.1341 106.255 83.527C105.617 85.9071 104.992 88.0658 104.385 88.3525C104.374 88.3592 104.36 88.364 104.346 88.3687ZM91.6902 81.1142C92.8216 81.721 93.9157 82.3019 94.8845 82.8123C96.3955 83.6132 97.5891 84.2442 98.116 84.5557C98.6429 84.8672 99.3198 85.3143 100.034 85.7875C101.539 86.7821 103.817 88.2845 104.261 88.074C104.793 87.8216 105.587 84.8627 105.969 83.4426C106.077 83.0459 106.167 82.7096 106.233 82.4863C106.342 82.1213 106.51 81.7718 106.67 81.4347C107.047 80.6457 107.434 79.8308 107.2 78.6907C107.052 77.97 106.758 77.5241 106.414 77.4971C106.211 77.4811 106.01 77.6243 105.929 77.8427C105.705 78.4471 104.209 80.6442 103.051 81.471C101.947 82.2577 100.749 83.1487 100.737 83.1592C100.683 83.1993 100.613 83.2 100.559 83.1605C100.525 83.1364 97.2194 80.7627 93.8404 77.5314C93.3413 79.2522 92.4325 80.4088 91.6902 81.1142Z" fill="#263238"/>
<path d="M39.5197 47.7174C39.5197 47.7174 41.6408 49.9013 42.0606 50.6986C42.4803 51.496 41.6602 52.3133 40.7469 52.8484C39.8336 53.3834 38.1048 53.3318 37.1422 55.5988C36.1797 57.8657 34.9251 66.7816 34.7569 68.163C34.5915 69.5435 35.4775 70.3433 36.9274 69.551C38.3773 68.7587 40.7031 61.9072 40.7031 61.9072C40.7031 61.9072 47.8925 66.4733 48.9655 67.5978C50.0394 68.7252 50.5702 71.0449 51.1995 73.4119C51.8259 75.7799 52.59 79.2684 55.5998 81.315C58.6095 83.3617 63.2854 82.6757 66.3068 79.5686C69.3263 76.4653 71.0997 68.6079 68.4614 66.5183C65.8251 64.4249 61.4492 64.408 59.4199 62.2705C57.3905 60.133 57.3417 58.5965 56.4822 55.9957C55.6226 53.3949 53.9398 50.2324 53.9398 50.2324C53.9398 50.2324 59.4988 46.7978 66.1736 43.5279C68.4943 42.3902 66.0622 40.1335 64.4742 40.0354C62.4823 39.911 54.9619 43.3038 52.7716 43.8041C49.6101 44.5295 48.2571 45.6827 47.7187 46.4069C47.1803 47.1312 46.5016 48.135 45.7057 48.3214C44.9098 48.5078 42.8151 44.9862 42.8151 44.9862C42.8151 44.9862 41.3422 47.3483 39.5197 47.7174Z" fill="#F37630"/>
<path d="M62.4587 82.1527C60.0476 82.9496 57.4536 82.759 55.5166 81.4408C52.6263 79.4761 51.7794 76.229 51.1607 73.8553L50.8927 72.8321C50.3376 70.7089 49.811 68.701 48.8594 67.7024C47.9011 66.6933 41.8591 62.8215 40.7882 62.1371C40.3993 63.256 38.3687 68.9365 37.0021 69.6821C36.2805 70.0739 35.6295 70.1198 35.1725 69.8076C34.7241 69.5021 34.5175 68.8963 34.6089 68.1409C34.7538 66.9301 36.0211 57.8503 37.0029 55.5354C37.7481 53.778 38.9293 53.3685 39.8757 53.0397C40.1736 52.9381 40.4505 52.8402 40.67 52.7133C41.0782 52.473 42.376 51.6255 41.9258 50.7648C41.5223 49.9972 39.4317 47.8384 39.4088 47.8173C39.3706 47.7788 39.3573 47.7193 39.3718 47.6666C39.3891 47.6129 39.4303 47.5737 39.4868 47.5614C41.225 47.2074 42.673 44.9238 42.6883 44.9028C42.7152 44.8587 42.767 44.8321 42.8177 44.8313C42.8694 44.8333 42.9191 44.8584 42.9468 44.9036C43.9488 46.5851 45.2438 48.2657 45.6738 48.1683C46.3461 48.0132 46.9642 47.1731 47.4623 46.5005L47.6005 46.3111C48.0977 45.6452 49.424 44.4114 52.7396 43.651C53.5604 43.4628 55.1919 42.8437 56.9192 42.1866C59.8708 41.0673 63.2161 39.7987 64.4844 39.8747C65.5517 39.9405 67.0404 40.9532 67.2556 42.0386C67.3486 42.503 67.2478 43.1625 66.2407 43.6551C60.183 46.622 54.9865 49.7643 54.1402 50.2804C54.4616 50.8962 55.8685 53.6484 56.6262 55.941C56.8147 56.5112 56.9612 57.0219 57.1048 57.5143C57.607 59.2556 57.9693 60.516 59.5324 62.1591C60.5643 63.2461 62.2233 63.7712 63.9789 64.3283C65.5996 64.8437 67.273 65.3737 68.5568 66.3934C69.3253 67.002 69.7827 68.116 69.8795 69.6143C70.0962 72.9706 68.5436 77.4836 66.4161 79.6691C65.2891 80.8403 63.907 81.674 62.4587 82.1527ZM40.6587 61.7646C40.7018 61.7503 40.7487 61.7572 40.7879 61.7794C41.0824 61.9664 48.0041 66.3685 49.078 67.496C50.0841 68.5532 50.6192 70.5967 51.1848 72.7611L51.4528 73.7843C52.0592 76.1109 52.8909 79.2928 55.6865 81.193C58.6676 83.2204 63.2871 82.4604 66.2001 79.4689C68.2422 77.3723 69.7872 72.8747 69.5778 69.6469C69.4848 68.2368 69.0684 67.1988 68.3687 66.6441C67.1289 65.6609 65.4804 65.1387 63.8884 64.633C62.0935 64.0633 60.3981 63.5246 59.3128 62.3818C57.7 60.6849 57.3091 59.3285 56.8145 57.6103C56.6719 57.1207 56.5263 56.6129 56.3398 56.0484C55.4935 53.488 53.8251 50.3399 53.8089 50.3101C53.7726 50.239 53.7948 50.1518 53.8638 50.1098C53.9194 50.0755 59.5051 46.6352 66.111 43.3977C66.7808 43.0709 67.0678 42.6373 66.9645 42.1124C66.7757 41.1653 65.4123 40.2517 64.4714 40.1921C63.2672 40.1173 59.8088 41.4296 57.0306 42.4852C55.2181 43.1737 53.6518 43.768 52.8099 43.96C49.5862 44.6996 48.3165 45.8732 47.8433 46.5056L47.7042 46.6922C47.1782 47.4059 46.5246 48.2928 45.7431 48.4744C44.9587 48.657 43.3542 46.1651 42.8111 45.2743C42.4252 45.8331 41.2601 47.3715 39.8061 47.8041C40.3335 48.3582 41.8364 49.9541 42.1912 50.6323C42.5795 51.373 42.0695 52.2508 40.8198 52.9833C40.5763 53.1244 40.2822 53.228 39.9738 53.3364C39.081 53.6442 37.9717 54.03 37.2784 55.6648C36.3091 57.95 35.0514 66.9819 34.9046 68.1869C34.8278 68.8225 34.9848 69.3265 35.3376 69.5645C35.699 69.8093 36.2371 69.7592 36.8533 69.4246C37.9611 68.822 39.7599 64.2149 40.558 61.865C40.5791 61.8132 40.6127 61.7798 40.6587 61.7646Z" fill="#263238"/>
<path d="M56.0683 42.6786C55.8729 42.7527 55.6804 42.826 55.4926 42.8944C55.856 44.1289 56.6784 46.087 58.4428 47.606C58.6258 47.504 58.8165 47.3962 59.0072 47.2885C57.2389 45.8442 56.4213 43.8718 56.0683 42.6786Z" fill="#263238"/>
<path d="M58.6244 61.3217C58.4993 61.1553 58.3838 60.9891 58.2788 60.8257C54.2507 63.2304 51.5051 67.2687 50.1259 69.6829C50.2173 69.9307 50.302 70.187 50.3877 70.4558C51.626 68.184 54.4123 63.816 58.6244 61.3217Z" fill="#263238"/>
<path d="M48.1476 66.9089C48.335 67.0515 48.5032 67.1844 48.6399 67.2989C49.5124 65.5889 51.8985 61.7653 57.1409 58.1733C57.0809 57.9727 57.021 57.7625 56.9611 57.5522C51.5626 61.183 49.097 65.0553 48.1476 66.9089Z" fill="#263238"/>
<path d="M40.702 58.7215C41.6966 58.2682 46.3689 55.8933 51.991 48.9076C52.9141 49.8198 53.6931 50.4217 53.762 50.4756C53.8432 50.5382 53.9504 50.5539 54.0424 50.5235C54.0567 50.5187 54.073 50.5102 54.0864 50.5025C53.9987 50.3335 53.9472 50.2355 53.9472 50.2355C53.9472 50.2355 54.0373 50.1801 54.204 50.0771C54.184 50.0454 54.162 50.0175 54.1314 49.9925C54.097 49.9655 50.8545 47.4654 49.748 44.8504C49.5563 44.9457 49.3752 45.0439 49.2133 45.1422C49.4354 45.6502 49.7254 46.1518 50.0548 46.6276C45.9563 52.359 40.8844 54.933 39.4912 55.5595C39.1001 54.8582 38.7057 54.3112 38.3943 53.9285C38.239 54.0469 38.0856 54.1807 37.9379 54.3414C38.2053 54.6779 38.5433 55.1508 38.8839 55.7475C38.4068 55.4515 37.8816 55.2609 37.3687 55.1365C37.2918 55.2801 37.214 55.4304 37.1448 55.5971C37.1304 55.6306 37.1169 55.667 37.1025 55.7005C38.0584 55.9117 39.0685 56.3733 39.6382 57.3448C39.8382 57.8633 40.0143 58.4345 40.1462 59.0554C39.483 58.3992 38.3128 57.5879 36.5638 57.5526C36.5185 57.7433 36.4731 57.9436 36.4287 58.1467C39.0834 58.1255 40.2285 60.0665 40.2953 60.1818C40.3087 60.2029 40.324 60.2202 40.3421 60.2366C40.3788 60.5695 40.4021 60.91 40.4081 61.2658C39.6395 60.7052 38.0607 59.8149 36.0441 60.0309C36.0064 60.2351 35.9658 60.4402 35.9291 60.6472C38.2962 60.2962 39.9977 61.6635 40.4029 62.0311C40.3966 62.2919 40.3942 62.5451 40.3909 62.7954C40.5901 62.2504 40.7075 61.9017 40.7075 61.9017C40.7075 61.9017 40.8165 61.9711 41.0059 62.0906C41.0079 62.0292 41.008 61.9717 41.01 61.9103C41.0467 60.7385 40.9204 59.6716 40.702 58.7215ZM50.4234 47.1447C50.7882 47.6216 51.1779 48.0678 51.563 48.4709C46.2201 55.1247 41.6567 57.5881 40.5452 58.1216C40.4663 57.8442 40.3787 57.5792 40.2882 57.3248C40.2854 57.2874 40.275 57.2461 40.2569 57.2106C40.2492 57.1971 40.2416 57.1837 40.233 57.1673C40.0873 56.7842 39.9309 56.4269 39.7688 56.1004C41.2587 55.4194 46.3068 52.8214 50.4234 47.1447Z" fill="#263238"/>
<path d="M60.9448 63.3561C60.7411 63.2509 60.546 63.1429 60.3595 63.0224C55.8313 66.1036 52.8243 70.2571 51.1282 73.1306C51.1529 73.2247 51.1777 73.3187 51.2024 73.4128C51.248 73.5894 51.2965 73.7747 51.3449 73.9599C52.9653 71.0986 56.0746 66.5791 60.9448 63.3561Z" fill="#263238"/>
<path d="M56.2761 55.3921C56.2075 55.2039 56.1351 55.0138 56.0627 54.8237C48.8181 57.6525 46.4346 62.6414 45.6688 65.1564C45.8457 65.2768 46.0187 65.3953 46.1908 65.511C46.8461 63.2018 49.0554 58.2162 56.2761 55.3921Z" fill="#263238"/>
<path d="M59.8525 41.2614C59.6561 41.3327 59.4597 41.404 59.2604 41.4763C59.4954 42.7564 60.0561 44.4432 61.3484 46.0096C61.5296 45.9114 61.7145 45.8151 61.9014 45.715C60.6109 44.1831 60.0732 42.4983 59.8525 41.2614Z" fill="#263238"/>
<path d="M52.0073 44.0014C52.7035 45.3942 53.9337 47.4572 55.758 49.1481C55.9315 49.0461 56.1155 48.9373 56.3081 48.8257C54.541 47.2309 53.3194 45.2226 52.6117 43.8432C52.4058 43.8953 52.2027 43.9464 52.0073 44.0014Z" fill="#263238"/>
<path d="M54.9864 52.3391C54.8968 52.1451 54.8081 51.9636 54.7251 51.7897C46.7072 55.5578 43.6881 60.4948 42.6014 63.1286C42.7725 63.2414 42.9504 63.3551 43.1339 63.4765C44.1629 60.9864 47.1026 56.0597 54.9864 52.3391Z" fill="#263238"/>
<path d="M66.3103 79.5703C68.809 77.0034 70.4521 71.1826 69.4509 68.0664C69.2366 67.4854 68.9245 67.004 68.5039 66.667C68.1483 66.3819 67.763 66.094 67.3606 65.8021C66.0657 65.1055 64.551 64.6892 63.135 64.2243C57.5866 68.7129 54.1003 75.2068 52.6442 77.7646C53.2859 79.0892 54.1968 80.36 55.6033 81.3168C58.613 83.3635 63.2889 82.6775 66.3103 79.5703Z" fill="#4592D0"/>
<path d="M62.4584 82.1528C60.0473 82.9497 57.4533 82.7591 55.5163 81.4409C54.2504 80.5814 53.2637 79.3996 52.5056 77.8291C52.4847 77.785 52.4857 77.7303 52.5097 77.6872L52.7815 77.2076C54.4067 74.3319 57.7858 68.3527 63.038 64.1058C63.0783 64.0733 63.129 64.0629 63.1797 64.0813C63.4409 64.1675 63.704 64.2499 63.971 64.3341C65.1468 64.7091 66.3648 65.0956 67.4311 65.6697C67.8919 66.003 68.2685 66.2843 68.5954 66.55C69.0208 66.8918 69.3559 67.3849 69.5893 68.0138C70.5962 71.1473 68.9922 77.0287 66.4158 79.6788C65.2888 80.8404 63.9068 81.6741 62.4584 82.1528ZM52.814 77.7688C53.5436 79.2528 54.4844 80.3731 55.6881 81.1893C58.6692 83.2167 63.2888 82.4566 66.2018 79.4652C68.7167 76.8801 70.2822 71.152 69.3057 68.1107C69.0943 67.5384 68.7907 67.0925 68.4083 66.7844C68.0833 66.5244 67.7134 66.2441 67.2726 65.9233C66.2455 65.3715 65.0448 64.9888 63.8804 64.6196C63.6413 64.5422 63.403 64.4675 63.1667 64.3891C57.9969 68.596 54.6563 74.5082 53.0493 77.3523L52.814 77.7688Z" fill="#4592D0"/>
<path d="M33.3554 43.3037C33.2338 43.3503 33.1207 43.4132 33.0171 43.4953C32.1773 44.1467 32.2663 45.6699 33.2175 46.8986C34.1658 48.1283 35.6153 48.5981 36.4561 47.9496C36.6334 47.8111 36.7668 47.636 36.862 47.4321L33.3554 43.3037Z" fill="white"/>
<path d="M36.0936 48.3097C35.7229 48.4322 35.2892 48.4222 34.829 48.274C34.1899 48.0667 33.5743 47.6121 33.0949 46.991C32.6164 46.3728 32.3334 45.6612 32.2926 44.9879C32.2508 44.2924 32.4759 43.7197 32.9227 43.3739C33.0368 43.2851 33.1632 43.2146 33.2993 43.1632C33.3596 43.1433 33.4276 43.1559 33.4696 43.206L36.9723 47.3324C37.0096 47.3776 37.0181 47.4419 36.994 47.4946C36.8835 47.7292 36.7338 47.9224 36.5459 48.0676C36.4088 48.1736 36.2574 48.2556 36.0936 48.3097ZM33.314 43.4874C33.2402 43.5246 33.1741 43.5656 33.1108 43.6153C32.7455 43.8989 32.5637 44.3807 32.599 44.9697C32.6351 45.5807 32.8991 46.2346 33.3393 46.8048C33.7796 47.3749 34.3455 47.7948 34.9272 47.9828C35.4908 48.1639 36.0021 48.1099 36.3645 47.8272C36.491 47.7279 36.5994 47.6026 36.683 47.4504L33.314 43.4874Z" fill="#263238"/>
<path d="M33.3555 43.3042C33.2338 43.3508 33.1207 43.4137 33.0172 43.4958C32.9204 43.5694 32.8379 43.6573 32.7678 43.754L36.4044 47.9864C36.4226 47.9739 36.4417 47.9644 36.459 47.9491C36.6364 47.8106 36.7698 47.6356 36.8649 47.4316L33.3555 43.3042Z" fill="white"/>
<path d="M36.4629 48.1166C36.4025 48.1365 36.3241 48.1305 36.2859 48.0825L32.6493 43.8501C32.6025 43.7953 32.5988 43.7166 32.6439 43.6602C32.7284 43.5492 32.8205 43.4517 32.9221 43.3734C33.0362 43.2845 33.1627 43.214 33.2987 43.1626C33.3591 43.1427 33.427 43.1554 33.469 43.2054L36.9718 47.3318C37.009 47.377 37.0175 47.4413 36.9935 47.494C36.8829 47.7286 36.7332 47.9218 36.5453 48.067C36.53 48.0785 36.5166 48.0861 36.5012 48.0975C36.4878 48.1052 36.4773 48.1119 36.4629 48.1166ZM32.9635 43.7494L36.4205 47.776C36.5259 47.6804 36.6094 47.5762 36.6767 47.4517L33.3105 43.4878C33.2368 43.5249 33.1706 43.566 33.1073 43.6156C33.0565 43.6548 33.0076 43.6997 32.9635 43.7494Z" fill="#263238"/>
<path d="M41.0582 37.548C41.135 37.4428 41.2242 37.3462 41.3287 37.2669C42.1685 36.6156 43.618 37.0854 44.5663 38.315C45.5175 39.5437 45.6065 41.0669 44.7695 41.7174C44.5922 41.8558 44.3871 41.9396 44.1678 41.9801L41.0582 37.548Z" fill="white"/>
<path d="M44.4149 42.0736C44.343 42.0974 44.2693 42.1154 44.1917 42.1314C44.1342 42.1408 44.0759 42.1186 44.0406 42.0696L40.9309 37.6375C40.8946 37.5856 40.8938 37.5156 40.9303 37.462C41.0148 37.3414 41.1174 37.2372 41.2315 37.1484C42.1355 36.4502 43.6836 36.929 44.6825 38.225C45.1609 38.8432 45.4468 39.5538 45.4848 40.2281C45.5266 40.9235 45.3043 41.4953 44.8576 41.8411C44.7282 41.9414 44.5815 42.0186 44.4149 42.0736ZM44.2296 41.8122C44.3972 41.7696 44.5458 41.6981 44.6723 41.5988C45.0376 41.3151 45.2194 40.8333 45.1842 40.2444C45.147 39.6305 44.884 38.9794 44.4438 38.4093C43.547 37.2489 42.1875 36.7909 41.4158 37.3878C41.3525 37.4374 41.294 37.4919 41.2412 37.5541L44.2296 41.8122Z" fill="#263238"/>
<path d="M44.415 42.074C44.3432 42.0978 44.2694 42.1157 44.1919 42.1318C44.1344 42.1412 44.076 42.119 44.0407 42.0699L40.9311 37.6378C40.8948 37.5859 40.894 37.5159 40.9304 37.4623C41.0149 37.3418 41.1175 37.2376 41.2316 37.1487C41.3332 37.0704 41.4483 37.0037 41.5776 36.9513C41.6447 36.9228 41.7193 36.946 41.7613 37.0056L44.9377 41.5914C44.9816 41.6567 44.9718 41.743 44.9114 41.7917C44.8846 41.8166 44.8731 41.83 44.8568 41.8385C44.7283 41.9417 44.5817 42.0189 44.415 42.074ZM44.2298 41.8126C44.3715 41.7785 44.4961 41.7213 44.6082 41.6459L41.5846 37.2813C41.5252 37.3137 41.4667 37.349 41.4159 37.3881C41.3527 37.4378 41.2942 37.4923 41.2414 37.5544L44.2298 41.8126Z" fill="#263238"/>
<path d="M47.0332 47.314C46.6388 47.7894 46.1967 48.207 45.7111 48.3196C44.9152 48.506 42.8206 44.9844 42.8206 44.9844C42.8206 44.9844 41.3438 47.3446 39.5213 47.7137C39.5213 47.7137 41.6424 49.8975 42.0621 50.6949C42.4027 51.3395 41.9285 51.9978 41.2527 52.5087C41.9736 53.4652 43.9782 55.5374 46.8257 53.7561C49.3148 52.2018 48.0541 49.0915 47.0332 47.314Z" fill="#FEDEA5"/>
<path d="M45.7976 54.4176C43.4382 55.1973 41.7853 53.4754 41.1274 52.6034C41.1035 52.5698 41.094 52.5314 41.0969 52.4921C41.1028 52.4518 41.1229 52.4164 41.1565 52.3925C41.5898 52.064 42.2659 51.4188 41.9235 50.7685C41.52 50.0009 39.4294 47.8421 39.4065 47.8209C39.3683 47.7825 39.355 47.723 39.3694 47.6703C39.3868 47.6166 39.428 47.5774 39.4845 47.5651C41.2227 47.2111 42.6706 44.9275 42.686 44.9065C42.7129 44.8624 42.7646 44.8357 42.8154 44.8349C42.8671 44.837 42.9168 44.8621 42.9445 44.9073C43.9465 46.5888 45.2415 48.2694 45.6715 48.172C46.0469 48.083 46.4438 47.7793 46.9111 47.216C46.9428 47.1768 46.9907 47.1577 47.0395 47.1608C47.0883 47.1638 47.1332 47.1937 47.1571 47.2369C48.18 49.0202 49.5093 52.2516 46.8966 53.885C46.518 54.1284 46.151 54.3008 45.7976 54.4176ZM41.4625 52.5374C42.2323 53.5065 44.1188 55.2696 46.742 53.6294C49.0538 52.1849 47.9583 49.2947 47.0081 47.5769C46.6905 47.9374 46.2503 48.3513 45.7437 48.4676C44.9593 48.6502 43.3547 46.1582 42.8117 45.2675C42.4258 45.8263 41.2607 47.3647 39.8067 47.7973C40.3341 48.3514 41.8369 49.9473 42.1918 50.6255C42.5085 51.2269 42.2468 51.9012 41.4625 52.5374Z" fill="#FEDEA5"/>
<path d="M44.149 46.9698C43.8196 46.5324 43.5036 46.0682 43.263 45.6972C43.0968 45.4934 42.9326 45.2761 42.7712 45.0579C42.5177 45.4387 41.1614 47.3822 39.5151 47.7154C39.5151 47.7154 40.2317 48.4562 40.9148 49.2304C41.6596 49.2078 42.6651 49.048 43.2866 48.4113C43.6799 48.0098 43.9547 47.4813 44.149 46.9698Z" fill="#263238"/>
<path d="M42.3236 49.1538C41.8465 49.3115 41.3419 49.3665 40.9226 49.3805C40.8785 49.3822 40.8336 49.362 40.804 49.3302C40.1305 48.5656 39.4149 47.8277 39.4091 47.82C39.3709 47.7816 39.3576 47.7221 39.3721 47.6694C39.3894 47.6157 39.4306 47.5765 39.4872 47.5642C41.0712 47.2452 42.3949 45.3477 42.6464 44.9706C42.6742 44.9295 42.7202 44.9047 42.771 44.9039C42.8217 44.9031 42.8676 44.9263 42.8963 44.9647C43.0653 45.1964 43.2286 45.4108 43.3824 45.5964C43.6935 46.075 43.9971 46.5114 44.2693 46.8719C44.3018 46.9122 44.3074 46.9679 44.292 47.0177C44.0534 47.6461 43.7538 48.1476 43.4018 48.51C43.0996 48.8207 42.7201 49.0228 42.3236 49.1538ZM40.9844 49.0757C41.6891 49.0473 42.6141 48.8853 43.181 48.305C43.4899 47.9857 43.7587 47.5454 43.9752 46.9946C43.6448 46.5543 43.3364 46.094 43.1341 45.7807C43.0233 45.648 42.901 45.4903 42.775 45.3211C42.3603 45.9086 41.2183 47.3818 39.8045 47.8012C40.0558 48.06 40.5268 48.5592 40.9844 49.0757Z" fill="#263238"/>
<path d="M33.2182 42.3107C33.2182 42.3107 35.5955 46.2053 36.668 47.0968C37.7413 47.9912 40.7081 48.4898 41.9473 48.2368C43.1866 47.9838 43.5403 46.228 43.8464 44.8009C44.1526 43.3739 44.0368 42.3196 43.2469 40.8651C42.4541 39.4115 40.7302 37.253 39.5873 36.1483C38.8467 35.4315 36.4117 35.2491 34.6088 36.3912C32.8059 37.5334 32.1241 40.1772 33.2182 42.3107Z" fill="#FEDEA5"/>
<path d="M42.157 48.3401C42.0995 48.3591 42.0411 48.3752 41.9778 48.3865C40.6371 48.6603 37.6628 48.1194 36.5731 47.2144C35.4921 46.3162 33.1892 42.5503 33.0918 42.3908C33.0909 42.388 33.087 42.386 33.0851 42.3803C31.9749 40.217 32.6234 37.4724 34.5288 36.2644C36.4189 35.0678 38.9247 35.3003 39.693 36.0432C40.812 37.1238 42.5617 39.293 43.3812 40.7984C44.1578 42.2222 44.3223 43.3179 43.9958 44.8379L43.9775 44.9174C43.6868 46.2754 43.3266 47.9535 42.157 48.3401ZM33.3496 42.2353C33.446 42.392 35.7385 46.1261 36.7631 46.9791C37.7705 47.8186 40.6482 48.3467 41.9143 48.088C43.0319 47.8624 43.3911 46.191 43.6809 44.8493L43.6992 44.7698C44.014 43.3112 43.8608 42.3075 43.1148 40.9375C42.3096 39.4561 40.5847 37.3235 39.4829 36.2564C38.7997 35.5972 36.4335 35.4112 34.692 36.5171C32.9131 37.645 32.3128 40.2075 33.3496 42.2353Z" fill="#263238"/>
<path d="M38.4751 43.3847C38.4665 43.3875 38.4579 43.3904 38.4483 43.3903C38.366 43.4016 38.2904 43.3467 38.2762 43.2651C38.2743 43.2498 38.2195 42.8813 38.4776 42.5724C38.6906 42.3199 39.0422 42.1877 39.5209 42.1797C39.6032 42.178 39.673 42.2444 39.6757 42.3298C39.6774 42.4122 39.6084 42.483 39.526 42.4846C39.1393 42.4911 38.8643 42.5851 38.7108 42.7669C38.541 42.9667 38.5731 43.2181 38.574 43.221C38.5883 43.293 38.5441 43.3619 38.4751 43.3847Z" fill="#263238"/>
<path d="M39.4564 44.9159C38.7725 45.1419 38.1743 45.0297 38.16 45.0248C38.0777 45.0073 38.0262 44.9285 38.0407 44.847C38.0581 44.7646 38.1366 44.7131 38.218 44.7277C38.307 44.7462 40.4181 45.1347 41.0127 42.5358C41.0301 42.4533 41.1125 42.4037 41.1948 42.4213C41.2771 42.4388 41.3267 42.5214 41.3093 42.6038C40.9744 44.0787 40.1691 44.6803 39.4564 44.9159Z" fill="#263238"/>
<path d="M36.3195 43.9594C35.9948 44.0668 35.7517 44.0257 35.7316 44.0228C35.5689 43.9935 35.4591 43.8349 35.4872 43.669C35.5162 43.5061 35.6715 43.3973 35.8333 43.4237C35.8706 43.4305 36.5406 43.4998 37.0548 42.3842C37.126 42.2329 37.3041 42.1644 37.4553 42.2359C37.6064 42.3073 37.675 42.4859 37.6039 42.6372C37.2117 43.4953 36.7075 43.8312 36.3195 43.9594Z" fill="#263238"/>
<path d="M40.0469 41.1177C39.751 41.2155 39.4541 41.2529 39.2244 41.2522C39.0587 41.2526 38.9211 41.116 38.9224 40.9462C38.9218 40.7803 39.058 40.6426 39.2245 40.6451C39.2791 40.6462 40.5686 40.6322 40.6068 39.6771C40.6119 39.5093 40.7538 39.3793 40.9214 39.3846C41.0889 39.39 41.2188 39.5323 41.2137 39.7001C41.1825 40.5123 40.6188 40.9287 40.0469 41.1177Z" fill="#263238"/>
<path d="M34.8999 42.6936C34.8252 42.7183 34.7429 42.6816 34.7124 42.6086C34.6981 42.575 34.3617 41.7597 34.7258 41.0675C34.9478 40.6491 35.3695 40.3723 35.9853 40.2487C36.0658 40.2317 36.147 40.2847 36.1651 40.3682C36.1821 40.4488 36.1322 40.5292 36.046 40.5481C35.5231 40.6538 35.1694 40.8761 34.9936 41.2122C34.6958 41.7771 34.9874 42.4858 34.9903 42.4944C35.0227 42.5731 34.988 42.6613 34.9095 42.6936C34.9085 42.6907 34.9028 42.6926 34.8999 42.6936Z" fill="#263238"/>
<path d="M37.8062 39.2379C37.7717 39.2493 37.7334 39.2492 37.6961 39.2328C37.6205 39.1971 37.5853 39.1097 37.6199 39.0311C37.6257 39.0196 38.2293 37.7307 39.8493 38.109C39.9316 38.1265 39.9812 38.2092 39.9638 38.2916C39.9464 38.374 39.864 38.4236 39.7817 38.4061C38.4 38.0833 37.9002 39.1462 37.8944 39.1577C37.8761 39.1988 37.8435 39.2256 37.8062 39.2379Z" fill="#263238"/>
<path d="M31.4167 45.0932C31.4167 45.0932 31.9275 47.3429 32.3229 47.8351C32.7183 48.3274 35.3098 49.8127 35.8232 50.1893C36.3366 50.5659 36.4284 50.6123 36.1689 52.1804C35.9094 53.7486 32.9448 64.319 33.4527 66.5696C33.9635 68.8192 34.7545 70.7398 36.9289 69.5547C39.1061 68.3687 38.5071 62.0909 38.3981 58.4625C38.2891 54.8342 37.9235 50.198 37.6208 49.2821C37.3191 48.3691 33.6177 47.0654 33.213 46.902C32.8113 46.7377 32.2754 45.5889 32.067 44.9582C31.8595 44.3207 31.5089 44.4366 31.4167 45.0932Z" fill="#FEDEA5"/>
<path d="M36.4157 69.9435C35.9157 70.1087 35.4677 70.1034 35.0774 69.9257C34.0798 69.4727 33.6221 67.9915 33.3078 66.597C32.9214 64.8877 34.4717 58.5833 35.3978 54.8173C35.7084 53.5485 35.9573 52.5462 36.0212 52.1513C36.2633 50.6943 36.205 50.6529 35.7538 50.3196C35.5731 50.1876 35.1801 49.9437 34.723 49.6603C33.7286 49.0433 32.4874 48.2779 32.2057 47.9269C31.7998 47.4221 31.3212 45.3568 31.2699 45.1245C31.2671 45.1063 31.2642 45.088 31.2671 45.0679C31.3273 44.6519 31.4905 44.4031 31.7126 44.3808C31.8333 44.3696 32.0581 44.4231 32.2161 44.9012C32.4674 45.6616 32.9835 46.6347 33.2743 46.7527C33.3155 46.771 33.3949 46.7991 33.5039 46.8397C36.2141 47.8641 37.5701 48.6203 37.77 49.2251C38.0889 50.19 38.4467 54.8894 38.5549 58.4478C38.5703 58.9091 38.5895 59.4107 38.6143 59.9392C38.7731 63.5927 38.9886 68.5947 37.0059 69.6749C36.7999 69.7941 36.6025 69.8817 36.4157 69.9435ZM31.5667 45.0871C31.7139 45.7253 32.134 47.3628 32.4367 47.7387C32.686 48.0493 34.0046 48.8658 34.8776 49.4048C35.3586 49.7026 35.7353 49.9359 35.9084 50.064C36.5049 50.4994 36.5716 50.6627 36.3151 52.2011C36.2482 52.6066 35.9984 53.6156 35.6868 54.8911C34.7684 58.6322 33.2287 64.8916 33.599 66.5327C33.8819 67.7746 34.3157 69.251 35.1995 69.649C35.6529 69.8537 36.1949 69.7768 36.8571 69.4174C38.6749 68.4268 38.4601 63.5332 38.306 59.9613C38.2831 59.4289 38.2601 58.9254 38.2476 58.4631C38.1313 54.6103 37.7568 50.1688 37.4779 49.3249C37.3655 48.985 36.5645 48.3265 33.3923 47.129C33.2823 47.0855 33.1991 47.0555 33.1551 47.0381C32.6653 46.8389 32.1124 45.5808 31.9202 44.999C31.8354 44.7427 31.7494 44.6849 31.7302 44.6848C31.712 44.6877 31.6181 44.7698 31.5667 45.0871Z" fill="#263238"/>
<path d="M38.3992 58.4584C38.3884 58.0978 38.3748 57.7285 38.3592 57.3535L34.9783 57.1642C34.1089 60.7837 33.1433 65.2017 33.4538 66.5655C33.9646 68.8151 34.7556 70.7357 36.9299 69.5506C39.1072 68.3646 38.5092 62.0896 38.3992 58.4584Z" fill="#F26F1F"/>
<path d="M36.4159 69.9438C35.9159 70.1091 35.4679 70.1038 35.0776 69.9261C34.08 69.4731 33.6223 67.9918 33.3081 66.5974C32.9853 65.1674 34.0241 60.5079 34.8356 57.128C34.8539 57.0581 34.9172 57.0084 34.9918 57.0125L38.3718 57.1989C38.4493 57.202 38.5114 57.2645 38.5151 57.3432C38.5307 57.7182 38.5453 58.0904 38.5561 58.451C38.5715 58.9123 38.5907 59.414 38.6155 59.9425C38.7743 63.5959 38.9898 68.598 37.0071 69.6782C36.8001 69.7945 36.6027 69.8821 36.4159 69.9438ZM35.0975 57.3226C34.2986 60.6632 33.2954 65.1799 33.6021 66.5321C33.885 67.774 34.3188 69.2504 35.2026 69.6484C35.656 69.8532 36.198 69.7763 36.8602 69.4168C38.6781 68.4263 38.4633 63.5326 38.3092 59.9607C38.2862 59.4283 38.2632 58.9248 38.2507 58.4625C38.2417 58.146 38.2308 57.8237 38.2152 57.4966L35.0975 57.3226Z" fill="#263238"/>
<path d="M34.3661 59.8169C34.3613 59.8409 34.3564 59.8648 34.3516 59.8888C34.339 59.9472 34.3255 60.0028 34.313 60.0613C34.285 60.1887 34.2598 60.3152 34.2309 60.4398C35.0572 60.3648 36.4943 60.2956 38.4776 60.4036C38.4694 60.1955 38.4602 59.9941 38.452 59.7955C36.6045 59.6937 35.2288 59.7458 34.3661 59.8169Z" fill="#263238"/>
<path d="M38.1095 67.7677C38.1741 67.5483 38.2301 67.3126 38.2793 67.0663C36.3721 67.7382 34.8363 67.856 33.7891 67.8123C33.8614 68.0312 33.9395 68.2386 34.0234 68.4345C35.0458 68.4512 36.4294 68.3166 38.1095 67.7677Z" fill="#263238"/>
<path d="M33.6198 63.6451C33.6101 63.7026 33.6004 63.7601 33.5936 63.8167C33.5849 63.8771 33.5742 63.9413 33.5655 64.0017C33.5509 64.1023 33.5402 64.1953 33.5276 64.2921C34.697 64.0303 36.5154 63.7743 38.5521 64.0244C38.5554 63.8221 38.5577 63.6169 38.5571 63.4126C36.5816 63.1741 34.8236 63.391 33.6198 63.6451Z" fill="#263238"/>
<path d="M42.8133 35.8281C42.8133 35.8281 45.0177 36.4989 45.4783 36.9281C45.9399 37.3602 47.232 40.0544 47.5699 40.5945C47.9077 41.1345 47.9487 41.2296 49.5295 41.0841C51.1094 40.9357 61.8489 38.7281 64.0504 39.3998C66.2548 40.0705 68.1103 40.9972 66.7738 43.0874C65.4373 45.1776 59.2301 44.1334 55.6236 43.7631C52.0171 43.3928 47.4271 42.6991 46.5375 42.3318C45.6479 41.9645 44.6144 38.172 44.4811 37.7592C44.3479 37.3464 43.2414 36.7281 42.6254 36.4749C42.0151 36.2197 42.1565 35.8759 42.8133 35.8281Z" fill="#FEDEA5"/>
<path d="M65.5017 44.1297C63.4383 44.8117 59.8721 44.3993 57.0946 44.0777C56.5682 44.0185 56.0705 43.9594 55.612 43.9128C52.0754 43.5514 47.4213 42.8565 46.4838 42.4698C45.8965 42.2263 45.2367 40.8182 44.4129 38.0363C44.3796 37.9259 44.3558 37.8443 44.3415 37.8011C44.2454 37.5006 43.3121 36.9145 42.5737 36.6091C42.1088 36.4177 42.0709 36.1874 42.0893 36.0695C42.1242 35.8471 42.3858 35.7032 42.8033 35.6738C42.8224 35.6739 42.8416 35.6739 42.8597 35.6807C43.0894 35.7486 45.11 36.3746 45.5841 36.8154C45.9157 37.1243 46.5881 38.4163 47.1319 39.4539C47.3808 39.9275 47.5935 40.3396 47.7014 40.5116C48.0116 41.0065 48.0478 41.068 49.5166 40.9308C49.9149 40.8918 50.9319 40.7186 52.2171 40.4983C56.0323 39.8412 62.4206 38.7425 64.0969 39.2524C65.4584 39.6682 66.9029 40.2291 67.2848 41.2593C67.4896 41.8114 67.3611 42.4545 66.905 43.1675C66.6189 43.6135 66.131 43.9217 65.5017 44.1297ZM42.5384 36.0297C42.4263 36.0668 42.3898 36.1108 42.387 36.1213C42.386 36.1376 42.4384 36.2289 42.6862 36.3323C43.2506 36.5643 44.4642 37.2079 44.627 37.7099C44.6412 37.7531 44.666 37.8376 44.7002 37.9509C45.6677 41.2061 46.2663 42.0529 46.5954 42.1902C47.4152 42.5294 51.8099 43.2206 55.6394 43.6098C56.0979 43.6564 56.5984 43.7146 57.1258 43.7767C60.6719 44.1861 65.5302 44.7465 66.6468 43.0037C67.0549 42.3672 67.1679 41.8315 66.9974 41.3639C66.6612 40.4527 65.2234 39.912 64.0083 39.5436C62.4028 39.0551 56.0595 40.1453 52.2682 40.7977C50.9745 41.0208 49.9546 41.1949 49.5438 41.2349C47.9917 41.3804 47.8349 41.3013 47.456 40.6949C47.329 40.4941 47.1249 40.0983 46.8607 39.5978C46.3847 38.6881 45.6683 37.3115 45.3749 37.041C45.0204 36.7109 43.4208 36.1726 42.7969 35.9826C42.6849 35.9909 42.6016 36.0088 42.5384 36.0297Z" fill="#263238"/>
<path d="M55.6256 43.7619C55.2696 43.7262 54.8991 43.6857 54.5278 43.6423L54.583 40.2504C58.2488 39.6427 62.7197 38.9925 64.0525 39.3986C66.2569 40.0693 68.1123 40.996 66.7758 43.0862C65.4393 45.1764 59.2321 44.1322 55.6256 43.7619Z" fill="#F26F1F"/>
<path d="M65.5016 44.1301C63.4383 44.8121 59.8721 44.3997 57.0946 44.0781C56.5681 44.0189 56.0704 43.9598 55.612 43.9132C55.2521 43.8756 54.8855 43.837 54.5113 43.7946C54.4347 43.7848 54.3745 43.7184 54.3776 43.6407L54.4328 40.2488C54.4339 40.175 54.4837 40.1138 54.5594 40.1015C57.9829 39.5323 62.6971 38.8273 64.0997 39.2518C65.4612 39.6676 66.9057 40.2285 67.2876 41.2588C67.4924 41.8109 67.3639 42.454 66.9078 43.167C66.6188 43.6139 66.1281 43.9231 65.5016 44.1301ZM55.6403 43.6131C56.0988 43.6597 56.5993 43.7179 57.1267 43.78C60.6728 44.1894 65.5311 44.7498 66.6477 43.007C67.0558 42.3705 67.1688 41.8348 66.9983 41.3672C66.6621 40.456 65.2243 39.9153 64.0092 39.5469C62.684 39.1447 58.1144 39.8243 54.7321 40.3831L54.6822 43.5113C55.0057 43.5449 55.3264 43.5795 55.6403 43.6131Z" fill="#263238"/>
<path d="M61.1364 44.3106C61.3412 44.3227 61.5413 44.3301 61.7413 44.3374L62.016 39.2948C61.8839 39.3001 61.7498 39.3093 61.61 39.3203C61.5823 39.3231 61.5507 39.324 61.5229 39.3268C61.4856 39.3295 61.4454 39.3332 61.408 39.336L61.1364 44.3106Z" fill="#263238"/>
<path d="M58.3969 39.6669C58.3452 39.6744 58.2907 39.6828 58.238 39.6874C58.0982 39.7081 57.9574 39.7259 57.8176 39.7465L57.5387 43.9759C57.6938 43.9917 57.8498 44.0105 58.0058 44.0292C58.0489 44.0341 58.0948 44.0381 58.1417 44.045L58.4305 39.6622C58.419 39.666 58.4094 39.6659 58.3969 39.6669Z" fill="#263238"/>
<path d="M65.1779 39.7867C65.0803 40.7934 64.894 42.6216 64.6747 44.1861C64.8969 44.1446 65.1105 44.0964 65.3078 44.0375C65.5029 42.6121 65.6657 41.0312 65.7604 40.0446C65.5768 39.952 65.3798 39.867 65.1779 39.7867Z" fill="#263238"/>
<path d="M101.154 83.936C101.824 84.0341 102.494 84.4515 102.494 84.4515C102.494 84.4515 102.467 85.2369 101.316 86.9527C102.683 87.638 103.953 88.394 104.328 88.2158C105.064 87.8672 106.028 83.7148 106.38 82.5316C106.732 81.3512 107.697 80.355 107.351 78.6612C107.004 76.9645 106.013 77.1867 105.789 77.794C105.566 78.4013 103.738 80.7498 102.621 81.547C101.503 82.3413 100.645 83.0435 100.645 83.0435C100.645 83.0435 100.484 83.838 101.154 83.936Z" fill="#F37630"/>
<path d="M104.346 88.369C103.984 88.4887 103.266 88.1316 102.063 87.5101C101.798 87.374 101.521 87.2292 101.242 87.0883C101.203 87.069 101.173 87.0344 101.162 86.9931C101.152 86.9519 101.159 86.9049 101.182 86.8685C102.076 85.5345 102.278 84.7747 102.322 84.5331C102.126 84.4222 101.622 84.1607 101.127 84.0881C100.906 84.0558 100.739 83.9574 100.625 83.794C100.401 83.4749 100.486 83.0283 100.493 83.0101C100.501 82.9756 100.519 82.944 100.547 82.922C100.554 82.9163 101.42 82.2084 102.53 81.4198C103.637 80.6322 105.431 78.3142 105.646 77.7385C105.774 77.3928 106.099 77.1703 106.438 77.1954C106.674 77.2134 107.245 77.3889 107.499 78.6307C107.752 79.8696 107.343 80.7333 106.945 81.5645C106.782 81.9092 106.627 82.2319 106.524 82.5758C106.457 82.7991 106.367 83.1325 106.261 83.5254C105.623 85.9056 104.997 88.0642 104.391 88.351C104.376 88.3557 104.36 88.3643 104.346 88.369ZM101.531 86.8936C101.761 87.0094 101.984 87.1272 102.203 87.2401C103.058 87.6859 104.027 88.1867 104.259 88.0782C104.791 87.8257 105.585 84.8668 105.967 83.4468C106.075 83.0501 106.165 82.7137 106.231 82.4905C106.34 82.1255 106.508 81.776 106.668 81.4389C107.044 80.6499 107.432 79.835 107.198 78.6949C107.05 77.9742 106.756 77.5283 106.412 77.5013C106.209 77.4853 106.008 77.6285 105.927 77.8469C105.698 78.4657 103.874 80.8382 102.705 81.6688C101.747 82.3495 100.976 82.9656 100.785 83.1213C100.774 83.2239 100.763 83.4607 100.877 83.6212C100.943 83.7145 101.04 83.7685 101.174 83.7881C101.868 83.891 102.544 84.3065 102.573 84.3258C102.62 84.3547 102.647 84.4066 102.642 84.4593C102.639 84.4891 102.602 85.2619 101.531 86.8936Z" fill="#263238"/>
<path d="M106.656 77.4183C107.061 79.4729 106.648 80.3184 105.174 83.5532C104.022 86.0775 103.728 87.5007 103.657 88.1757C103.962 88.2572 104.194 88.2762 104.325 88.2171C105.06 87.8685 106.025 83.7161 106.376 82.5328C106.729 81.3525 107.694 80.3562 107.348 78.6624C107.199 77.9321 106.932 77.5601 106.656 77.4183Z" fill="white"/>
<path d="M104.337 88.3721C104.179 88.4243 103.947 88.4082 103.619 88.3218C103.547 88.3043 103.498 88.2341 103.508 88.1603C103.589 87.3828 103.92 85.9415 105.037 83.489L105.123 83.3042C106.523 80.2379 106.898 79.4144 106.509 77.4471C106.496 77.3905 106.521 77.3311 106.567 77.2967C106.613 77.2623 106.676 77.2577 106.729 77.2848C106.98 77.416 107.319 77.7575 107.499 78.6308C107.753 79.8698 107.343 80.7335 106.945 81.5646C106.782 81.9094 106.627 82.2321 106.524 82.576C106.458 82.7993 106.367 83.1327 106.261 83.5256C105.623 85.9057 104.997 88.0644 104.391 88.3511C104.374 88.3597 104.357 88.3654 104.337 88.3721ZM103.826 88.0587C104.117 88.122 104.227 88.0955 104.259 88.0784C104.791 87.8259 105.585 84.867 105.967 83.447C106.075 83.0503 106.165 82.7139 106.231 82.4907C106.34 82.1257 106.508 81.7761 106.668 81.4391C107.045 80.6501 107.432 79.8352 107.199 78.6951C107.115 78.2882 106.998 78.0202 106.883 77.8472C107.141 79.6117 106.685 80.6125 105.396 83.4346L105.31 83.6194C104.229 85.9895 103.914 87.381 103.826 88.0587Z" fill="#263238"/>
<path d="M57.7733 74.5929C57.7302 74.6071 57.6775 74.6021 57.6383 74.5704C57.5714 74.5222 57.5553 74.4253 57.6033 74.3583C57.6033 74.3583 57.8413 74.0273 58.2358 73.4848C58.2838 73.4178 58.3805 73.4018 58.4484 73.4528C58.5153 73.501 58.5314 73.5979 58.4806 73.6658C58.0851 74.2055 57.8509 74.5385 57.8509 74.5385C57.8279 74.5652 57.802 74.5834 57.7733 74.5929Z" fill="white"/>
<path d="M56.8659 75.465C56.8659 75.465 63.9381 65.0353 70.4259 59.9071C76.9146 54.7819 80.0059 55.7825 80.3855 58.5323C80.7623 61.283 80.1721 70.7429 79.1087 76.206C78.0454 81.669 76.1463 90.7085 76.1463 90.7085C76.1463 90.7085 82.2973 95.1705 82.9022 95.7181C83.5062 96.2628 80.7626 97.2783 79.3903 96.9842C78.2994 96.7506 78.3528 96.8543 75.9455 96.2059C71.8655 95.1072 71.3874 94.3068 71.6103 93.3801C72.3281 90.4113 73.4953 87.7413 73.2553 84.5268C72.8173 78.6878 73.0024 70.8762 73.5344 71.5502C73.5344 71.5502 71.323 76.1147 66.8191 79.5201C62.3124 82.9265 58.8571 83.5733 55.6103 81.311" fill="#73B4EA"/>
<path d="M81.782 96.8614C80.9744 97.1283 79.9881 97.2689 79.3546 97.1365C79.036 97.0693 78.8159 97.0302 78.6025 96.9921C78.0914 96.9022 77.6072 96.8163 75.9031 96.3572C71.8442 95.2643 71.2005 94.4259 71.4601 93.3498C71.6424 92.5898 71.8573 91.8415 72.0683 91.1201C72.6918 88.9556 73.2796 86.9148 73.1021 84.5454C72.8314 80.9098 72.7595 75.33 73.0315 72.7578C72.0731 74.3428 70.0304 77.2862 66.906 79.6479C62.2746 83.1497 58.7621 83.7004 55.5163 81.441C55.4465 81.3938 55.4314 81.2998 55.4784 81.2299C55.5254 81.1601 55.6222 81.1441 55.6891 81.1922C58.8078 83.3658 62.2121 82.8158 66.7208 79.4056C70.312 76.6916 72.4514 73.2018 73.1431 71.9573C73.2107 71.6219 73.2925 71.416 73.3921 71.3798C73.4266 71.3684 73.5425 71.3333 73.6466 71.4651C73.6838 71.5102 73.6885 71.5726 73.6645 71.6253C73.6606 71.6329 73.5693 71.8196 73.3907 72.1375C73.1242 73.8389 73.0216 79.4987 73.3989 84.5272C73.5811 86.9493 72.9836 89.0189 72.3553 91.2073C72.1472 91.9278 71.9342 92.6723 71.7528 93.4255C71.5811 94.1404 71.7634 94.9331 75.9792 96.0668C77.6699 96.524 78.1465 96.6061 78.6518 96.6979C78.8681 96.735 79.092 96.776 79.4174 96.8442C80.559 97.0867 82.586 96.4008 82.8195 95.9402C82.8406 95.8981 82.8397 95.876 82.7986 95.8385C82.208 95.3053 76.1182 90.8837 76.0561 90.8404C76.0064 90.8057 75.9835 90.7462 75.996 90.6877C76.0144 90.5986 77.9067 81.5869 78.9585 76.1852C80.0334 70.6608 80.6063 61.2738 80.2352 58.5595C80.103 57.5905 79.6313 56.9157 78.8775 56.6121C77.8836 56.209 75.4762 56.1198 70.5185 60.033C64.1237 65.0856 57.0621 75.4511 56.9911 75.5545C56.9441 75.6243 56.8512 75.6423 56.7814 75.595C56.7116 75.5478 56.6936 75.4547 56.7406 75.3849C56.8117 75.2815 63.901 64.8749 70.3313 59.7945C74.0925 56.8231 77.1668 55.5929 78.9882 56.3296C79.8491 56.6776 80.3828 57.4341 80.5339 58.5183C80.9089 61.2537 80.3339 70.6925 79.2542 76.2408C78.2624 81.3416 76.5178 89.6623 76.312 90.6504C77.0663 91.1966 82.4257 95.096 83.0011 95.6118C83.1425 95.7408 83.1757 95.9087 83.0911 96.0773C82.9403 96.3635 82.4171 96.6515 81.782 96.8614Z" fill="#73B4EA"/>
<path d="M59.3616 72.4254C59.3157 72.4406 59.2649 72.4318 59.2238 72.4038C59.1559 72.3528 59.1437 72.2578 59.1917 72.1908C60.6754 70.2085 62.7838 67.4926 64.4144 65.8196C64.471 65.7593 64.5696 65.7587 64.6269 65.8164C64.688 65.8761 64.6879 65.972 64.6303 66.0293C63.0122 67.6919 60.9125 70.3953 59.4335 72.3729C59.4163 72.3977 59.3904 72.4159 59.3616 72.4254Z" fill="white"/>
<path d="M70.9837 75.3384C70.9434 75.3517 70.8975 75.3477 70.8573 75.3227C70.7856 75.2793 70.7638 75.1843 70.807 75.1125L72.5835 72.2219C72.5559 71.6177 72.3615 65.532 75.0372 61.4465C75.0843 61.3767 75.1762 61.3559 75.246 61.4031C75.3158 61.4503 75.3367 61.5424 75.2896 61.6123C72.5419 65.8078 72.8841 72.1865 72.8888 72.2488C72.8897 72.2805 72.8839 72.3111 72.8666 72.336L71.068 75.2658C71.0459 75.3051 71.0181 75.327 70.9837 75.3384Z" fill="white"/>
<path d="M80.0497 70.1504C80.0325 70.1561 80.0114 70.1599 79.9913 70.1569C79.9071 70.1528 79.845 70.0807 79.849 69.9963L79.9399 68.5063C79.9439 68.4219 80.0158 68.3598 80.1 68.3639C80.1843 68.368 80.2464 68.4401 80.2424 68.5245L80.1515 70.0145C80.1504 70.0788 80.1072 70.1314 80.0497 70.1504Z" fill="white"/>
<path d="M80.2206 67.3493C80.2034 67.355 80.1823 67.3588 80.1622 67.3558C80.078 67.3517 80.0159 67.2796 80.0199 67.1952L80.3469 61.7998C80.3509 61.7155 80.4228 61.6534 80.5071 61.6575C80.5913 61.6616 80.6534 61.7337 80.6494 61.8181L80.3224 67.2135C80.3184 67.2787 80.2781 67.3303 80.2206 67.3493Z" fill="white"/>
<path d="M79.3854 96.9891C80.7567 97.2802 83.5042 96.2667 82.8973 95.7229C82.2933 95.1782 76.1414 90.7133 76.1414 90.7133C76.1414 90.7133 76.6447 88.3202 77.2784 85.2515C75.3487 85.6241 74.0486 85.1816 73.2578 84.689C73.4491 87.8333 72.3136 90.4641 71.6054 93.3849C71.3825 94.3116 71.8606 95.112 75.9406 96.2108C78.3479 96.8591 78.2945 96.7554 79.3854 96.9891Z" fill="#FEDEA5"/>
<path d="M81.7822 96.8616C80.9746 97.1285 79.9883 97.2691 79.3548 97.1367C79.0362 97.0695 78.8161 97.0304 78.6027 96.9923C78.0916 96.9024 77.6074 96.8165 75.9033 96.3574C71.8444 95.2645 71.2007 94.4261 71.4603 93.35C71.6436 92.5929 71.8565 91.8484 72.0647 91.1279C72.6746 89.0095 73.2499 87.0079 73.1088 84.7C73.106 84.6434 73.1329 84.5898 73.1837 84.5603C73.2316 84.5316 73.2919 84.5309 73.3407 84.5627C74.0674 85.0158 75.335 85.4754 77.2522 85.1037C77.303 85.0933 77.3527 85.1088 77.3871 85.1454C77.4215 85.1819 77.4387 85.2338 77.4261 85.2826C76.8677 87.9911 76.4089 90.1714 76.3113 90.6477C77.0656 91.1939 82.425 95.0933 83.0003 95.6092C83.1417 95.7381 83.1749 95.9061 83.0904 96.0746C82.9405 96.3637 82.4172 96.6517 81.7822 96.8616ZM73.4242 84.96C73.508 87.2005 72.9482 89.1523 72.3565 91.2104C72.1503 91.9271 71.9373 92.6715 71.755 93.4219C71.5832 94.1368 71.7655 94.9295 75.9813 96.0632C77.6721 96.5204 78.1487 96.6024 78.654 96.6942C78.8702 96.7314 79.0942 96.7724 79.4195 96.8405C80.5612 97.083 82.5881 96.3971 82.8216 95.9366C82.8428 95.8944 82.8418 95.8724 82.8008 95.8349C82.2101 95.3016 76.1203 90.8801 76.0582 90.8368C76.0085 90.8021 75.9856 90.7425 75.9982 90.6841C75.9982 90.6841 76.4782 88.4041 77.0869 85.4427C75.3872 85.7201 74.1873 85.3691 73.4242 84.96Z" fill="#263238"/>
<path d="M76.1418 90.7133C76.1418 90.7133 75.6644 90.5516 75.4387 91.4792C75.2129 92.4068 75.1787 93.2679 75.1787 93.2679L72.1216 91.4734C71.9404 92.1019 71.7611 92.7362 71.6058 93.385C71.3829 94.3116 71.861 95.112 75.941 96.2108C78.3484 96.8592 78.2949 96.7554 79.3858 96.9891C80.7571 97.2802 83.5046 96.2668 82.8978 95.723C82.2928 95.1753 76.1418 90.7133 76.1418 90.7133Z" fill="#F37630"/>
<path d="M81.7822 96.8614C80.9747 97.1283 79.9884 97.2689 79.3549 97.1365C79.0362 97.0693 78.8161 97.0302 78.6027 96.9921C78.0917 96.9022 77.6074 96.8163 75.9033 96.3572C71.8444 95.2643 71.2007 94.4259 71.4603 93.3498C71.6233 92.6761 71.8132 92.0063 71.977 91.4314C71.9905 91.3855 72.0231 91.3491 72.0653 91.332C72.1103 91.3139 72.1563 91.3179 72.1993 91.342L75.0461 93.0112C75.0725 92.6862 75.1369 92.0803 75.2922 91.4412C75.3935 91.0243 75.5606 90.7486 75.7896 90.6218C75.9947 90.5093 76.1717 90.5626 76.1899 90.5694C76.2042 90.5743 76.2195 90.582 76.232 90.5906C76.4834 90.7727 82.3963 95.0642 83.0003 95.609C83.1418 95.7379 83.175 95.9059 83.0904 96.0744C82.9405 96.3635 82.4173 96.6515 81.7822 96.8614ZM72.213 91.7017C72.0626 92.2306 71.8949 92.8227 71.7512 93.4197C71.5794 94.1346 71.7618 94.9274 75.9776 96.0611C77.6683 96.5182 78.1449 96.6003 78.6502 96.6921C78.8664 96.7292 79.0904 96.7702 79.4157 96.8384C80.5574 97.0809 82.5843 96.395 82.8178 95.9344C82.839 95.8923 82.8381 95.8703 82.797 95.8327C82.2245 95.3159 76.52 91.1727 76.0793 90.852C76.0525 90.848 75.9931 90.8517 75.926 90.8898C75.8244 90.949 75.6815 91.1048 75.5831 91.5111C75.3641 92.411 75.3299 93.2625 75.329 93.2692C75.327 93.321 75.2953 93.3698 75.2502 93.3974C75.2042 93.4222 75.1468 93.422 75.0999 93.396L72.213 91.7017Z" fill="#F37630"/>
<path d="M75.9423 96.2107C78.3497 96.8591 78.2963 96.7554 79.3872 96.989C80.6217 97.2519 82.9667 96.4577 82.9859 95.8987C78.5474 97.11 73.7814 94.8228 71.5801 93.5344C71.4444 94.3971 72.0825 95.1702 75.9423 96.2107Z" fill="white"/>
<path d="M81.7586 96.8753C80.9741 97.1346 80.0146 97.2792 79.3552 97.1361C79.0366 97.0689 78.8165 97.0299 78.6031 96.9918C78.092 96.9019 77.6078 96.8159 75.9037 96.3568C71.9768 95.297 71.2805 94.4824 71.4278 93.5104C71.4365 93.4596 71.4672 93.4175 71.5113 93.3966C71.5583 93.3747 71.6099 93.3768 71.6539 93.4037C74.0169 94.7856 78.6242 96.9305 82.943 95.7523C82.9899 95.74 83.0378 95.7497 83.076 95.7786C83.1142 95.8075 83.1362 95.8546 83.1332 95.9035C83.1281 96.0521 83.0312 96.2023 82.8461 96.3466C82.6007 96.5395 82.2069 96.7272 81.7586 96.8753ZM71.7135 93.7866C71.7421 94.3746 72.3573 95.0881 75.9817 96.0627C77.6725 96.5198 78.1491 96.6019 78.6544 96.6937C78.8706 96.7308 79.0946 96.7718 79.4199 96.84C80.3319 97.0338 81.9486 96.6208 82.6081 96.1473C78.4306 97.0871 74.0918 95.1474 71.7135 93.7866Z" fill="#263238"/>
</svg>
