<svg width="24" height="22" viewBox="0 0 24 22" fill="none" xmlns="http://www.w3.org/2000/svg">
<path d="M11.9844 22.0001C5.65489 22.0001 0.508301 16.8535 0.508301 10.5328C0.508301 6.03068 3.15663 1.92577 7.26155 0.0719401C7.50872 -0.0428209 7.79121 -0.0163376 8.02074 0.124907C8.25026 0.266151 8.3915 0.513329 8.3915 0.78699C8.52392 6.90463 13.6175 11.8923 19.744 11.8923C20.6091 11.8923 21.4743 11.7952 22.3217 11.5922C22.5777 11.5304 22.8602 11.601 23.0544 11.7864C23.2486 11.9718 23.3369 12.2366 23.2928 12.5014C22.3394 18.01 17.59 22.0001 11.9844 22.0001ZM6.88195 2.07584C3.95113 3.85023 2.10613 7.05471 2.10613 10.5328C2.10613 15.9708 6.53767 20.4023 11.9844 20.4023C16.4071 20.4023 20.2207 17.5068 21.4478 13.3754C20.8828 13.4548 20.309 13.4902 19.744 13.4902C13.1762 13.4902 7.64997 8.47598 6.88195 2.07584Z" fill="#E6E7F2"/>
</svg>
