<svg width="414" height="896" viewBox="0 0 414 896" fill="none" xmlns="http://www.w3.org/2000/svg">
<path opacity="0.3" d="M285.863 -7.64454C374.673 83.2155 443.623 193.385 486.523 312.975C488.683 318.985 490.803 325.305 489.923 331.625C489.043 337.945 484.163 344.195 477.773 344.375C472.163 344.525 467.543 340.245 463.603 336.245C451.623 324.085 439.633 311.935 427.653 299.775C418.833 290.835 406.233 281.165 395.053 286.885C387.703 290.655 384.743 300.045 385.943 308.215C387.143 316.385 391.593 323.655 395.873 330.715C395.873 330.715 532.093 601.435 550.783 700.625C534.903 598.825 503.223 504.045 458.093 411.425C454.473 404.005 450.013 392.055 449.563 383.805C449.113 375.555 452.913 366.465 460.573 363.385C472.223 358.695 483.903 369.475 491.863 379.185C502.693 392.385 513.523 405.575 524.353 418.775C527.913 423.115 532.123 427.805 537.723 428.155C544.093 428.565 549.523 422.785 550.973 416.565C552.423 410.345 550.883 403.865 549.283 397.685C517.433 274.685 434.833 107.665 332.833 1.66546L285.863 -7.64454Z" fill="#554872"/>
<path opacity="0.3" d="M-54.3473 456.205C34.4627 547.065 103.413 657.235 146.313 776.825C148.473 782.835 150.593 789.155 149.713 795.475C148.833 801.795 143.953 808.045 137.563 808.225C131.953 808.375 127.333 804.095 123.393 800.095C111.413 787.935 99.4227 775.785 87.4427 763.625C78.6227 754.685 66.0227 745.015 54.8427 750.735C47.4927 754.505 44.5327 763.895 45.7327 772.065C46.9327 780.235 51.3827 787.505 55.6627 794.565C55.6627 794.565 191.883 1065.29 210.573 1164.48C194.693 1062.68 163.013 967.895 117.883 875.275C114.263 867.855 109.803 855.905 109.353 847.655C108.903 839.405 112.703 830.315 120.363 827.235C132.013 822.545 143.693 833.325 151.653 843.035C162.483 856.235 173.313 869.425 184.143 882.625C187.703 886.965 191.913 891.655 197.513 892.005C203.883 892.415 209.313 886.635 210.763 880.415C212.213 874.195 210.673 867.715 209.073 861.535C177.223 738.535 94.6227 571.515 -7.3773 465.515L-54.3473 456.205Z" fill="#554872"/>
<path opacity="0.3" d="M-34.8373 336.425C-0.877358 337.435 -31.0573 546.425 -20.9173 514.005C7.08269 424.505 92.3027 437.745 151.083 499.005C186.583 536.005 246.043 639.885 275.093 673.515C281.983 681.495 290.263 689.505 300.743 690.735C313.933 692.285 326.233 682.045 331.473 669.835C340.533 648.735 337.113 620.285 334.513 598.155C330.533 564.195 321.333 531.075 311.633 498.375C297.003 449.105 277.163 401.425 253.483 355.845C253.263 355.425 253.053 355.015 252.833 354.605C223.213 297.825 186.733 244.605 144.233 196.695C127.783 178.155 108.913 161.905 88.2027 148.295C184.363 245.825 260.613 384.895 301.583 537.485C304.743 549.265 307.743 561.405 307.823 573.465C307.903 585.525 304.563 597.675 297.353 603.095C289.163 609.255 276.583 607.005 269.303 597.055C262.273 587.445 254.243 576.895 247.803 565.395C215.503 507.675 179.733 453.505 141.113 403.805C123.663 381.345 105.433 359.605 84.9427 343.635C64.4527 327.675 41.3627 317.745 19.5727 320.655L-34.8373 336.425Z" fill="#554872"/>
<path opacity="0.3" d="M52.1726 -45.6545C53.8126 -45.6845 167.583 124.625 238.483 296.655C196.843 224.345 134.173 127.675 -0.347323 18.1455C-0.237323 18.2355 16.1827 -0.534548 17.6927 -2.24455C23.0627 -8.31455 48.5826 -45.5845 52.1726 -45.6545Z" fill="#554872"/>
<path opacity="0.4" d="M359.523 354.516C359.523 355.482 360.306 356.266 361.273 356.266C362.239 356.266 363.023 355.482 363.023 354.516C363.023 353.549 362.239 352.766 361.273 352.766C360.306 352.766 359.523 353.549 359.523 354.516Z" fill="white"/>
<path opacity="0.4" d="M93.0928 363.765C93.0928 364.732 93.8763 365.515 94.8428 365.515C95.8093 365.515 96.5928 364.732 96.5928 363.765C96.5928 362.799 95.8093 362.015 94.8428 362.015C93.8763 362.015 93.0928 362.799 93.0928 363.765Z" fill="white"/>
<path opacity="0.4" d="M130.833 532.395C130.833 533.362 131.616 534.145 132.583 534.145C133.549 534.145 134.333 533.362 134.333 532.395C134.333 531.429 133.549 530.645 132.583 530.645C131.616 530.645 130.833 531.429 130.833 532.395Z" fill="white"/>
<path opacity="0.4" d="M78.0127 598.195C78.0127 599.162 78.7962 599.945 79.7627 599.945C80.7292 599.945 81.5127 599.162 81.5127 598.195C81.5127 597.229 80.7292 596.445 79.7627 596.445C78.7962 596.445 78.0127 597.229 78.0127 598.195Z" fill="white"/>
<path opacity="0.4" d="M411.733 588.895C411.733 589.862 412.516 590.645 413.483 590.645C414.449 590.645 415.233 589.862 415.233 588.895C415.233 587.929 414.449 587.145 413.483 587.145C412.516 587.145 411.733 587.929 411.733 588.895Z" fill="white"/>
<path opacity="0.4" d="M185.403 702.045C185.403 703.012 186.186 703.795 187.153 703.795C188.119 703.795 188.903 703.012 188.903 702.045C188.903 701.079 188.119 700.295 187.153 700.295C186.186 700.295 185.403 701.079 185.403 702.045Z" fill="white"/>
<path opacity="0.4" d="M206.343 481.015C206.343 481.982 207.126 482.765 208.093 482.765C209.059 482.765 209.843 481.982 209.843 481.015C209.843 480.049 209.059 479.265 208.093 479.265C207.126 479.265 206.343 480.049 206.343 481.015Z" fill="white"/>
<path opacity="0.4" d="M195.093 397.675C195.093 398.642 195.876 399.425 196.843 399.425C197.809 399.425 198.593 398.642 198.593 397.675C198.593 396.709 197.809 395.925 196.843 395.925C195.876 395.925 195.093 396.709 195.093 397.675Z" fill="white"/>
<path opacity="0.4" d="M85.3428 197.015C85.3428 197.982 86.1263 198.765 87.0928 198.765C88.0593 198.765 88.8428 197.982 88.8428 197.015C88.8428 196.049 88.0593 195.265 87.0928 195.265C86.1263 195.265 85.3428 196.049 85.3428 197.015Z" fill="white"/>
<path opacity="0.4" d="M389.943 295.675C389.943 296.642 390.726 297.425 391.693 297.425C392.659 297.425 393.443 296.642 393.443 295.675C393.443 294.709 392.659 293.925 391.693 293.925C390.726 293.925 389.943 294.709 389.943 295.675Z" fill="white"/>
<path opacity="0.4" d="M289.093 165.015C289.093 165.982 289.876 166.765 290.843 166.765C291.809 166.765 292.593 165.982 292.593 165.015C292.593 164.049 291.809 163.265 290.843 163.265C289.876 163.265 289.093 164.049 289.093 165.015Z" fill="white"/>
<path opacity="0.4" d="M222.093 176.265C222.093 177.232 222.876 178.015 223.843 178.015C224.809 178.015 225.593 177.232 225.593 176.265C225.593 175.299 224.809 174.515 223.843 174.515C222.876 174.515 222.093 175.299 222.093 176.265Z" fill="white"/>
<path opacity="0.7" d="M355.903 415.945L357.023 421.955L358.143 415.945L360.373 417.485L358.843 415.245L364.853 414.125L358.843 413.015L360.373 410.775L358.143 412.305L357.023 406.305L355.903 412.305L353.663 410.775L355.203 413.015L349.193 414.125L355.203 415.245L353.663 417.485L355.903 415.945Z" fill="#E1D1FF"/>
<path opacity="0.7" d="M205.353 729.995L206.463 735.995L207.583 729.995L209.823 731.525L208.283 729.285L214.293 728.175L208.283 727.055L209.823 724.815L207.583 726.355L206.463 720.345L205.353 726.355L203.113 724.815L204.643 727.055L198.643 728.175L204.643 729.285L203.113 731.525L205.353 729.995Z" fill="#E1D1FF"/>
<path opacity="0.7" d="M215.093 590.445L216.213 596.445L217.333 590.445L219.573 591.976L218.033 589.736L224.043 588.626L218.033 587.505L219.573 585.266L217.333 586.806L216.213 580.796L215.093 586.806L212.863 585.266L214.393 587.505L208.383 588.626L214.393 589.736L212.863 591.976L215.093 590.445Z" fill="#E1D1FF"/>
<path opacity="0.7" d="M341.043 706.056L342.163 712.065L343.283 706.056L345.513 707.586L343.983 705.356L349.993 704.236L343.983 703.116L345.513 700.876L343.283 702.416L342.163 696.406L341.043 702.416L338.803 700.876L340.343 703.116L334.333 704.236L340.343 705.356L338.803 707.586L341.043 706.056Z" fill="#E1D1FF"/>
<path opacity="0.7" d="M166.323 275.285L167.433 281.296L168.553 275.285L170.793 276.815L169.253 274.585L175.263 273.465L169.253 272.345L170.793 270.105L168.553 271.645L167.433 265.635L166.323 271.645L164.083 270.105L165.613 272.345L159.603 273.465L165.613 274.585L164.083 276.815L166.323 275.285Z" fill="#E1D1FF"/>
<path opacity="0.7" d="M121.843 323.016L122.963 329.025L124.073 323.016L126.313 324.546L124.783 322.305L130.783 321.195L124.783 320.076L126.313 317.835L124.073 319.375L122.963 313.365L121.843 319.375L119.603 317.835L121.143 320.076L115.133 321.195L121.143 322.305L119.603 324.546L121.843 323.016Z" fill="#E1D1FF"/>
<path opacity="0.7" d="M392.743 225.005L393.863 231.015L394.983 225.005L397.223 226.545L395.683 224.305L401.693 223.185L395.683 222.065L397.223 219.835L394.983 221.365L393.863 215.355L392.743 221.365L390.513 219.835L392.043 222.065L386.033 223.185L392.043 224.305L390.513 226.545L392.743 225.005Z" fill="#E1D1FF"/>
<path opacity="0.7" d="M387.933 91.0155L389.053 97.0255L390.173 91.0155L392.413 92.5455L390.873 90.3055L396.883 89.1955L390.873 88.0755L392.413 85.8355L390.173 87.3755L389.053 81.3655L387.933 87.3755L385.703 85.8355L387.233 88.0755L381.223 89.1955L387.233 90.3055L385.703 92.5455L387.933 91.0155Z" fill="#E1D1FF"/>
<path opacity="0.7" d="M82.3528 76.0255L83.4727 82.0355L84.5927 76.0255L86.8327 77.5555L85.2928 75.3255L91.3027 74.2055L85.2928 73.0855L86.8327 70.8455L84.5927 72.3855L83.4727 66.3755L82.3528 72.3855L80.1227 70.8455L81.6527 73.0855L75.6427 74.2055L81.6527 75.3255L80.1227 77.5555L82.3528 76.0255Z" fill="#E1D1FF"/>
<path d="M343.736 367.925C295.737 354.425 302.736 394.925 312.736 394.925C316.844 394.925 325.361 395.925 335.737 395.925H367.237C407.236 395.925 418.736 393.259 419.237 392.425C422.737 365.925 401.57 368.425 390.237 371.425C392.07 361.592 390.137 341.725 367.736 340.925C345.335 340.125 342.402 358.592 343.736 367.925Z" fill="#1F265E"/>
<path d="M9.77998 274.052C-8.98769 268.774 -6.25091 284.609 -2.34099 284.609C-0.734614 284.609 2.59522 285 6.6523 285H18.9688C34.6085 285 39.105 283.957 39.3007 283.632C40.6692 273.27 32.3931 274.248 27.9618 275.421C28.6786 271.576 27.9226 263.808 19.164 263.495C10.4053 263.182 9.25855 270.403 9.77998 274.052Z" fill="#1F265E"/>
<path d="M218.891 100.715C182.403 90.4525 187.723 121.24 195.325 121.24C198.448 121.24 204.922 122 212.81 122H236.756C267.163 122 275.906 119.973 276.286 119.34C278.947 99.1947 262.856 101.095 254.241 103.376C255.634 95.9005 254.164 80.7981 237.136 80.19C220.107 79.5818 217.877 93.62 218.891 100.715Z" fill="#1F265E"/>
<path d="M371.089 62.0831C343.326 54.2745 347.375 77.7001 353.159 77.7001C355.535 77.7001 360.461 78.2785 366.463 78.2785H384.683C407.819 78.2785 414.47 76.7361 414.76 76.2541C416.784 60.9263 404.541 62.3723 397.986 64.1075C399.046 58.4198 397.928 46.9288 384.971 46.466C372.015 46.0033 370.318 56.6846 371.089 62.0831Z" fill="#1F265E"/>
<path d="M7.75573 83.5027C-13.2717 77.6144 -10.2054 95.2791 -5.8247 95.2791C-4.0249 95.2791 -0.294134 95.7153 4.25144 95.7153H18.0509C35.5738 95.7153 40.6117 94.5522 40.831 94.1887C42.3643 82.6303 33.0916 83.7208 28.1267 85.0292C28.9299 80.7403 28.0828 72.0752 18.2696 71.7263C8.45638 71.3773 7.17151 79.4318 7.75573 83.5027Z" fill="#1F265E"/>
<path d="M50.2686 74.3882C50.2686 74.3882 46.888 67.9581 41.4713 71.2863C41.4713 71.2863 45.2632 66.0098 42.0135 62.1132C42.0135 62.1132 45.7961 66.4903 50.7846 64.7084C50.7846 64.7084 46.8618 67.4514 50.2686 74.3882Z" fill="#6D75B0"/>
<path d="M25.8308 49.3357C25.8308 49.3357 29.235 46.0572 26.173 43.2767C26.173 43.2767 30.1575 44.6886 32.0025 41.9515C32.0025 41.9515 29.9539 45.1087 31.9721 47.9022C31.9721 47.9022 29.5468 45.9489 25.8308 49.3357Z" fill="white"/>
<g filter="url(#filter0_f)">
<circle cx="128.845" cy="64.1764" r="25.37" fill="#D3D4DE"/>
<circle cx="120.083" cy="52.472" r="4.65732" fill="#C5C6D0"/>
<circle cx="139.313" cy="63.9621" r="6.75236" fill="#F1F1F3"/>
<path fill-rule="evenodd" clip-rule="evenodd" d="M147.674 81.1791C144.674 84.4994 140.809 87.0224 136.433 88.3921C136.054 87.5487 135.844 86.6136 135.844 85.6292C135.844 81.9 138.867 78.8768 142.596 78.8768C144.62 78.8768 146.437 79.7678 147.674 81.1791Z" fill="#C5C6D0"/>
<circle cx="123.102" cy="80.1706" r="3.01873" fill="#C5C6D0"/>
</g>
<circle cx="131.569" cy="62.389" r="25.37" fill="#D3D4DE"/>
<circle cx="122.808" cy="50.6846" r="4.65732" fill="#C5C6D0"/>
<circle cx="142.038" cy="62.1748" r="6.75236" fill="#F1F1F3"/>
<path fill-rule="evenodd" clip-rule="evenodd" d="M150.399 79.3918C147.399 82.712 143.533 85.235 139.157 86.6047C138.779 85.7614 138.568 84.8262 138.568 83.8418C138.568 80.1126 141.591 77.0895 145.32 77.0895C147.345 77.0895 149.161 77.9805 150.399 79.3918Z" fill="#C5C6D0"/>
<circle cx="125.826" cy="78.3833" r="3.01873" fill="#C5C6D0"/>
<circle cx="148.79" cy="53.0135" r="25.37" fill="#03174C"/>
<path d="M313.623 42.2272C313.623 42.2272 314.995 49.3611 321.144 47.7456C321.144 47.7456 315.985 51.6967 317.966 56.3679C317.966 56.3679 315.614 51.0824 310.324 51.342C310.324 51.342 314.873 49.8537 313.623 42.2272Z" fill="#6D75B0"/>
<path d="M305.262 90.206C305.262 90.206 301.054 92.3572 303.179 95.9058C303.179 95.9058 299.775 93.3997 297.215 95.4847C297.215 95.4847 300.091 93.0566 298.969 89.7981C298.969 89.7981 300.724 92.3705 305.262 90.206Z" fill="white"/>
<g filter="url(#filter1_f)">
<path d="M305.262 90.206C305.262 90.206 301.054 92.3572 303.179 95.9058C303.179 95.9058 299.775 93.3997 297.215 95.4847C297.215 95.4847 300.091 93.0566 298.969 89.7981C298.969 89.7981 300.724 92.3705 305.262 90.206Z" fill="white"/>
</g>
<path d="M357.238 111.452C357.238 111.452 353.03 113.603 355.155 117.152C355.155 117.152 351.751 114.646 349.192 116.731C349.192 116.731 352.067 114.302 350.945 111.044C350.945 111.044 352.7 113.616 357.238 111.452Z" fill="#6D75B0"/>
<defs>
<filter id="filter0_f" x="89.4749" y="24.8063" width="78.74" height="78.74" filterUnits="userSpaceOnUse" color-interpolation-filters="sRGB">
<feFlood flood-opacity="0" result="BackgroundImageFix"/>
<feBlend mode="normal" in="SourceGraphic" in2="BackgroundImageFix" result="shape"/>
<feGaussianBlur stdDeviation="7" result="effect1_foregroundBlur"/>
</filter>
<filter id="filter1_f" x="292.99" y="85.5464" width="16.4974" height="14.5979" filterUnits="userSpaceOnUse" color-interpolation-filters="sRGB">
<feFlood flood-opacity="0" result="BackgroundImageFix"/>
<feBlend mode="normal" in="SourceGraphic" in2="BackgroundImageFix" result="shape"/>
<feGaussianBlur stdDeviation="2" result="effect1_foregroundBlur"/>
</filter>
</defs>
</svg>
