<svg width="415" height="755" viewBox="0 0 415 755" fill="none" xmlns="http://www.w3.org/2000/svg">
<path fill-rule="evenodd" clip-rule="evenodd" d="M414.5 149.339C440.03 136.247 457.5 109.664 457.5 79C457.5 35.3695 422.13 0 378.5 0C351.985 0 328.52 13.0631 314.191 33.1047C309.363 31.7338 304.267 31 299 31C279.719 31 262.735 40.8316 252.787 55.755C245.484 47.9081 235.065 43 223.5 43C207.866 43 194.326 51.9696 187.747 65.0435C176.807 58.6584 164.081 55 150.5 55C125.725 55 103.794 67.175 90.3628 85.8683C85.9494 84.6505 81.3007 84 76.5 84C68.3397 84 60.6184 85.8797 53.7455 89.2297C46.171 75.9515 31.8808 67 15.5 67C-8.80053 67 -28.5 86.6995 -28.5 111C-28.5 130.033 -16.4151 146.244 0.5 152.377V755H414.5V149.339ZM249.958 113H250.223C250.194 112.947 250.166 112.894 250.137 112.841C250.078 112.894 250.018 112.947 249.958 113Z" fill="url(#paint0_linear)"/>
<defs>
<linearGradient id="paint0_linear" x1="207.5" y1="32" x2="207.5" y2="545.5" gradientUnits="userSpaceOnUse">
<stop stop-color="#FAF8F5"/>
<stop offset="1" stop-color="white" stop-opacity="0"/>
</linearGradient>
</defs>
</svg>
