<svg width="31" height="30" viewBox="0 0 31 30" fill="none" xmlns="http://www.w3.org/2000/svg">
<g clip-path="url(#clip0)">
<path d="M1.08836 21.0175L1.08765 21.0221C0.752601 23.0961 1.40873 24.6245 2.59066 25.7883C3.79594 26.9751 5.56643 27.7969 7.45449 28.358C11.2257 29.4788 15.2532 29.4997 15.4934 29.4997H15.4935H15.4935H15.4936H15.4936H15.4937H15.4937H15.4938H15.4938H15.4939H15.4939H15.494H15.494H15.4941H15.4941H15.4942H15.4942H15.4943H15.4943H15.4944H15.4944H15.4945H15.4945H15.4946H15.4946H15.4947H15.4947H15.4947H15.4948H15.4948H15.4949H15.4949H15.495H15.495H15.4951H15.4951H15.4952H15.4952H15.4953H15.4953H15.4954H15.4954H15.4954H15.4955H15.4955H15.4956H15.4956H15.4957H15.4957H15.4958H15.4958H15.4958H15.4959H15.4959H15.496H15.496H15.4961H15.4961H15.4962H15.4962H15.4962H15.4963H15.4963H15.4964H15.4964H15.4965H15.4965H15.4965H15.4966H15.4966H15.4967H15.4967H15.4968H15.4968H15.4968H15.4969H15.4969H15.497H15.497H15.4971H15.4971H15.4971H15.4972H15.4972H15.4973H15.4973H15.4973H15.4974H15.4974H15.4975H15.4975H15.4975H15.4976H15.4976H15.4977H15.4977H15.4977H15.4978H15.4978H15.4979H15.4979H15.4979H15.498H15.498H15.4981H15.4981H15.4981H15.4982H15.4982H15.4983H15.4983H15.4983H15.4984H15.4984H15.4984H15.4985H15.4985H15.4986H15.4986H15.4986H15.4987H15.4987H15.4987H15.4988H15.4988H15.4989H15.4989H15.4989H15.499H15.499H15.499H15.4991H15.4991H15.4991H15.4992H15.4992H15.4993H15.4993H15.4993H15.4994H15.4994H15.4994H15.4995H15.4995H15.4995H15.4996H15.4996H15.4996H15.4997H15.4997H15.4997H15.4998H15.4998H15.4998H15.4999H15.4999H15.4999H15.5H15.5H15.5001H15.5001H15.5001H15.5001H15.5002H15.5002H15.5002H15.5003H15.5003H15.5003H15.5004H15.5004H15.5004H15.5005H15.5005H15.5005H15.5006H15.5006H15.5006H15.5007H15.5007H15.5007H15.5008H15.5008H15.5008H15.5009H15.5009H15.5009H15.5009H15.501H15.501H15.501H15.5011H15.5011H15.5011H15.5012H15.5012H15.5012H15.5012H15.5013H15.5013H15.5013H15.5014H15.5014H15.5014H15.5014H15.5015H15.5015H15.5015H15.5016H15.5016H15.5016H15.5016H15.5017H15.5017H15.5017H15.5018H15.5018H15.5018H15.5018H15.5019H15.5019H15.5019H15.5019H15.502H15.502H15.502H15.5021H15.5021H15.5021H15.5021H15.5022H15.5022H15.5022H15.5022H15.5023H15.5023H15.5023H15.5023H15.5024H15.5024H15.5024H15.5024H15.5025H15.5025H15.5025H15.5025H15.5026H15.5026H15.5026H15.5026H15.5027H15.5027H15.5027H15.5027H15.5028H15.5028H15.5028H15.5028H15.5029H15.5029H15.5029H15.5029H15.5029H15.503H15.503H15.503H15.503H15.5031H15.5031H15.5031H15.5031H15.5032H15.5032H15.5032H15.5032H15.5032H15.5033H15.5033H15.5033H15.5033H15.5033H15.5034H15.5034H15.5034H15.5034H15.5035H15.5035H15.5035H15.5035H15.5035H15.5036H15.5036H15.5036H15.5036H15.5036H15.5037H15.5037H15.5037H15.5037H15.5037H15.5038H15.5038H15.5038H15.5038H15.5038H15.5038H15.5039H15.5039H15.5039H15.5039H15.5039H15.504H15.504H15.504H15.504H15.504H15.5041H15.5041H15.5041H15.5041H15.5041H15.5041H15.5042H15.5042H15.5042H15.5042H15.5042H15.5042H15.5043H15.5043H15.5043H15.5043H15.5043H15.5043H15.5044H15.5044H15.5044H15.5044H15.5044H15.5044H15.5045H15.5045H15.5045H15.5045H15.5045H15.5045H15.5045H15.5046H15.5046H15.5046H15.5046H15.5046H15.5046H15.5046H15.5047H15.5047H15.5047H15.5047H15.5048H15.5048H15.5048H15.5048H15.5049H15.5049H15.5049H15.5049H15.505H15.505H15.505H15.505H15.5051H15.5051H15.5051H15.5051H15.5051H15.5052H15.5052H15.5052H15.5052H15.5052H15.5053H15.5053H15.5053H15.5053H15.5053H15.5054H15.5054H15.5054H15.5054H15.5054H15.5054H15.5055H15.5055H15.5055H15.5055H15.5055H15.5055H15.5056H15.5056H15.5056H15.5056H15.5056H15.5056H15.5057H15.5057H15.5057H15.5057H15.5057H15.5057H15.5058H15.5058C15.752 29.4997 19.937 29.4778 23.7706 28.2897C25.6902 27.6947 27.4624 26.8248 28.6192 25.5716C29.7499 24.3466 30.3235 22.7251 29.811 20.5045C29.8031 20.4707 29.796 20.4399 29.7893 20.4106C29.778 20.3615 29.7676 20.3163 29.7556 20.2676L29.7525 20.2549L29.7526 20.2549C29.745 20.2203 29.7379 20.1911 29.7297 20.1569C29.7243 20.1349 29.7185 20.1108 29.7117 20.082C29.6824 19.9582 29.6523 19.8341 29.6217 19.7084L29.6211 19.7068L29.613 19.6737C29.5573 19.4462 29.5009 19.2198 29.4428 18.9948L29.4424 18.9934C28.886 16.8133 28.2093 14.6711 27.3336 12.6183L27.3335 12.618C26.5689 10.8227 25.6026 9.20295 24.4713 7.59623C22.8035 5.22882 20.8894 2.72742 18.4881 1.28446L18.4879 1.2843C17.5852 0.741092 16.5446 0.420218 15.5482 0.516625L15.5001 0.521284L15.4519 0.516625C14.4554 0.420211 13.414 0.741137 12.5113 1.2843L12.5111 1.28446C10.1098 2.72742 8.19568 5.22882 6.5279 7.59623C5.39665 9.20286 4.43032 10.8226 3.6648 12.618L1.08836 21.0175ZM1.08836 21.0175C1.09706 20.9602 1.1067 20.9024 1.11733 20.8432M1.08836 21.0175L1.11733 20.8432M1.11733 20.8432C1.13744 20.7335 1.16131 20.6206 1.1883 20.5039C1.24198 20.2732 1.29665 20.0432 1.35236 19.8118C1.38843 19.6638 1.42399 19.5179 1.4604 19.3733L1.46056 19.3726C1.49475 19.2361 1.5286 19.1009 1.56335 18.9649C1.5962 18.8366 1.62844 18.7107 1.66148 18.5861L1.66225 18.5836C1.6641 18.5773 1.66628 18.5694 1.66854 18.5603C1.73102 18.3224 1.79513 18.0855 1.86182 17.8501L1.86192 17.8501L1.8645 17.8402C1.87331 17.8065 1.88018 17.7804 1.88748 17.7552L1.88751 17.7552L1.88884 17.7505C2.37868 15.9998 2.95741 14.2798 3.66469 12.6182L1.11733 20.8432ZM29.6119 19.6662L29.612 19.6665L29.6119 19.6662Z" fill="url(#paint0_radial)" stroke="white"/>
<circle cx="19.5001" cy="8.00006" r="1.5" fill="#D7D9FF" stroke="white"/>
<path d="M1.08811 21.0175L1.08741 21.0222C0.752356 23.0961 1.40849 24.6246 2.59041 25.7884C3.7957 26.9752 5.56618 27.7969 7.45425 28.3581C11.2255 29.4788 15.2529 29.4998 15.4932 29.4998H15.4932H15.4933H15.4933H15.4934H15.4934H15.4935H15.4935H15.4936H15.4936H15.4937H15.4937H15.4938H15.4938H15.4939H15.4939H15.494H15.494H15.4941H15.4941H15.4942H15.4942H15.4943H15.4943H15.4944H15.4944H15.4945H15.4945H15.4946H15.4946H15.4946H15.4947H15.4947H15.4948H15.4948H15.4949H15.4949H15.495H15.495H15.4951H15.4951H15.4952H15.4952H15.4952H15.4953H15.4953H15.4954H15.4954H15.4955H15.4955H15.4956H15.4956H15.4957H15.4957H15.4957H15.4958H15.4958H15.4959H15.4959H15.496H15.496H15.496H15.4961H15.4961H15.4962H15.4962H15.4963H15.4963H15.4963H15.4964H15.4964H15.4965H15.4965H15.4966H15.4966H15.4966H15.4967H15.4967H15.4968H15.4968H15.4969H15.4969H15.4969H15.497H15.497H15.4971H15.4971H15.4971H15.4972H15.4972H15.4973H15.4973H15.4973H15.4974H15.4974H15.4975H15.4975H15.4975H15.4976H15.4976H15.4977H15.4977H15.4977H15.4978H15.4978H15.4979H15.4979H15.4979H15.498H15.498H15.4981H15.4981H15.4981H15.4982H15.4982H15.4982H15.4983H15.4983H15.4984H15.4984H15.4984H15.4985H15.4985H15.4985H15.4986H15.4986H15.4987H15.4987H15.4987H15.4988H15.4988H15.4988H15.4989H15.4989H15.4989H15.499H15.499H15.499H15.4991H15.4991H15.4992H15.4992H15.4992H15.4993H15.4993H15.4993H15.4994H15.4994H15.4994H15.4995H15.4995H15.4995H15.4996H15.4996H15.4996H15.4997H15.4997H15.4997H15.4998H15.4998H15.4998H15.4999H15.4999H15.4999H15.5H15.5H15.5H15.5001H15.5001H15.5001H15.5002H15.5002H15.5002H15.5003H15.5003H15.5003H15.5004H15.5004H15.5004H15.5005H15.5005H15.5005H15.5005H15.5006H15.5006H15.5006H15.5007H15.5007H15.5007H15.5008H15.5008H15.5008H15.5009H15.5009H15.5009H15.5009H15.501H15.501H15.501H15.5011H15.5011H15.5011H15.5011H15.5012H15.5012H15.5012H15.5013H15.5013H15.5013H15.5013H15.5014H15.5014H15.5014H15.5015H15.5015H15.5015H15.5015H15.5016H15.5016H15.5016H15.5017H15.5017H15.5017H15.5017H15.5018H15.5018H15.5018H15.5018H15.5019H15.5019H15.5019H15.5019H15.502H15.502H15.502H15.502H15.5021H15.5021H15.5021H15.5021H15.5022H15.5022H15.5022H15.5022H15.5023H15.5023H15.5023H15.5023H15.5024H15.5024H15.5024H15.5024H15.5025H15.5025H15.5025H15.5025H15.5026H15.5026H15.5026H15.5026H15.5027H15.5027H15.5027H15.5027H15.5028H15.5028H15.5028H15.5028H15.5028H15.5029H15.5029H15.5029H15.5029H15.503H15.503H15.503H15.503H15.503H15.5031H15.5031H15.5031H15.5031H15.5031H15.5032H15.5032H15.5032H15.5032H15.5033H15.5033H15.5033H15.5033H15.5033H15.5034H15.5034H15.5034H15.5034H15.5034H15.5035H15.5035H15.5035H15.5035H15.5035H15.5035H15.5036H15.5036H15.5036H15.5036H15.5036H15.5037H15.5037H15.5037H15.5037H15.5037H15.5038H15.5038H15.5038H15.5038H15.5038H15.5038H15.5039H15.5039H15.5039H15.5039H15.5039H15.5039H15.504H15.504H15.504H15.504H15.504H15.504H15.5041H15.5041H15.5041H15.5041H15.5041H15.5041H15.5042H15.5042H15.5042H15.5042H15.5042H15.5042H15.5043H15.5043H15.5043H15.5043H15.5044H15.5044H15.5044H15.5044H15.5045H15.5045H15.5045H15.5046H15.5046H15.5046H15.5046H15.5047H15.5047H15.5047H15.5047H15.5048H15.5048H15.5048H15.5048H15.5048H15.5049H15.5049H15.5049H15.5049H15.505H15.505H15.505H15.505H15.505H15.5051H15.5051H15.5051H15.5051H15.5051H15.5051H15.5052H15.5052H15.5052H15.5052H15.5052H15.5052H15.5053H15.5053H15.5053H15.5053H15.5053H15.5054H15.5054H15.5054H15.5054H15.5054H15.5054H15.5054H15.5055H15.5055H15.5055H15.5055H15.5055C15.7518 29.4998 19.9368 29.4779 23.7703 28.2897C25.6899 27.6948 27.4622 26.8248 28.619 25.5716C29.7497 24.3467 30.3233 22.7251 29.8108 20.5045C29.8028 20.4707 29.7958 20.4399 29.789 20.4106C29.7777 20.3615 29.7674 20.3163 29.7553 20.2676L29.7522 20.255L29.7524 20.2549C29.7448 20.2204 29.7377 20.1911 29.7294 20.157C29.7241 20.135 29.7182 20.1109 29.7114 20.082C29.6822 19.9582 29.6521 19.8342 29.6215 19.7084L29.6209 19.7069L29.6128 19.6738C29.5656 19.4813 29.518 19.2895 29.4692 19.0987C29.2902 18.8778 29.095 18.6525 28.8845 18.4218C23.6382 12.6871 20.4859 10.3686 18.6714 9.4825L1.08811 21.0175ZM1.08811 21.0175C1.09682 20.9602 1.10646 20.9025 1.11709 20.8433M1.08811 21.0175L1.11709 20.8433M1.11709 20.8433C1.13721 20.7335 1.16109 20.6205 1.1881 20.5038C1.24176 20.2731 1.29642 20.0432 1.3521 19.8119C1.38818 19.6639 1.42374 19.518 1.46016 19.3733L1.46032 19.3727C1.49453 19.2361 1.5284 19.1008 1.56316 18.9647C1.596 18.8365 1.62822 18.7107 1.66124 18.5861L1.66201 18.5836C1.66385 18.5773 1.66604 18.5695 1.66829 18.5603C1.7166 18.3764 1.76588 18.1931 1.81658 18.0105C2.65413 17.3751 3.56823 16.6208 4.34382 15.8348C5.11742 15.0507 5.79901 14.1902 6.09505 13.3505C6.47007 12.2874 6.91267 11.716 7.32979 11.4283C7.73186 11.151 8.16551 11.0991 8.62847 11.1971C9.10583 11.2982 9.60271 11.5581 10.0722 11.8905C10.5377 12.22 10.9496 12.6015 11.2553 12.914L11.2553 12.9141C11.8207 13.4919 12.7101 13.6123 13.4043 13.1814L13.4046 13.1812C14.1376 12.7255 15.1122 11.8726 16.0587 10.2933C16.6089 9.37597 17.739 9.0277 18.6712 9.48242L1.11709 20.8433ZM29.6117 19.6663L29.6117 19.6665L29.6117 19.6663Z" fill="#8589EB" stroke="white"/>
<path opacity="0.15" d="M1.08811 21.0177L1.08739 21.0223C0.752356 23.0963 1.40849 24.6248 2.59041 25.7886C3.7957 26.9754 5.56618 27.7971 7.45425 28.3583C11.2255 29.479 15.2529 29.5 15.4932 29.5H15.4932H15.4933H15.4933H15.4934H15.4934H15.4935H15.4935H15.4936H15.4936H15.4937H15.4937H15.4938H15.4938H15.4939H15.4939H15.494H15.494H15.4941H15.4941H15.4942H15.4942H15.4943H15.4943H15.4944H15.4944H15.4945H15.4945H15.4946H15.4946H15.4946H15.4947H15.4947H15.4948H15.4948H15.4949H15.4949H15.495H15.495H15.4951H15.4951H15.4952H15.4952H15.4952H15.4953H15.4953H15.4954H15.4954H15.4955H15.4955H15.4956H15.4956H15.4957H15.4957H15.4957H15.4958H15.4958H15.4959H15.4959H15.496H15.496H15.496H15.4961H15.4961H15.4962H15.4962H15.4963H15.4963H15.4963H15.4964H15.4964H15.4965H15.4965H15.4966H15.4966H15.4966H15.4967H15.4967H15.4968H15.4968H15.4969H15.4969H15.4969H15.497H15.497H15.4971H15.4971H15.4971H15.4972H15.4972H15.4973H15.4973H15.4973H15.4974H15.4974H15.4975H15.4975H15.4975H15.4976H15.4976H15.4977H15.4977H15.4977H15.4978H15.4978H15.4979H15.4979H15.4979H15.498H15.498H15.4981H15.4981H15.4981H15.4982H15.4982H15.4982H15.4983H15.4983H15.4984H15.4984H15.4984H15.4985H15.4985H15.4985H15.4986H15.4986H15.4987H15.4987H15.4987H15.4988H15.4988H15.4988H15.4989H15.4989H15.4989H15.499H15.499H15.499H15.4991H15.4991H15.4992H15.4992H15.4992H15.4993H15.4993H15.4993H15.4994H15.4994H15.4994H15.4995H15.4995H15.4995H15.4996H15.4996H15.4996H15.4997H15.4997H15.4997H15.4998H15.4998H15.4998H15.4999H15.4999H15.4999H15.5H15.5H15.5H15.5001H15.5001H15.5001H15.5002H15.5002H15.5002H15.5003H15.5003H15.5003H15.5004H15.5004H15.5004H15.5005H15.5005H15.5005H15.5005H15.5006H15.5006H15.5006H15.5007H15.5007H15.5007H15.5008H15.5008H15.5008H15.5009H15.5009H15.5009H15.5009H15.501H15.501H15.501H15.5011H15.5011H15.5011H15.5011H15.5012H15.5012H15.5012H15.5013H15.5013H15.5013H15.5013H15.5014H15.5014H15.5014H15.5015H15.5015H15.5015H15.5015H15.5016H15.5016H15.5016H15.5017H15.5017H15.5017H15.5017H15.5018H15.5018H15.5018H15.5018H15.5019H15.5019H15.5019H15.5019H15.502H15.502H15.502H15.502H15.5021H15.5021H15.5021H15.5021H15.5022H15.5022H15.5022H15.5022H15.5023H15.5023H15.5023H15.5023H15.5024H15.5024H15.5024H15.5024H15.5025H15.5025H15.5025H15.5025H15.5026H15.5026H15.5026H15.5026H15.5027H15.5027H15.5027H15.5027H15.5028H15.5028H15.5028H15.5028H15.5028H15.5029H15.5029H15.5029H15.5029H15.503H15.503H15.503H15.503H15.503H15.5031H15.5031H15.5031H15.5031H15.5031H15.5032H15.5032H15.5032H15.5032H15.5033H15.5033H15.5033H15.5033H15.5033H15.5034H15.5034H15.5034H15.5034H15.5034H15.5035H15.5035H15.5035H15.5035H15.5035H15.5035H15.5036H15.5036H15.5036H15.5036H15.5036H15.5037H15.5037H15.5037H15.5037H15.5037H15.5038H15.5038H15.5038H15.5038H15.5038H15.5038H15.5039H15.5039H15.5039H15.5039H15.5039H15.5039H15.504H15.504H15.504H15.504H15.504H15.504H15.5041H15.5041H15.5041H15.5041H15.5041H15.5041H15.5042H15.5042H15.5042H15.5042H15.5042H15.5042H15.5043H15.5043H15.5043H15.5043H15.5043H15.5043H15.5043H15.5044H15.5044H15.5044H15.5044H15.5044H15.5044H15.5044H15.5045H15.5045H15.5045H15.5045H15.5045H15.5045H15.5045H15.5046H15.5046H15.5046H15.5046H15.5046H15.5046H15.5046H15.5046H15.5047H15.5047H15.5047H15.5047H15.5047H15.5047H15.5047H15.5047H15.5048H15.5048H15.5048H15.5048H15.5048H15.5048H15.5048H15.5048H15.5048H15.5049H15.5049H15.5049H15.5049H15.5049H15.5049H15.5049H15.5049H15.5049H15.505H15.505H15.505H15.505H15.505H15.505H15.505H15.505H15.505H15.505H15.5051H15.5051H15.5051H15.5051H15.5051H15.5051H15.5051H15.5051H15.5051H15.5051H15.5051H15.5051H15.5052H15.5052H15.5052H15.5052H15.5052H15.5052H15.5052H15.5052H15.5052H15.5052H15.5052H15.5052H15.5053H15.5053H15.5053H15.5053H15.5053H15.5053H15.5053H15.5054H15.5054H15.5054H15.5054H15.5054H15.5054H15.5054H15.5054H15.5054H15.5054H15.5054H15.5055H15.5055H15.5055H15.5055H15.5055H15.5055H15.5055H15.5055H15.5055H15.5055C15.7518 29.5 19.9368 29.4781 23.7703 28.2899C25.6899 27.695 27.4622 26.825 28.619 25.5718C29.6317 24.4747 30.1975 23.0595 29.9364 21.1807C29.8533 21.2347 29.7694 21.2865 29.6846 21.3362C29.6268 21.3702 29.569 21.4026 29.5124 21.4334C29.512 21.4336 29.5116 21.4338 29.5112 21.434L29.2728 20.9945C29.0279 21.129 28.7736 21.2453 28.5136 21.3491C28.2412 21.4576 27.9612 21.5509 27.6775 21.6335L1.08811 21.0177ZM1.08811 21.0177C1.09681 20.9605 1.10645 20.9027 1.11708 20.8435M1.08811 21.0177L1.11708 20.8435M1.11708 20.8435C1.1372 20.7338 1.16108 20.6208 1.18808 20.5041C1.24175 20.2734 1.29641 20.0434 1.3521 19.8121C1.36158 19.7732 1.37102 19.7345 1.38046 19.6958C1.90695 19.6514 2.40297 19.8002 2.80409 20.3227L2.80409 20.3227L2.80569 20.3248C2.86912 20.4065 2.93571 20.4914 3.0055 20.5755L1.11708 20.8435ZM5.2793 22.2109C5.98155 22.4196 6.76224 22.4168 7.62807 22.1488L4.20877 21.6982C4.53378 21.9179 4.8891 22.0956 5.2793 22.2109ZM3.0056 20.5757C3.35724 21 3.75395 21.3911 4.20861 21.698L3.0056 20.5757Z" fill="white" stroke="white"/>
<path opacity="0.15" d="M1.08811 21.0178L1.08739 21.0225C0.752356 23.0965 1.40849 24.6249 2.59041 25.7887C3.7957 26.9755 5.56618 27.7973 7.45425 28.3584C11.2255 29.4792 15.2529 29.5001 15.4932 29.5001H15.4932H15.4933H15.4933H15.4934H15.4934H15.4935H15.4935H15.4936H15.4936H15.4937H15.4937H15.4938H15.4938H15.4939H15.4939H15.494H15.494H15.4941H15.4941H15.4942H15.4942H15.4943H15.4943H15.4944H15.4944H15.4945H15.4945H15.4946H15.4946H15.4946H15.4947H15.4947H15.4948H15.4948H15.4949H15.4949H15.495H15.495H15.4951H15.4951H15.4952H15.4952H15.4952H15.4953H15.4953H15.4954H15.4954H15.4955H15.4955H15.4956H15.4956H15.4957H15.4957H15.4957H15.4958H15.4958H15.4959H15.4959H15.496H15.496H15.496H15.4961H15.4961H15.4962H15.4962H15.4963H15.4963H15.4963H15.4964H15.4964H15.4965H15.4965H15.4966H15.4966H15.4966H15.4967H15.4967H15.4968H15.4968H15.4969H15.4969H15.4969H15.497H15.497H15.4971H15.4971H15.4971H15.4972H15.4972H15.4973H15.4973H15.4973H15.4974H15.4974H15.4975H15.4975H15.4975H15.4976H15.4976H15.4977H15.4977H15.4977H15.4978H15.4978H15.4979H15.4979H15.4979H15.498H15.498H15.4981H15.4981H15.4981H15.4982H15.4982H15.4982H15.4983H15.4983H15.4984H15.4984H15.4984H15.4985H15.4985H15.4985H15.4986H15.4986H15.4987H15.4987H15.4987H15.4988H15.4988H15.4988H15.4989H15.4989H15.4989H15.499H15.499H15.499H15.4991H15.4991H15.4992H15.4992H15.4992H15.4993H15.4993H15.4993H15.4994H15.4994H15.4994H15.4995H15.4995H15.4995H15.4996H15.4996H15.4996H15.4997H15.4997H15.4997H15.4998H15.4998H15.4998H15.4999H15.4999H15.4999H15.5H15.5H15.5H15.5001H15.5001H15.5001H15.5002H15.5002H15.5002H15.5003H15.5003H15.5003H15.5004H15.5004H15.5004H15.5005H15.5005H15.5005H15.5005H15.5006H15.5006H15.5006H15.5007H15.5007H15.5007H15.5008H15.5008H15.5008H15.5009H15.5009H15.5009H15.5009H15.501H15.501H15.501H15.5011H15.5011H15.5011H15.5011H15.5012H15.5012H15.5012H15.5013H15.5013H15.5013H15.5013H15.5014H15.5014H15.5014H15.5015H15.5015H15.5015H15.5015H15.5016H15.5016H15.5016H15.5017H15.5017H15.5017H15.5017H15.5018H15.5018H15.5018H15.5018H15.5019H15.5019H15.5019H15.5019H15.502H15.502H15.502H15.502H15.5021H15.5021H15.5021H15.5021H15.5022H15.5022H15.5022H15.5022H15.5023H15.5023H15.5023H15.5023H15.5024H15.5024H15.5024H15.5024H15.5025H15.5025H15.5025H15.5025H15.5026H15.5026H15.5026H15.5026H15.5027H15.5027H15.5027H15.5027H15.5028H15.5028H15.5028H15.5028H15.5028H15.5029H15.5029H15.5029H15.5029H15.503H15.503H15.503H15.503H15.503H15.5031H15.5031H15.5031H15.5031H15.5031H15.5032H15.5032H15.5032H15.5032H15.5033H15.5033H15.5033H15.5033H15.5033H15.5034H15.5034H15.5034H15.5034H15.5034H15.5035H15.5035H15.5035H15.5035H15.5035H15.5035H15.5036H15.5036H15.5036H15.5036H15.5036H15.5037H15.5037H15.5037H15.5037H15.5037H15.5038H15.5038H15.5038H15.5038H15.5038H15.5038H15.5039H15.5039H15.5039H15.5039H15.5039H15.5039H15.504H15.504H15.504H15.504H15.504H15.504H15.5041H15.5041H15.5041H15.5041H15.5041H15.5041H15.5042H15.5042H15.5042H15.5042H15.5042H15.5042H15.5043H15.5043H15.5043H15.5043H15.5043H15.5043H15.5043H15.5044H15.5044H15.5044H15.5044H15.5044H15.5044H15.5044H15.5045H15.5045H15.5045H15.5045H15.5045H15.5045H15.5045H15.5046H15.5046H15.5046H15.5046H15.5046H15.5046H15.5046H15.5046H15.5047H15.5047H15.5047H15.5047H15.5047H15.5047H15.5047H15.5047H15.5048H15.5048H15.5048H15.5048H15.5048H15.5048H15.5048H15.5048H15.5048H15.5049H15.5049H15.5049H15.5049H15.5049H15.5049H15.5049H15.5049H15.5049H15.505H15.505H15.505H15.505H15.505H15.505H15.505H15.505H15.505H15.505H15.5051H15.5051H15.5051H15.5051H15.5051H15.5051H15.5051H15.5051H15.5051H15.5051H15.5051H15.5051H15.5052H15.5052H15.5052H15.5052H15.5052H15.5052H15.5052H15.5052H15.5052H15.5052H15.5052H15.5052H15.5053H15.5053H15.5053H15.5053H15.5053H15.5053H15.5053H15.5054H15.5054H15.5054H15.5054H15.5054H15.5054H15.5054H15.5054H15.5054H15.5054H15.5054H15.5055H15.5055H15.5055H15.5055H15.5055H15.5055H15.5055H15.5055H15.5055H15.5055C15.7518 29.5001 19.9368 29.4782 23.7703 28.2901C25.6899 27.6951 27.4622 26.8252 28.619 25.5719C29.6763 24.4266 30.2464 22.9344 29.897 20.93C29.8327 21.0373 29.7667 21.1461 29.6989 21.2562C29.5598 21.4834 29.4132 21.7179 29.2583 21.9552M1.08811 21.0178L28.8391 21.6826M1.08811 21.0178C1.09681 20.9606 1.10645 20.9028 1.11708 20.8436M1.08811 21.0178L1.11708 20.8436M29.2583 21.9552C29.2581 21.9555 29.2579 21.9557 29.2577 21.956L28.8391 21.6826M29.2583 21.9552C29.2584 21.955 29.2585 21.9549 29.2586 21.9547L28.8391 21.6826M29.2583 21.9552C28.2823 23.4596 27.0244 25.1119 25.6581 26.15C24.9729 26.6706 24.2285 27.0616 23.4518 27.178C22.6573 27.297 21.8636 27.1224 21.1222 26.5734M28.8391 21.6826C26.9031 24.6671 23.9593 28.0533 21.4188 26.1709M21.1222 26.5734C21.1222 26.5735 21.1223 26.5736 21.1224 26.5736L21.4188 26.1709M21.1222 26.5734C20.7899 26.3288 20.4749 26.0126 20.1769 25.6266M21.1222 26.5734C21.1218 26.5732 21.1215 26.5729 21.1211 26.5727L21.4188 26.1709M21.4188 26.1709L20.1769 25.6266M20.1769 25.6266C20.1768 25.6264 20.1766 25.6263 20.1765 25.6261L20.5723 25.3206L20.1773 25.6271C20.1771 25.6269 20.177 25.6268 20.1769 25.6266ZM29.7417 20.2083C29.7453 20.2235 29.7488 20.2387 29.7524 20.2552L29.7522 20.2553L29.7553 20.2679C29.7674 20.3167 29.7778 20.3618 29.789 20.4109C29.7958 20.4403 29.8028 20.471 29.8108 20.5048C29.8107 20.5044 29.8106 20.5041 29.8105 20.5037L29.7417 20.2083ZM29.7417 20.2083C29.7717 20.1564 29.8012 20.1051 29.8302 20.0543L29.9194 20.0332L29.9194 20.0332L30.1981 19.9674M29.7417 20.2083L30.2408 20.1481C30.2322 20.1091 30.2229 20.0706 30.2135 20.032C30.2083 20.0105 30.2031 19.989 30.1981 19.9674M1.11708 20.8436C1.1372 20.7339 1.16107 20.6209 1.18808 20.5042C1.24175 20.2735 1.29641 20.0435 1.3521 19.8122C1.38818 19.6642 1.42374 19.5183 1.46016 19.3736L1.46031 19.373C1.49451 19.2364 1.52836 19.1012 1.5631 18.9653L1.11708 20.8436ZM1.66124 18.5864C1.62822 18.711 1.596 18.8368 1.56316 18.965L1.66124 18.5864ZM1.66124 18.5864L1.66201 18.5839C1.66385 18.5776 1.66604 18.5698 1.66829 18.5606M1.66124 18.5864L1.66829 18.5606M1.66829 18.5606C1.69595 18.4553 1.72393 18.3502 1.75231 18.2454C1.93714 18.325 2.12203 18.4334 2.30554 18.5773L1.66829 18.5606ZM4.01798 21.453C4.00586 21.4201 3.9939 21.385 3.98454 21.3575C3.9814 21.3483 3.97855 21.34 3.97609 21.3329L3.97453 21.3283L3.97455 21.3283C3.90481 21.1202 3.83155 20.9233 3.75664 20.7387L3.75633 20.7379C3.31136 19.6363 2.80368 18.9683 2.30565 18.5774L4.01798 21.453ZM4.01798 21.453C4.44472 22.6709 5.19885 24.0932 6.57691 24.6947C6.71486 24.7553 6.85786 24.8061 7.00352 24.8474L7.00384 24.8475C7.90014 25.1012 8.82817 24.9731 9.6641 24.6781C10.5016 24.3826 11.2807 23.9082 11.9065 23.4188M4.01798 21.453L20.3502 25.039L19.961 25.3529C19.1823 24.3875 18.0002 23.2591 16.7146 22.5942C15.4321 21.9309 14.144 21.7703 13.0162 22.5322L13.0161 22.5323C12.8371 22.6531 12.664 22.7919 12.4805 22.945C12.4358 22.9823 12.3899 23.0209 12.343 23.0604C12.2036 23.1777 12.0558 23.3022 11.9065 23.4188M11.9065 23.4188C11.9064 23.4189 11.9064 23.4189 11.9063 23.419L11.5985 23.025L11.9065 23.4188ZM30.1981 19.9674L29.9191 20.033L29.919 20.033L29.8305 20.0539L30.1022 19.5696M30.1981 19.9674C30.1719 19.8566 30.1451 19.7458 30.1181 19.635C30.118 19.6345 30.1179 19.634 30.1178 19.6335C30.1127 19.6128 30.1076 19.592 30.1026 19.5712L30.1022 19.5696M30.1022 19.5696C30.0984 19.5768 30.0944 19.584 30.0904 19.5912C30.0863 19.5984 30.0823 19.6056 30.0785 19.6129L30.1022 19.5696ZM6.77752 24.2367C6.89329 24.2876 7.01477 24.3308 7.14004 24.3664L6.77752 24.2367Z" fill="white" stroke="white"/>
<path opacity="0.15" d="M3.97698 20.9876L3.97585 20.9869C3.75698 20.8645 3.53198 20.7891 3.30449 20.7491C2.52415 20.6137 1.70208 20.9046 1.05345 21.2565C0.802998 23.212 1.45342 24.669 2.59041 25.7886C3.7957 26.9753 5.56618 27.7971 7.45425 28.3582C11.2255 29.479 15.2529 29.5 15.4932 29.5H15.4932H15.4933H15.4933H15.4934H15.4934H15.4935H15.4935H15.4936H15.4936H15.4937H15.4937H15.4938H15.4938H15.4939H15.4939H15.494H15.494H15.4941H15.4941H15.4942H15.4942H15.4943H15.4943H15.4944H15.4944H15.4945H15.4945H15.4946H15.4946H15.4946H15.4947H15.4947H15.4948H15.4948H15.4949H15.4949H15.495H15.495H15.4951H15.4951H15.4952H15.4952H15.4952H15.4953H15.4953H15.4954H15.4954H15.4955H15.4955H15.4956H15.4956H15.4957H15.4957H15.4957H15.4958H15.4958H15.4959H15.4959H15.496H15.496H15.496H15.4961H15.4961H15.4962H15.4962H15.4963H15.4963H15.4963H15.4964H15.4964H15.4965H15.4965H15.4966H15.4966H15.4966H15.4967H15.4967H15.4968H15.4968H15.4969H15.4969H15.4969H15.497H15.497H15.4971H15.4971H15.4971H15.4972H15.4972H15.4973H15.4973H15.4973H15.4974H15.4974H15.4975H15.4975H15.4975H15.4976H15.4976H15.4977H15.4977H15.4977H15.4978H15.4978H15.4979H15.4979H15.4979H15.498H15.498H15.4981H15.4981H15.4981H15.4982H15.4982H15.4982H15.4983H15.4983H15.4984H15.4984H15.4984H15.4985H15.4985H15.4985H15.4986H15.4986H15.4987H15.4987H15.4987H15.4988H15.4988H15.4988H15.4989H15.4989H15.4989H15.499H15.499H15.499H15.4991H15.4991H15.4992H15.4992H15.4992H15.4993H15.4993H15.4993H15.4994H15.4994H15.4994H15.4995H15.4995H15.4995H15.4996H15.4996H15.4996H15.4997H15.4997H15.4997H15.4998H15.4998H15.4998H15.4999H15.4999H15.4999H15.5H15.5H15.5H15.5001H15.5001H15.5001H15.5002H15.5002H15.5002H15.5003H15.5003H15.5003H15.5004H15.5004H15.5004H15.5005H15.5005H15.5005H15.5005H15.5006H15.5006H15.5006H15.5007H15.5007H15.5007H15.5008H15.5008H15.5008H15.5009H15.5009H15.5009H15.5009H15.501H15.501H15.501H15.5011H15.5011H15.5011H15.5011H15.5012H15.5012H15.5012H15.5013H15.5013H15.5013H15.5013H15.5014H15.5014H15.5014H15.5015H15.5015H15.5015H15.5015H15.5016H15.5016H15.5016H15.5017H15.5017H15.5017H15.5017H15.5018H15.5018H15.5018H15.5018H15.5019H15.5019H15.5019H15.5019H15.502H15.502H15.502H15.502H15.5021H15.5021H15.5021H15.5021H15.5022H15.5022H15.5022H15.5022H15.5023H15.5023H15.5023H15.5023H15.5024H15.5024H15.5024H15.5024H15.5025H15.5025H15.5025H15.5025H15.5026H15.5026H15.5026H15.5026H15.5027H15.5027H15.5027H15.5027H15.5028H15.5028H15.5028H15.5028H15.5028H15.5029H15.5029H15.5029H15.5029H15.503H15.503H15.503H15.503H15.503H15.5031H15.5031H15.5031H15.5031H15.5031H15.5032H15.5032H15.5032H15.5032H15.5033H15.5033H15.5033H15.5033H15.5033H15.5034H15.5034H15.5034H15.5034H15.5034H15.5035H15.5035H15.5035H15.5035H15.5035H15.5035H15.5036H15.5036H15.5036H15.5036H15.5036H15.5037H15.5037H15.5037H15.5037H15.5037H15.5038H15.5038H15.5038H15.5038H15.5038H15.5038H15.5039H15.5039H15.5039H15.5039H15.5039H15.5039H15.504H15.504H15.504H15.504H15.504H15.504H15.5041H15.5041H15.5041H15.5041H15.5041H15.5041H15.5042H15.5042H15.5042H15.5042H15.5042H15.5042H15.5043H15.5043H15.5043H15.5043H15.5043H15.5043H15.5043H15.5044H15.5044H15.5044H15.5044H15.5044H15.5044H15.5044H15.5045H15.5045H15.5045H15.5045H15.5045H15.5045H15.5045H15.5046H15.5046H15.5046H15.5046H15.5046H15.5046H15.5046H15.5046H15.5047H15.5047H15.5047H15.5047H15.5047H15.5047H15.5047H15.5047H15.5048H15.5048H15.5048H15.5048H15.5048H15.5048H15.5048H15.5048H15.5048H15.5049H15.5049H15.5049H15.5049H15.5049H15.5049H15.5049H15.5049H15.5049H15.505H15.505H15.505H15.505H15.505H15.505H15.505H15.505H15.505H15.505H15.5051H15.5051H15.5051H15.5051H15.5051H15.5051H15.5051H15.5051H15.5051H15.5051H15.5051H15.5051H15.5052H15.5052H15.5052H15.5052H15.5052H15.5052H15.5052H15.5052H15.5052H15.5052H15.5052H15.5052H15.5053H15.5053H15.5053H15.5053H15.5053H15.5053H15.5053H15.5054H15.5054H15.5054H15.5054H15.5054H15.5054H15.5054H15.5054H15.5054H15.5054H15.5054H15.5055H15.5055H15.5055H15.5055H15.5055H15.5055H15.5055H15.5055H15.5055H15.5055C15.7518 29.5 19.9368 29.4781 23.7703 28.2899C25.6899 27.695 27.4622 26.825 28.619 25.5718C29.7429 24.3542 30.3164 22.7448 29.8199 20.5447C29.6796 20.6132 29.5477 20.7207 29.4335 20.8411C29.3588 20.9198 29.3003 20.995 29.2611 21.0497C29.2416 21.0768 29.2274 21.0983 29.2187 21.1117L29.2155 21.1168L29.2066 21.1342C29.1941 21.1583 29.1759 21.1929 29.1522 21.2368C29.1048 21.3246 29.0351 21.4499 28.9436 21.6042M3.97698 20.9876L27.5693 22.7231L27.9624 23.0321C28.4034 22.4709 28.7325 21.9604 28.9436 21.6042M3.97698 20.9876C4.32057 21.1786 4.67227 21.4948 5.00175 22.0034L5.00189 22.0036C5.18965 22.2931 5.37037 22.6455 5.53738 23.0713C5.74456 23.6029 6.02684 24.1172 6.39338 24.5566C6.98071 25.2615 7.79167 25.7777 8.83266 25.836L8.83275 25.836C10.4141 25.9241 11.8146 25.0837 12.9224 24.3196L3.97698 20.9876ZM28.9436 21.6042L28.5136 21.3491L28.9437 21.604C28.9437 21.604 28.9436 21.6041 28.9436 21.6042ZM30.1981 19.9673L29.9369 20.0287L29.936 20.0289L29.8745 20.0434L29.872 20.044L29.7113 20.0818C29.7182 20.1108 29.724 20.135 29.7294 20.1572C29.7377 20.1913 29.7448 20.2205 29.7524 20.2551L29.7522 20.2552L29.7553 20.2678C29.7674 20.3165 29.7778 20.3617 29.789 20.4108C29.7958 20.4402 29.8028 20.4709 29.8108 20.5047C29.8107 20.5043 29.8106 20.5039 29.8105 20.5036L29.9755 20.4655L30.0027 20.4592L30.0084 20.4579L30.0177 20.4557L30.1981 19.9673Z" fill="white" stroke="white"/>
<path opacity="0.15" d="M1.08811 21.0178L1.08739 21.0224C0.752356 23.0964 1.40849 24.6249 2.59041 25.7887C3.7957 26.9754 5.56618 27.7972 7.45425 28.3583C11.2255 29.4791 15.2529 29.5001 15.4932 29.5001H15.4932H15.4933H15.4933H15.4934H15.4934H15.4935H15.4935H15.4936H15.4936H15.4937H15.4937H15.4938H15.4938H15.4939H15.4939H15.494H15.494H15.4941H15.4941H15.4942H15.4942H15.4943H15.4943H15.4944H15.4944H15.4945H15.4945H15.4946H15.4946H15.4946H15.4947H15.4947H15.4948H15.4948H15.4949H15.4949H15.495H15.495H15.4951H15.4951H15.4952H15.4952H15.4952H15.4953H15.4953H15.4954H15.4954H15.4955H15.4955H15.4956H15.4956H15.4957H15.4957H15.4957H15.4958H15.4958H15.4959H15.4959H15.496H15.496H15.496H15.4961H15.4961H15.4962H15.4962H15.4963H15.4963H15.4963H15.4964H15.4964H15.4965H15.4965H15.4966H15.4966H15.4966H15.4967H15.4967H15.4968H15.4968H15.4969H15.4969H15.4969H15.497H15.497H15.4971H15.4971H15.4971H15.4972H15.4972H15.4973H15.4973H15.4973H15.4974H15.4974H15.4975H15.4975H15.4975H15.4976H15.4976H15.4977H15.4977H15.4977H15.4978H15.4978H15.4979H15.4979H15.4979H15.498H15.498H15.4981H15.4981H15.4981H15.4982H15.4982H15.4982H15.4983H15.4983H15.4984H15.4984H15.4984H15.4985H15.4985H15.4985H15.4986H15.4986H15.4987H15.4987H15.4987H15.4988H15.4988H15.4988H15.4989H15.4989H15.4989H15.499H15.499H15.499H15.4991H15.4991H15.4992H15.4992H15.4992H15.4993H15.4993H15.4993H15.4994H15.4994H15.4994H15.4995H15.4995H15.4995H15.4996H15.4996H15.4996H15.4997H15.4997H15.4997H15.4998H15.4998H15.4998H15.4999H15.4999H15.4999H15.5H15.5H15.5H15.5001H15.5001H15.5001H15.5002H15.5002H15.5002H15.5003H15.5003H15.5003H15.5004H15.5004H15.5004H15.5005H15.5005H15.5005H15.5005H15.5006H15.5006H15.5006H15.5007H15.5007H15.5007H15.5008H15.5008H15.5008H15.5009H15.5009H15.5009H15.5009H15.501H15.501H15.501H15.5011H15.5011H15.5011H15.5011H15.5012H15.5012H15.5012H15.5013H15.5013H15.5013H15.5013H15.5014H15.5014H15.5014H15.5015H15.5015H15.5015H15.5015H15.5016H15.5016H15.5016H15.5017H15.5017H15.5017H15.5017H15.5018H15.5018H15.5018H15.5018H15.5019H15.5019H15.5019H15.5019H15.502H15.502H15.502H15.502H15.5021H15.5021H15.5021H15.5021H15.5022H15.5022H15.5022H15.5022H15.5023H15.5023H15.5023H15.5023H15.5024H15.5024H15.5024H15.5024H15.5025H15.5025H15.5025H15.5025H15.5026H15.5026H15.5026H15.5026H15.5027H15.5027H15.5027H15.5027H15.5028H15.5028H15.5028H15.5028H15.5028H15.5029H15.5029H15.5029H15.5029H15.503H15.503H15.503H15.503H15.503H15.5031H15.5031H15.5031H15.5031H15.5031H15.5032H15.5032H15.5032H15.5032H15.5033H15.5033H15.5033H15.5033H15.5033H15.5034H15.5034H15.5034H15.5034H15.5034H15.5035H15.5035H15.5035H15.5035H15.5035H15.5035H15.5036H15.5036H15.5036H15.5036H15.5036H15.5037H15.5037H15.5037H15.5037H15.5037H15.5038H15.5038H15.5038H15.5038H15.5038H15.5038H15.5039H15.5039H15.5039H15.5039H15.5039H15.5039H15.504H15.504H15.504H15.504H15.504H15.504H15.5041H15.5041H15.5041H15.5041H15.5041H15.5041H15.5042H15.5042H15.5042H15.5042H15.5042H15.5042H15.5043H15.5043H15.5043H15.5043H15.5043H15.5043H15.5043H15.5044H15.5044H15.5044H15.5044H15.5044H15.5044H15.5044H15.5045H15.5045H15.5045H15.5045H15.5045H15.5045H15.5045H15.5046H15.5046H15.5046H15.5046H15.5046H15.5046H15.5046H15.5046H15.5047H15.5047H15.5047H15.5047H15.5047H15.5047H15.5047H15.5047H15.5048H15.5048H15.5048H15.5048H15.5048H15.5048H15.5048H15.5048H15.5048H15.5049H15.5049H15.5049H15.5049H15.5049H15.5049H15.5049H15.5049H15.5049H15.505H15.505H15.505H15.505H15.505H15.505H15.505H15.505H15.505H15.505H15.5051H15.5051H15.5051H15.5051H15.5051H15.5051H15.5051H15.5051H15.5051H15.5051H15.5051H15.5051H15.5052H15.5052H15.5052H15.5052H15.5052H15.5052H15.5052H15.5052H15.5052H15.5052H15.5052H15.5052H15.5053H15.5053H15.5053H15.5053H15.5053H15.5053H15.5053H15.5054H15.5054H15.5054H15.5054H15.5054H15.5054H15.5054H15.5054H15.5054H15.5054H15.5054H15.5055H15.5055H15.5055H15.5055H15.5055H15.5055H15.5055H15.5055H15.5055H15.5055C15.7518 29.5001 19.9368 29.4782 23.7703 28.29C25.6899 27.6951 27.4622 26.8251 28.619 25.5719C29.6518 24.453 30.2198 23.0031 29.9198 21.0681C29.8977 21.1037 29.875 21.1397 29.8516 21.1759L29.8508 21.1772C29.6763 21.4464 29.4654 21.734 29.2115 22.0162C28.8424 22.4295 28.3824 22.833 27.8182 23.1569C26.4902 23.9194 24.6631 24.1941 22.241 23.2599C21.5502 22.9935 20.941 22.5432 20.3661 22.1054C20.3165 22.0677 20.2672 22.0299 20.2179 21.9923C19.6794 21.581 19.1529 21.1789 18.5457 20.8562C17.2728 20.1799 15.596 19.8287 12.8208 20.9144C12.537 21.0255 12.2532 21.1692 11.9537 21.3299C11.8704 21.3746 11.7847 21.4213 11.6974 21.4688C11.48 21.5873 11.2526 21.7111 11.0274 21.8234C10.389 22.1414 9.66187 22.4231 8.83275 22.3769C8.31161 22.348 7.80535 22.2862 7.34104 22.1511L7.48073 21.6711M1.08811 21.0178L5.34771 20.3812C5.73724 21.3775 6.46157 21.8966 7.3417 22.1513L7.48073 21.6711M1.08811 21.0178C1.09681 20.9605 1.10645 20.9028 1.11708 20.8436M1.08811 21.0178L1.11708 20.8436M7.48073 21.6711C6.72057 21.451 6.13599 21.0244 5.81332 20.199C5.17369 18.5645 3.92385 18.1119 2.61422 18.184L20.5177 21.5921C18.8158 20.2915 16.8603 18.7972 12.6386 20.4488C12.2342 20.607 11.8422 20.8206 11.4496 21.0344C10.6286 21.4817 9.80495 21.9303 8.86059 21.8776C8.35761 21.8498 7.89355 21.7912 7.48073 21.6711ZM1.11708 20.8436C1.1372 20.7339 1.16108 20.6209 1.18808 20.5042C1.24174 20.2735 1.2964 20.0435 1.35209 19.8122C1.38818 19.6642 1.42374 19.5183 1.46016 19.3736L1.46031 19.373C1.49451 19.2364 1.52836 19.1012 1.5631 18.9653L1.11708 20.8436ZM30.1159 19.6259C30.1115 19.6077 30.107 19.5894 30.1026 19.5712L30.1022 19.5696L30.1022 19.5695C30.1012 19.5647 30.1003 19.56 30.0984 19.5552C30.0968 19.56 30.095 19.5655 30.093 19.5714C30.0929 19.5716 30.0929 19.5717 30.0928 19.5719C30.0888 19.5835 30.0841 19.5971 30.0785 19.6128M30.1159 19.6259L29.9056 20.0362C29.9135 20.0187 29.9211 20.0015 29.9285 19.9847M30.1159 19.6259L30.0785 19.6128M30.1159 19.6259L30.1981 19.9674C30.1712 19.8536 30.1436 19.7399 30.116 19.6262L30.0785 19.6128M30.0785 19.6128C30.051 19.6916 30.0016 19.8204 29.9285 19.9847M29.9285 19.9847L29.9968 20.0147L29.9285 19.9847ZM1.59326 18.8476C1.58326 18.8866 1.57324 18.9257 1.56316 18.965L1.59326 18.8476ZM1.59326 18.8476C1.94525 18.7609 2.29845 18.7018 2.6413 18.6832L2.6417 18.6832C3.23371 18.6506 3.77239 18.7391 4.22251 18.9888C4.6645 19.2339 5.06482 19.6584 5.34764 20.381L1.59326 18.8476Z" fill="white" stroke="white"/>
</g>
<defs>
<radialGradient id="paint0_radial" cx="0" cy="0" r="1" gradientUnits="userSpaceOnUse" gradientTransform="translate(15.4999 14.9998) scale(14.9075 15.0942)">
<stop offset="2.23767e-07" stop-color="#CFCFFA"/>
<stop offset="1" stop-color="#767FF7"/>
</radialGradient>
<clipPath id="clip0">
<rect width="30" height="30" fill="white" transform="translate(0.5)"/>
</clipPath>
</defs>
</svg>
