<svg width="492" height="515" viewBox="0 0 492 515" fill="none" xmlns="http://www.w3.org/2000/svg">
<circle cx="246" cy="269" r="246" fill="#9AA2FD"/>
<circle cx="246" cy="269" r="246" fill="#949DFF"/>
<circle cx="246" cy="269" r="211" fill="#9AA2FD"/>
<circle cx="246" cy="269" r="211" fill="#99A1FF"/>
<circle cx="246" cy="269" r="177" fill="#9AA2FD"/>
<circle cx="246" cy="269" r="177" fill="#9EA6FF"/>
<path d="M335.4 78C333.829 69.7727 325.145 65.5733 321 64.5021C330.949 61.931 335.618 69.8584 336.709 74.1434C347.705 67.973 354.818 72.0009 357 74.7862C348.622 72.2152 339.109 75.8575 335.4 78Z" fill="#B4BAFF"/>
<path d="M100.8 94C99.84 89.2987 94.5333 86.899 92 86.2869C98.08 84.8177 100.933 89.3477 101.6 91.7963C108.32 88.2703 112.667 90.572 114 92.1635C108.88 90.6944 103.067 92.7757 100.8 94Z" fill="#B4BAFF"/>
<circle cx="246" cy="269" r="142" fill="#A3ABFF"/>
<path d="M384.248 115.025C336.249 101.525 343.248 142.025 353.248 142.025C357.357 142.025 365.873 143.025 376.249 143.025H407.749C447.748 143.025 459.249 140.358 459.749 139.525C463.249 113.025 442.082 115.525 430.749 118.525C432.582 108.692 430.649 88.8252 408.248 88.0252C385.848 87.2252 382.915 105.692 384.248 115.025Z" fill="#B4BAFF"/>
<path d="M46.7557 39.7874C25.7283 33.8992 28.7946 51.5638 33.1753 51.5638C34.9751 51.5638 38.7059 52 43.2514 52H57.0509C74.5738 52 79.6117 50.8369 79.831 50.4734C81.3643 38.9151 72.0916 40.0055 67.1267 41.314C67.9299 37.025 67.0828 28.3599 57.2696 28.011C47.4564 27.662 46.1715 35.7165 46.7557 39.7874Z" fill="#A6ADFB"/>
<circle cx="78" cy="17" r="6" fill="#A6ADFB"/>
<circle r="3" transform="matrix(1 0 0 -1 69 3)" fill="#A6ADFB"/>
</svg>
